; NON-PLATED HOLES START AT T1
; THROUGH (PLATED) HOLES START AT T100
M48
INCH
T100C0.015748
T101C0.048000
T102C0.038000
T103C0.044000
T104C0.036000
T105C0.042000
%
T100
X010380Y010602
X020380Y000602
X002380Y000602
X010380Y001602
X003380Y006602
X006380Y003602
X000380Y009602
X003380Y007602
X018380Y003602
X002380Y003602
X014380Y001602
X008380Y010602
X022380Y003602
T101
X000380Y011602
T102
X018380Y000602
X002380Y006602
X003380Y000602
X019380Y000602
X002380Y007602
X004380Y000602
X002380Y008602
X005380Y000602
X016380Y000602
X006380Y000602
X001380Y010602
X017380Y000602
T103
X000380Y010602
T104
X013380Y004602
X007380Y011602
X008380Y011602
X005380Y004602
X010380Y011602
X014380Y004602
X011380Y011602
X015380Y004602
X009380Y011602
X016380Y004602
X006380Y004602
X007380Y004602
X012380Y011602
X008380Y004602
X013380Y011602
X010380Y004602
X011380Y004602
X005380Y011602
X009380Y004602
X014380Y011602
X015380Y011602
X016380Y011602
X012380Y004602
X006380Y011602
T105
X013380Y002602
X002380Y011602
X001380Y011602
X007380Y002602
X010380Y002602
X019380Y002602
X003380Y002602
X022380Y002602
X018380Y002602
X021380Y002602
X015380Y002602
X009380Y002602
X011380Y002602
X006380Y002602
X005380Y002602
X023380Y002602
X002380Y002602
X017380Y002602
X001380Y002602
X014380Y002602
T00
M30
