G04 MADE WITH FRITZING*
G04 WWW.FRITZING.ORG*
G04 DOUBLE SIDED*
G04 HOLES PLATED*
G04 CONTOUR ON CENTER OF CONTOUR VECTOR*
%ASAXBY*%
%FSLAX23Y23*%
%MOIN*%
%OFA0B0*%
%SFA1.0B1.0*%
%ADD10R,0.001000X0.001000*%
%LNSILK0*%
G90*
G70*
G54D10*
X0Y1220D02*
X2400Y1220D01*
X0Y1219D02*
X2400Y1219D01*
X0Y1218D02*
X2400Y1218D01*
X0Y1217D02*
X2400Y1217D01*
X0Y1216D02*
X2400Y1216D01*
X0Y1215D02*
X2400Y1215D01*
X0Y1214D02*
X2400Y1214D01*
X0Y1213D02*
X2400Y1213D01*
X0Y1212D02*
X7Y1212D01*
X2393Y1212D02*
X2400Y1212D01*
X0Y1211D02*
X7Y1211D01*
X2393Y1211D02*
X2400Y1211D01*
X0Y1210D02*
X7Y1210D01*
X2393Y1210D02*
X2400Y1210D01*
X0Y1209D02*
X7Y1209D01*
X2393Y1209D02*
X2400Y1209D01*
X0Y1208D02*
X7Y1208D01*
X2393Y1208D02*
X2400Y1208D01*
X0Y1207D02*
X7Y1207D01*
X2393Y1207D02*
X2400Y1207D01*
X2393Y1206D02*
X2400Y1206D01*
X2393Y1205D02*
X2400Y1205D01*
X2393Y1204D02*
X2400Y1204D01*
X2393Y1203D02*
X2400Y1203D01*
X2393Y1202D02*
X2400Y1202D01*
X2393Y1201D02*
X2400Y1201D01*
X2393Y1200D02*
X2400Y1200D01*
X2393Y1199D02*
X2400Y1199D01*
X2393Y1198D02*
X2400Y1198D01*
X2393Y1197D02*
X2400Y1197D01*
X2393Y1196D02*
X2400Y1196D01*
X2393Y1195D02*
X2400Y1195D01*
X2393Y1194D02*
X2400Y1194D01*
X2393Y1193D02*
X2400Y1193D01*
X2393Y1192D02*
X2400Y1192D01*
X2393Y1191D02*
X2400Y1191D01*
X2393Y1190D02*
X2400Y1190D01*
X2393Y1189D02*
X2400Y1189D01*
X2393Y1188D02*
X2400Y1188D01*
X2393Y1187D02*
X2400Y1187D01*
X2393Y1186D02*
X2400Y1186D01*
X2393Y1185D02*
X2400Y1185D01*
X2393Y1184D02*
X2400Y1184D01*
X2393Y1183D02*
X2400Y1183D01*
X2393Y1182D02*
X2400Y1182D01*
X2393Y1181D02*
X2400Y1181D01*
X2393Y1180D02*
X2400Y1180D01*
X2393Y1179D02*
X2400Y1179D01*
X2393Y1178D02*
X2400Y1178D01*
X2393Y1177D02*
X2400Y1177D01*
X2393Y1176D02*
X2400Y1176D01*
X2393Y1175D02*
X2400Y1175D01*
X2393Y1174D02*
X2400Y1174D01*
X2393Y1173D02*
X2400Y1173D01*
X2393Y1172D02*
X2400Y1172D01*
X2393Y1171D02*
X2400Y1171D01*
X2393Y1170D02*
X2400Y1170D01*
X2393Y1169D02*
X2400Y1169D01*
X2393Y1168D02*
X2400Y1168D01*
X2393Y1167D02*
X2400Y1167D01*
X2393Y1166D02*
X2400Y1166D01*
X2393Y1165D02*
X2400Y1165D01*
X2393Y1164D02*
X2400Y1164D01*
X2393Y1163D02*
X2400Y1163D01*
X2393Y1162D02*
X2400Y1162D01*
X2393Y1161D02*
X2400Y1161D01*
X2393Y1160D02*
X2400Y1160D01*
X2393Y1159D02*
X2400Y1159D01*
X2393Y1158D02*
X2400Y1158D01*
X2393Y1157D02*
X2400Y1157D01*
X2393Y1156D02*
X2400Y1156D01*
X2393Y1155D02*
X2400Y1155D01*
X2393Y1154D02*
X2400Y1154D01*
X2393Y1153D02*
X2400Y1153D01*
X2393Y1152D02*
X2400Y1152D01*
X2393Y1151D02*
X2400Y1151D01*
X2393Y1150D02*
X2400Y1150D01*
X2393Y1149D02*
X2400Y1149D01*
X2393Y1148D02*
X2400Y1148D01*
X2393Y1147D02*
X2400Y1147D01*
X2393Y1146D02*
X2400Y1146D01*
X2393Y1145D02*
X2400Y1145D01*
X2393Y1144D02*
X2400Y1144D01*
X2393Y1143D02*
X2400Y1143D01*
X2393Y1142D02*
X2400Y1142D01*
X2393Y1141D02*
X2400Y1141D01*
X2393Y1140D02*
X2400Y1140D01*
X2393Y1139D02*
X2400Y1139D01*
X2393Y1138D02*
X2400Y1138D01*
X2393Y1137D02*
X2400Y1137D01*
X2393Y1136D02*
X2400Y1136D01*
X2393Y1135D02*
X2400Y1135D01*
X2393Y1134D02*
X2400Y1134D01*
X2393Y1133D02*
X2400Y1133D01*
X2393Y1132D02*
X2400Y1132D01*
X2393Y1131D02*
X2400Y1131D01*
X2393Y1130D02*
X2400Y1130D01*
X2393Y1129D02*
X2400Y1129D01*
X2393Y1128D02*
X2400Y1128D01*
X2393Y1127D02*
X2400Y1127D01*
X2393Y1126D02*
X2400Y1126D01*
X2393Y1125D02*
X2400Y1125D01*
X2393Y1124D02*
X2400Y1124D01*
X2393Y1123D02*
X2400Y1123D01*
X2393Y1122D02*
X2400Y1122D01*
X2393Y1121D02*
X2400Y1121D01*
X2393Y1120D02*
X2400Y1120D01*
X2393Y1119D02*
X2400Y1119D01*
X2393Y1118D02*
X2400Y1118D01*
X2393Y1117D02*
X2400Y1117D01*
X2393Y1116D02*
X2400Y1116D01*
X2393Y1115D02*
X2400Y1115D01*
X0Y1114D02*
X7Y1114D01*
X2393Y1114D02*
X2400Y1114D01*
X0Y1113D02*
X7Y1113D01*
X2393Y1113D02*
X2400Y1113D01*
X0Y1112D02*
X7Y1112D01*
X2393Y1112D02*
X2400Y1112D01*
X0Y1111D02*
X7Y1111D01*
X2393Y1111D02*
X2400Y1111D01*
X0Y1110D02*
X7Y1110D01*
X2393Y1110D02*
X2400Y1110D01*
X0Y1109D02*
X7Y1109D01*
X2393Y1109D02*
X2400Y1109D01*
X0Y1108D02*
X7Y1108D01*
X2393Y1108D02*
X2400Y1108D01*
X0Y1107D02*
X7Y1107D01*
X2393Y1107D02*
X2400Y1107D01*
X0Y1106D02*
X7Y1106D01*
X2393Y1106D02*
X2400Y1106D01*
X0Y1105D02*
X7Y1105D01*
X2393Y1105D02*
X2400Y1105D01*
X0Y1104D02*
X7Y1104D01*
X2393Y1104D02*
X2400Y1104D01*
X0Y1103D02*
X7Y1103D01*
X2393Y1103D02*
X2400Y1103D01*
X0Y1102D02*
X7Y1102D01*
X2393Y1102D02*
X2400Y1102D01*
X0Y1101D02*
X7Y1101D01*
X2393Y1101D02*
X2400Y1101D01*
X0Y1100D02*
X7Y1100D01*
X2393Y1100D02*
X2400Y1100D01*
X0Y1099D02*
X7Y1099D01*
X2393Y1099D02*
X2400Y1099D01*
X0Y1098D02*
X7Y1098D01*
X2393Y1098D02*
X2400Y1098D01*
X0Y1097D02*
X7Y1097D01*
X2393Y1097D02*
X2400Y1097D01*
X0Y1096D02*
X7Y1096D01*
X2393Y1096D02*
X2400Y1096D01*
X0Y1095D02*
X7Y1095D01*
X2393Y1095D02*
X2400Y1095D01*
X0Y1094D02*
X7Y1094D01*
X2393Y1094D02*
X2400Y1094D01*
X0Y1093D02*
X7Y1093D01*
X2393Y1093D02*
X2400Y1093D01*
X0Y1092D02*
X7Y1092D01*
X2393Y1092D02*
X2400Y1092D01*
X0Y1091D02*
X7Y1091D01*
X2393Y1091D02*
X2400Y1091D01*
X0Y1090D02*
X6Y1090D01*
X2393Y1090D02*
X2400Y1090D01*
X0Y1089D02*
X5Y1089D01*
X2393Y1089D02*
X2400Y1089D01*
X0Y1088D02*
X4Y1088D01*
X2393Y1088D02*
X2400Y1088D01*
X0Y1087D02*
X3Y1087D01*
X2393Y1087D02*
X2400Y1087D01*
X0Y1086D02*
X3Y1086D01*
X2393Y1086D02*
X2400Y1086D01*
X0Y1085D02*
X2Y1085D01*
X2393Y1085D02*
X2400Y1085D01*
X0Y1084D02*
X1Y1084D01*
X2393Y1084D02*
X2400Y1084D01*
X0Y1083D02*
X0Y1083D01*
X2393Y1083D02*
X2400Y1083D01*
X0Y1082D02*
X0Y1082D01*
X2393Y1082D02*
X2400Y1082D01*
X2393Y1081D02*
X2400Y1081D01*
X2393Y1080D02*
X2400Y1080D01*
X2393Y1079D02*
X2400Y1079D01*
X2393Y1078D02*
X2400Y1078D01*
X2393Y1077D02*
X2400Y1077D01*
X2393Y1076D02*
X2400Y1076D01*
X2393Y1075D02*
X2400Y1075D01*
X2393Y1074D02*
X2400Y1074D01*
X2393Y1073D02*
X2400Y1073D01*
X2393Y1072D02*
X2400Y1072D01*
X2393Y1071D02*
X2400Y1071D01*
X2393Y1070D02*
X2400Y1070D01*
X2393Y1069D02*
X2400Y1069D01*
X2393Y1068D02*
X2400Y1068D01*
X2393Y1067D02*
X2400Y1067D01*
X2393Y1066D02*
X2400Y1066D01*
X2393Y1065D02*
X2400Y1065D01*
X2393Y1064D02*
X2400Y1064D01*
X2393Y1063D02*
X2400Y1063D01*
X2393Y1062D02*
X2400Y1062D01*
X2393Y1061D02*
X2400Y1061D01*
X2393Y1060D02*
X2400Y1060D01*
X2393Y1059D02*
X2400Y1059D01*
X2393Y1058D02*
X2400Y1058D01*
X2393Y1057D02*
X2400Y1057D01*
X2393Y1056D02*
X2400Y1056D01*
X2393Y1055D02*
X2400Y1055D01*
X2393Y1054D02*
X2400Y1054D01*
X2393Y1053D02*
X2400Y1053D01*
X2393Y1052D02*
X2400Y1052D01*
X2393Y1051D02*
X2400Y1051D01*
X2393Y1050D02*
X2400Y1050D01*
X2393Y1049D02*
X2400Y1049D01*
X2393Y1048D02*
X2400Y1048D01*
X2393Y1047D02*
X2400Y1047D01*
X2393Y1046D02*
X2400Y1046D01*
X2393Y1045D02*
X2400Y1045D01*
X2393Y1044D02*
X2400Y1044D01*
X2393Y1043D02*
X2400Y1043D01*
X2393Y1042D02*
X2400Y1042D01*
X2393Y1041D02*
X2400Y1041D01*
X2393Y1040D02*
X2400Y1040D01*
X0Y1039D02*
X0Y1039D01*
X2393Y1039D02*
X2400Y1039D01*
X0Y1038D02*
X0Y1038D01*
X2393Y1038D02*
X2400Y1038D01*
X0Y1037D02*
X1Y1037D01*
X2393Y1037D02*
X2400Y1037D01*
X0Y1036D02*
X2Y1036D01*
X2393Y1036D02*
X2400Y1036D01*
X0Y1035D02*
X2Y1035D01*
X2393Y1035D02*
X2400Y1035D01*
X0Y1034D02*
X3Y1034D01*
X2393Y1034D02*
X2400Y1034D01*
X0Y1033D02*
X4Y1033D01*
X2393Y1033D02*
X2400Y1033D01*
X0Y1032D02*
X5Y1032D01*
X2393Y1032D02*
X2400Y1032D01*
X0Y1031D02*
X6Y1031D01*
X2393Y1031D02*
X2400Y1031D01*
X0Y1030D02*
X7Y1030D01*
X2393Y1030D02*
X2400Y1030D01*
X0Y1029D02*
X7Y1029D01*
X2393Y1029D02*
X2400Y1029D01*
X0Y1028D02*
X7Y1028D01*
X2393Y1028D02*
X2400Y1028D01*
X0Y1027D02*
X7Y1027D01*
X2393Y1027D02*
X2400Y1027D01*
X0Y1026D02*
X7Y1026D01*
X2393Y1026D02*
X2400Y1026D01*
X0Y1025D02*
X7Y1025D01*
X2393Y1025D02*
X2400Y1025D01*
X0Y1024D02*
X7Y1024D01*
X2393Y1024D02*
X2400Y1024D01*
X0Y1023D02*
X7Y1023D01*
X2393Y1023D02*
X2400Y1023D01*
X0Y1022D02*
X7Y1022D01*
X2393Y1022D02*
X2400Y1022D01*
X0Y1021D02*
X7Y1021D01*
X2393Y1021D02*
X2400Y1021D01*
X0Y1020D02*
X7Y1020D01*
X2393Y1020D02*
X2400Y1020D01*
X0Y1019D02*
X7Y1019D01*
X2393Y1019D02*
X2400Y1019D01*
X0Y1018D02*
X7Y1018D01*
X2393Y1018D02*
X2400Y1018D01*
X0Y1017D02*
X7Y1017D01*
X2393Y1017D02*
X2400Y1017D01*
X0Y1016D02*
X7Y1016D01*
X2393Y1016D02*
X2400Y1016D01*
X0Y1015D02*
X7Y1015D01*
X2393Y1015D02*
X2400Y1015D01*
X0Y1014D02*
X7Y1014D01*
X2393Y1014D02*
X2400Y1014D01*
X0Y1013D02*
X7Y1013D01*
X2393Y1013D02*
X2400Y1013D01*
X0Y1012D02*
X7Y1012D01*
X2393Y1012D02*
X2400Y1012D01*
X0Y1011D02*
X7Y1011D01*
X2393Y1011D02*
X2400Y1011D01*
X0Y1010D02*
X7Y1010D01*
X2393Y1010D02*
X2400Y1010D01*
X0Y1009D02*
X7Y1009D01*
X2393Y1009D02*
X2400Y1009D01*
X0Y1008D02*
X7Y1008D01*
X2393Y1008D02*
X2400Y1008D01*
X0Y1007D02*
X7Y1007D01*
X2393Y1007D02*
X2400Y1007D01*
X0Y1006D02*
X7Y1006D01*
X2393Y1006D02*
X2400Y1006D01*
X0Y1005D02*
X7Y1005D01*
X2393Y1005D02*
X2400Y1005D01*
X0Y1004D02*
X7Y1004D01*
X2393Y1004D02*
X2400Y1004D01*
X0Y1003D02*
X7Y1003D01*
X2393Y1003D02*
X2400Y1003D01*
X0Y1002D02*
X7Y1002D01*
X2393Y1002D02*
X2400Y1002D01*
X0Y1001D02*
X7Y1001D01*
X2393Y1001D02*
X2400Y1001D01*
X0Y1000D02*
X7Y1000D01*
X2393Y1000D02*
X2400Y1000D01*
X0Y999D02*
X7Y999D01*
X2393Y999D02*
X2400Y999D01*
X0Y998D02*
X7Y998D01*
X2393Y998D02*
X2400Y998D01*
X0Y997D02*
X7Y997D01*
X2393Y997D02*
X2400Y997D01*
X0Y996D02*
X7Y996D01*
X2393Y996D02*
X2400Y996D01*
X0Y995D02*
X7Y995D01*
X2393Y995D02*
X2400Y995D01*
X0Y994D02*
X7Y994D01*
X2393Y994D02*
X2400Y994D01*
X0Y993D02*
X7Y993D01*
X2393Y993D02*
X2400Y993D01*
X0Y992D02*
X7Y992D01*
X2393Y992D02*
X2400Y992D01*
X0Y991D02*
X7Y991D01*
X2393Y991D02*
X2400Y991D01*
X0Y990D02*
X7Y990D01*
X2393Y990D02*
X2400Y990D01*
X0Y989D02*
X7Y989D01*
X2393Y989D02*
X2400Y989D01*
X0Y988D02*
X7Y988D01*
X2393Y988D02*
X2400Y988D01*
X0Y987D02*
X7Y987D01*
X2393Y987D02*
X2400Y987D01*
X0Y986D02*
X7Y986D01*
X2393Y986D02*
X2400Y986D01*
X0Y985D02*
X7Y985D01*
X2393Y985D02*
X2400Y985D01*
X0Y984D02*
X7Y984D01*
X2393Y984D02*
X2400Y984D01*
X0Y983D02*
X7Y983D01*
X2393Y983D02*
X2400Y983D01*
X0Y982D02*
X7Y982D01*
X2393Y982D02*
X2400Y982D01*
X0Y981D02*
X7Y981D01*
X2393Y981D02*
X2400Y981D01*
X0Y980D02*
X7Y980D01*
X2393Y980D02*
X2400Y980D01*
X0Y979D02*
X7Y979D01*
X2393Y979D02*
X2400Y979D01*
X0Y978D02*
X7Y978D01*
X2393Y978D02*
X2400Y978D01*
X0Y977D02*
X7Y977D01*
X2393Y977D02*
X2400Y977D01*
X0Y976D02*
X7Y976D01*
X2393Y976D02*
X2400Y976D01*
X0Y975D02*
X7Y975D01*
X2393Y975D02*
X2400Y975D01*
X0Y974D02*
X7Y974D01*
X2393Y974D02*
X2400Y974D01*
X0Y973D02*
X7Y973D01*
X2393Y973D02*
X2400Y973D01*
X0Y972D02*
X7Y972D01*
X2393Y972D02*
X2400Y972D01*
X0Y971D02*
X7Y971D01*
X2393Y971D02*
X2400Y971D01*
X0Y970D02*
X7Y970D01*
X2393Y970D02*
X2400Y970D01*
X0Y969D02*
X7Y969D01*
X2393Y969D02*
X2400Y969D01*
X0Y968D02*
X7Y968D01*
X2393Y968D02*
X2400Y968D01*
X0Y967D02*
X7Y967D01*
X2393Y967D02*
X2400Y967D01*
X0Y966D02*
X7Y966D01*
X2393Y966D02*
X2400Y966D01*
X0Y965D02*
X7Y965D01*
X2393Y965D02*
X2400Y965D01*
X0Y964D02*
X7Y964D01*
X2393Y964D02*
X2400Y964D01*
X0Y963D02*
X7Y963D01*
X2393Y963D02*
X2400Y963D01*
X0Y962D02*
X7Y962D01*
X2393Y962D02*
X2400Y962D01*
X0Y961D02*
X7Y961D01*
X2393Y961D02*
X2400Y961D01*
X0Y960D02*
X7Y960D01*
X2393Y960D02*
X2400Y960D01*
X0Y959D02*
X7Y959D01*
X2393Y959D02*
X2400Y959D01*
X0Y958D02*
X7Y958D01*
X2393Y958D02*
X2400Y958D01*
X0Y957D02*
X7Y957D01*
X2393Y957D02*
X2400Y957D01*
X0Y956D02*
X7Y956D01*
X2393Y956D02*
X2400Y956D01*
X0Y955D02*
X7Y955D01*
X2393Y955D02*
X2400Y955D01*
X0Y954D02*
X7Y954D01*
X2393Y954D02*
X2400Y954D01*
X0Y953D02*
X7Y953D01*
X2393Y953D02*
X2400Y953D01*
X0Y952D02*
X7Y952D01*
X2393Y952D02*
X2400Y952D01*
X0Y951D02*
X7Y951D01*
X2393Y951D02*
X2400Y951D01*
X0Y950D02*
X7Y950D01*
X2393Y950D02*
X2400Y950D01*
X0Y949D02*
X7Y949D01*
X2393Y949D02*
X2400Y949D01*
X0Y948D02*
X7Y948D01*
X2393Y948D02*
X2400Y948D01*
X0Y947D02*
X7Y947D01*
X2393Y947D02*
X2400Y947D01*
X0Y946D02*
X7Y946D01*
X2393Y946D02*
X2400Y946D01*
X0Y945D02*
X7Y945D01*
X2393Y945D02*
X2400Y945D01*
X0Y944D02*
X7Y944D01*
X2393Y944D02*
X2400Y944D01*
X0Y943D02*
X7Y943D01*
X2393Y943D02*
X2400Y943D01*
X0Y942D02*
X7Y942D01*
X2393Y942D02*
X2400Y942D01*
X0Y941D02*
X7Y941D01*
X2393Y941D02*
X2400Y941D01*
X0Y940D02*
X7Y940D01*
X2393Y940D02*
X2400Y940D01*
X0Y939D02*
X7Y939D01*
X2393Y939D02*
X2400Y939D01*
X0Y938D02*
X7Y938D01*
X2393Y938D02*
X2400Y938D01*
X0Y937D02*
X7Y937D01*
X2393Y937D02*
X2400Y937D01*
X0Y936D02*
X7Y936D01*
X2393Y936D02*
X2400Y936D01*
X0Y935D02*
X7Y935D01*
X2393Y935D02*
X2400Y935D01*
X0Y934D02*
X7Y934D01*
X2393Y934D02*
X2400Y934D01*
X0Y933D02*
X7Y933D01*
X2393Y933D02*
X2400Y933D01*
X0Y932D02*
X7Y932D01*
X2393Y932D02*
X2400Y932D01*
X0Y931D02*
X7Y931D01*
X2393Y931D02*
X2400Y931D01*
X0Y930D02*
X7Y930D01*
X2393Y930D02*
X2400Y930D01*
X0Y929D02*
X7Y929D01*
X2393Y929D02*
X2400Y929D01*
X0Y928D02*
X7Y928D01*
X2393Y928D02*
X2400Y928D01*
X0Y927D02*
X7Y927D01*
X2393Y927D02*
X2400Y927D01*
X0Y926D02*
X7Y926D01*
X2393Y926D02*
X2400Y926D01*
X0Y925D02*
X7Y925D01*
X2393Y925D02*
X2400Y925D01*
X0Y924D02*
X7Y924D01*
X2393Y924D02*
X2400Y924D01*
X0Y923D02*
X7Y923D01*
X2393Y923D02*
X2400Y923D01*
X0Y922D02*
X7Y922D01*
X2393Y922D02*
X2400Y922D01*
X0Y921D02*
X7Y921D01*
X2393Y921D02*
X2400Y921D01*
X0Y920D02*
X7Y920D01*
X2393Y920D02*
X2400Y920D01*
X0Y919D02*
X7Y919D01*
X2393Y919D02*
X2400Y919D01*
X0Y918D02*
X7Y918D01*
X2393Y918D02*
X2400Y918D01*
X0Y917D02*
X7Y917D01*
X2393Y917D02*
X2400Y917D01*
X0Y916D02*
X7Y916D01*
X2393Y916D02*
X2400Y916D01*
X0Y915D02*
X7Y915D01*
X2393Y915D02*
X2400Y915D01*
X0Y914D02*
X7Y914D01*
X2393Y914D02*
X2400Y914D01*
X0Y913D02*
X7Y913D01*
X2393Y913D02*
X2400Y913D01*
X0Y912D02*
X7Y912D01*
X2393Y912D02*
X2400Y912D01*
X0Y911D02*
X7Y911D01*
X2393Y911D02*
X2400Y911D01*
X0Y910D02*
X7Y910D01*
X2393Y910D02*
X2400Y910D01*
X0Y909D02*
X7Y909D01*
X2393Y909D02*
X2400Y909D01*
X0Y908D02*
X7Y908D01*
X2393Y908D02*
X2400Y908D01*
X0Y907D02*
X7Y907D01*
X2393Y907D02*
X2400Y907D01*
X0Y906D02*
X7Y906D01*
X2393Y906D02*
X2400Y906D01*
X0Y905D02*
X7Y905D01*
X2393Y905D02*
X2400Y905D01*
X0Y904D02*
X7Y904D01*
X2393Y904D02*
X2400Y904D01*
X0Y903D02*
X7Y903D01*
X2393Y903D02*
X2400Y903D01*
X0Y902D02*
X7Y902D01*
X2393Y902D02*
X2400Y902D01*
X0Y901D02*
X7Y901D01*
X2393Y901D02*
X2400Y901D01*
X0Y900D02*
X7Y900D01*
X2393Y900D02*
X2400Y900D01*
X0Y899D02*
X7Y899D01*
X2393Y899D02*
X2400Y899D01*
X0Y898D02*
X7Y898D01*
X2393Y898D02*
X2400Y898D01*
X0Y897D02*
X7Y897D01*
X2393Y897D02*
X2400Y897D01*
X0Y896D02*
X7Y896D01*
X2393Y896D02*
X2400Y896D01*
X0Y895D02*
X7Y895D01*
X2393Y895D02*
X2400Y895D01*
X0Y894D02*
X7Y894D01*
X2393Y894D02*
X2400Y894D01*
X0Y893D02*
X7Y893D01*
X2393Y893D02*
X2400Y893D01*
X0Y892D02*
X7Y892D01*
X2393Y892D02*
X2400Y892D01*
X0Y891D02*
X7Y891D01*
X2393Y891D02*
X2400Y891D01*
X0Y890D02*
X7Y890D01*
X2393Y890D02*
X2400Y890D01*
X0Y889D02*
X7Y889D01*
X2393Y889D02*
X2400Y889D01*
X0Y888D02*
X7Y888D01*
X2393Y888D02*
X2400Y888D01*
X0Y887D02*
X7Y887D01*
X2393Y887D02*
X2400Y887D01*
X0Y886D02*
X7Y886D01*
X2393Y886D02*
X2400Y886D01*
X0Y885D02*
X7Y885D01*
X2393Y885D02*
X2400Y885D01*
X0Y884D02*
X7Y884D01*
X2393Y884D02*
X2400Y884D01*
X0Y883D02*
X7Y883D01*
X2393Y883D02*
X2400Y883D01*
X0Y882D02*
X7Y882D01*
X2393Y882D02*
X2400Y882D01*
X0Y881D02*
X7Y881D01*
X2393Y881D02*
X2400Y881D01*
X0Y880D02*
X7Y880D01*
X2393Y880D02*
X2400Y880D01*
X0Y879D02*
X7Y879D01*
X2393Y879D02*
X2400Y879D01*
X0Y878D02*
X7Y878D01*
X2393Y878D02*
X2400Y878D01*
X0Y877D02*
X7Y877D01*
X2393Y877D02*
X2400Y877D01*
X0Y876D02*
X7Y876D01*
X2393Y876D02*
X2400Y876D01*
X0Y875D02*
X7Y875D01*
X2393Y875D02*
X2400Y875D01*
X0Y874D02*
X7Y874D01*
X2393Y874D02*
X2400Y874D01*
X0Y873D02*
X7Y873D01*
X2393Y873D02*
X2400Y873D01*
X0Y872D02*
X7Y872D01*
X2393Y872D02*
X2400Y872D01*
X0Y871D02*
X7Y871D01*
X2393Y871D02*
X2400Y871D01*
X0Y870D02*
X7Y870D01*
X2393Y870D02*
X2400Y870D01*
X0Y869D02*
X7Y869D01*
X2393Y869D02*
X2400Y869D01*
X0Y868D02*
X7Y868D01*
X2393Y868D02*
X2400Y868D01*
X0Y867D02*
X7Y867D01*
X2393Y867D02*
X2400Y867D01*
X0Y866D02*
X7Y866D01*
X2393Y866D02*
X2400Y866D01*
X0Y865D02*
X7Y865D01*
X2393Y865D02*
X2400Y865D01*
X0Y864D02*
X7Y864D01*
X2393Y864D02*
X2400Y864D01*
X0Y863D02*
X7Y863D01*
X2393Y863D02*
X2400Y863D01*
X0Y862D02*
X7Y862D01*
X2393Y862D02*
X2400Y862D01*
X0Y861D02*
X7Y861D01*
X2393Y861D02*
X2400Y861D01*
X0Y860D02*
X7Y860D01*
X2393Y860D02*
X2400Y860D01*
X0Y859D02*
X7Y859D01*
X2393Y859D02*
X2400Y859D01*
X0Y858D02*
X7Y858D01*
X2393Y858D02*
X2400Y858D01*
X0Y857D02*
X7Y857D01*
X2393Y857D02*
X2400Y857D01*
X0Y856D02*
X7Y856D01*
X2393Y856D02*
X2400Y856D01*
X0Y855D02*
X7Y855D01*
X2393Y855D02*
X2400Y855D01*
X0Y854D02*
X7Y854D01*
X2393Y854D02*
X2400Y854D01*
X0Y853D02*
X7Y853D01*
X2393Y853D02*
X2400Y853D01*
X0Y852D02*
X7Y852D01*
X2393Y852D02*
X2400Y852D01*
X0Y851D02*
X7Y851D01*
X2393Y851D02*
X2400Y851D01*
X0Y850D02*
X7Y850D01*
X2393Y850D02*
X2400Y850D01*
X0Y849D02*
X7Y849D01*
X2393Y849D02*
X2400Y849D01*
X0Y848D02*
X7Y848D01*
X2393Y848D02*
X2400Y848D01*
X0Y847D02*
X7Y847D01*
X2393Y847D02*
X2400Y847D01*
X0Y846D02*
X7Y846D01*
X2393Y846D02*
X2400Y846D01*
X0Y845D02*
X7Y845D01*
X2393Y845D02*
X2400Y845D01*
X0Y844D02*
X7Y844D01*
X2393Y844D02*
X2400Y844D01*
X0Y843D02*
X7Y843D01*
X2393Y843D02*
X2400Y843D01*
X0Y842D02*
X7Y842D01*
X2393Y842D02*
X2400Y842D01*
X0Y841D02*
X7Y841D01*
X2393Y841D02*
X2400Y841D01*
X0Y840D02*
X7Y840D01*
X2393Y840D02*
X2400Y840D01*
X0Y839D02*
X7Y839D01*
X2393Y839D02*
X2400Y839D01*
X0Y838D02*
X7Y838D01*
X2393Y838D02*
X2400Y838D01*
X0Y837D02*
X7Y837D01*
X2393Y837D02*
X2400Y837D01*
X0Y836D02*
X7Y836D01*
X2393Y836D02*
X2400Y836D01*
X0Y835D02*
X7Y835D01*
X2393Y835D02*
X2400Y835D01*
X0Y834D02*
X7Y834D01*
X2393Y834D02*
X2400Y834D01*
X0Y833D02*
X7Y833D01*
X2393Y833D02*
X2400Y833D01*
X0Y832D02*
X7Y832D01*
X2393Y832D02*
X2400Y832D01*
X0Y831D02*
X7Y831D01*
X2393Y831D02*
X2400Y831D01*
X0Y830D02*
X7Y830D01*
X2393Y830D02*
X2400Y830D01*
X0Y829D02*
X7Y829D01*
X2393Y829D02*
X2400Y829D01*
X0Y828D02*
X7Y828D01*
X2393Y828D02*
X2400Y828D01*
X0Y827D02*
X7Y827D01*
X2393Y827D02*
X2400Y827D01*
X0Y826D02*
X7Y826D01*
X2393Y826D02*
X2400Y826D01*
X0Y825D02*
X7Y825D01*
X2393Y825D02*
X2400Y825D01*
X0Y824D02*
X7Y824D01*
X2393Y824D02*
X2400Y824D01*
X0Y823D02*
X7Y823D01*
X2393Y823D02*
X2400Y823D01*
X0Y822D02*
X7Y822D01*
X2393Y822D02*
X2400Y822D01*
X0Y821D02*
X7Y821D01*
X2393Y821D02*
X2400Y821D01*
X0Y820D02*
X7Y820D01*
X2393Y820D02*
X2400Y820D01*
X0Y819D02*
X7Y819D01*
X2393Y819D02*
X2400Y819D01*
X0Y818D02*
X7Y818D01*
X2393Y818D02*
X2400Y818D01*
X0Y817D02*
X7Y817D01*
X2393Y817D02*
X2400Y817D01*
X0Y816D02*
X7Y816D01*
X2393Y816D02*
X2400Y816D01*
X0Y815D02*
X7Y815D01*
X2393Y815D02*
X2400Y815D01*
X0Y814D02*
X7Y814D01*
X2393Y814D02*
X2400Y814D01*
X0Y813D02*
X7Y813D01*
X2393Y813D02*
X2400Y813D01*
X0Y812D02*
X7Y812D01*
X2393Y812D02*
X2400Y812D01*
X0Y811D02*
X7Y811D01*
X2393Y811D02*
X2400Y811D01*
X0Y810D02*
X7Y810D01*
X2393Y810D02*
X2400Y810D01*
X0Y809D02*
X7Y809D01*
X2393Y809D02*
X2400Y809D01*
X0Y808D02*
X7Y808D01*
X2393Y808D02*
X2400Y808D01*
X0Y807D02*
X7Y807D01*
X2393Y807D02*
X2400Y807D01*
X0Y806D02*
X7Y806D01*
X2393Y806D02*
X2400Y806D01*
X0Y805D02*
X7Y805D01*
X2393Y805D02*
X2400Y805D01*
X0Y804D02*
X7Y804D01*
X2393Y804D02*
X2400Y804D01*
X0Y803D02*
X7Y803D01*
X2393Y803D02*
X2400Y803D01*
X0Y802D02*
X7Y802D01*
X2393Y802D02*
X2400Y802D01*
X0Y801D02*
X7Y801D01*
X2393Y801D02*
X2400Y801D01*
X0Y800D02*
X7Y800D01*
X2393Y800D02*
X2400Y800D01*
X0Y799D02*
X7Y799D01*
X2393Y799D02*
X2400Y799D01*
X0Y798D02*
X7Y798D01*
X2393Y798D02*
X2400Y798D01*
X0Y797D02*
X7Y797D01*
X2393Y797D02*
X2400Y797D01*
X0Y796D02*
X7Y796D01*
X2393Y796D02*
X2400Y796D01*
X0Y795D02*
X7Y795D01*
X2393Y795D02*
X2400Y795D01*
X0Y794D02*
X7Y794D01*
X2393Y794D02*
X2400Y794D01*
X0Y793D02*
X7Y793D01*
X2393Y793D02*
X2400Y793D01*
X0Y792D02*
X7Y792D01*
X2393Y792D02*
X2400Y792D01*
X0Y791D02*
X7Y791D01*
X2393Y791D02*
X2400Y791D01*
X0Y790D02*
X7Y790D01*
X2393Y790D02*
X2400Y790D01*
X0Y789D02*
X7Y789D01*
X2393Y789D02*
X2400Y789D01*
X0Y788D02*
X7Y788D01*
X2393Y788D02*
X2400Y788D01*
X0Y787D02*
X7Y787D01*
X2393Y787D02*
X2400Y787D01*
X0Y786D02*
X7Y786D01*
X2393Y786D02*
X2400Y786D01*
X0Y785D02*
X7Y785D01*
X2393Y785D02*
X2400Y785D01*
X0Y784D02*
X7Y784D01*
X2393Y784D02*
X2400Y784D01*
X0Y783D02*
X7Y783D01*
X2393Y783D02*
X2400Y783D01*
X0Y782D02*
X7Y782D01*
X2393Y782D02*
X2400Y782D01*
X0Y781D02*
X7Y781D01*
X2393Y781D02*
X2400Y781D01*
X0Y780D02*
X7Y780D01*
X2393Y780D02*
X2400Y780D01*
X0Y779D02*
X7Y779D01*
X2393Y779D02*
X2400Y779D01*
X0Y778D02*
X7Y778D01*
X2393Y778D02*
X2400Y778D01*
X0Y777D02*
X7Y777D01*
X2393Y777D02*
X2400Y777D01*
X0Y776D02*
X7Y776D01*
X2393Y776D02*
X2400Y776D01*
X0Y775D02*
X7Y775D01*
X2393Y775D02*
X2400Y775D01*
X0Y774D02*
X7Y774D01*
X2393Y774D02*
X2400Y774D01*
X0Y773D02*
X7Y773D01*
X2393Y773D02*
X2400Y773D01*
X0Y772D02*
X7Y772D01*
X2393Y772D02*
X2400Y772D01*
X0Y771D02*
X7Y771D01*
X2393Y771D02*
X2400Y771D01*
X0Y770D02*
X7Y770D01*
X2393Y770D02*
X2400Y770D01*
X0Y769D02*
X7Y769D01*
X2393Y769D02*
X2400Y769D01*
X0Y768D02*
X7Y768D01*
X2393Y768D02*
X2400Y768D01*
X0Y767D02*
X7Y767D01*
X2393Y767D02*
X2400Y767D01*
X0Y766D02*
X7Y766D01*
X2393Y766D02*
X2400Y766D01*
X0Y765D02*
X7Y765D01*
X2393Y765D02*
X2400Y765D01*
X0Y764D02*
X7Y764D01*
X2393Y764D02*
X2400Y764D01*
X0Y763D02*
X7Y763D01*
X2393Y763D02*
X2400Y763D01*
X0Y762D02*
X7Y762D01*
X2393Y762D02*
X2400Y762D01*
X0Y761D02*
X7Y761D01*
X2393Y761D02*
X2400Y761D01*
X0Y760D02*
X7Y760D01*
X2393Y760D02*
X2400Y760D01*
X0Y759D02*
X7Y759D01*
X2393Y759D02*
X2400Y759D01*
X0Y758D02*
X7Y758D01*
X2393Y758D02*
X2400Y758D01*
X0Y757D02*
X7Y757D01*
X2393Y757D02*
X2400Y757D01*
X0Y756D02*
X7Y756D01*
X2393Y756D02*
X2400Y756D01*
X0Y755D02*
X7Y755D01*
X2393Y755D02*
X2400Y755D01*
X0Y754D02*
X7Y754D01*
X2393Y754D02*
X2400Y754D01*
X0Y753D02*
X7Y753D01*
X2393Y753D02*
X2400Y753D01*
X0Y752D02*
X7Y752D01*
X2393Y752D02*
X2400Y752D01*
X0Y751D02*
X7Y751D01*
X2393Y751D02*
X2400Y751D01*
X0Y750D02*
X7Y750D01*
X2393Y750D02*
X2400Y750D01*
X0Y749D02*
X7Y749D01*
X2393Y749D02*
X2400Y749D01*
X0Y748D02*
X7Y748D01*
X2393Y748D02*
X2400Y748D01*
X0Y747D02*
X7Y747D01*
X2393Y747D02*
X2400Y747D01*
X0Y746D02*
X7Y746D01*
X2393Y746D02*
X2400Y746D01*
X0Y745D02*
X7Y745D01*
X2393Y745D02*
X2400Y745D01*
X0Y744D02*
X7Y744D01*
X2393Y744D02*
X2400Y744D01*
X0Y743D02*
X7Y743D01*
X2393Y743D02*
X2400Y743D01*
X0Y742D02*
X7Y742D01*
X2393Y742D02*
X2400Y742D01*
X0Y741D02*
X7Y741D01*
X2393Y741D02*
X2400Y741D01*
X0Y740D02*
X7Y740D01*
X2393Y740D02*
X2400Y740D01*
X0Y739D02*
X7Y739D01*
X2393Y739D02*
X2400Y739D01*
X0Y738D02*
X7Y738D01*
X2393Y738D02*
X2400Y738D01*
X0Y737D02*
X7Y737D01*
X2393Y737D02*
X2400Y737D01*
X0Y736D02*
X7Y736D01*
X2393Y736D02*
X2400Y736D01*
X0Y735D02*
X7Y735D01*
X2393Y735D02*
X2400Y735D01*
X0Y734D02*
X7Y734D01*
X2393Y734D02*
X2400Y734D01*
X0Y733D02*
X7Y733D01*
X2393Y733D02*
X2400Y733D01*
X0Y732D02*
X7Y732D01*
X2393Y732D02*
X2400Y732D01*
X0Y731D02*
X7Y731D01*
X2393Y731D02*
X2400Y731D01*
X0Y730D02*
X7Y730D01*
X2393Y730D02*
X2400Y730D01*
X0Y729D02*
X7Y729D01*
X2393Y729D02*
X2400Y729D01*
X0Y728D02*
X7Y728D01*
X2393Y728D02*
X2400Y728D01*
X0Y727D02*
X7Y727D01*
X2393Y727D02*
X2400Y727D01*
X0Y726D02*
X7Y726D01*
X2393Y726D02*
X2400Y726D01*
X0Y725D02*
X7Y725D01*
X2393Y725D02*
X2400Y725D01*
X0Y724D02*
X7Y724D01*
X2393Y724D02*
X2400Y724D01*
X0Y723D02*
X7Y723D01*
X2393Y723D02*
X2400Y723D01*
X0Y722D02*
X7Y722D01*
X2393Y722D02*
X2400Y722D01*
X0Y721D02*
X7Y721D01*
X2393Y721D02*
X2400Y721D01*
X0Y720D02*
X7Y720D01*
X2393Y720D02*
X2400Y720D01*
X0Y719D02*
X7Y719D01*
X2393Y719D02*
X2400Y719D01*
X0Y718D02*
X7Y718D01*
X2393Y718D02*
X2400Y718D01*
X0Y717D02*
X7Y717D01*
X2393Y717D02*
X2400Y717D01*
X0Y716D02*
X7Y716D01*
X2393Y716D02*
X2400Y716D01*
X0Y715D02*
X7Y715D01*
X2393Y715D02*
X2400Y715D01*
X0Y714D02*
X7Y714D01*
X2393Y714D02*
X2400Y714D01*
X0Y713D02*
X7Y713D01*
X2393Y713D02*
X2400Y713D01*
X0Y712D02*
X7Y712D01*
X2393Y712D02*
X2400Y712D01*
X0Y711D02*
X7Y711D01*
X2393Y711D02*
X2400Y711D01*
X0Y710D02*
X7Y710D01*
X2393Y710D02*
X2400Y710D01*
X0Y709D02*
X7Y709D01*
X2393Y709D02*
X2400Y709D01*
X0Y708D02*
X7Y708D01*
X2393Y708D02*
X2400Y708D01*
X0Y707D02*
X7Y707D01*
X2393Y707D02*
X2400Y707D01*
X0Y706D02*
X7Y706D01*
X2393Y706D02*
X2400Y706D01*
X0Y705D02*
X7Y705D01*
X2393Y705D02*
X2400Y705D01*
X0Y704D02*
X7Y704D01*
X2393Y704D02*
X2400Y704D01*
X0Y703D02*
X7Y703D01*
X2393Y703D02*
X2400Y703D01*
X0Y702D02*
X7Y702D01*
X2393Y702D02*
X2400Y702D01*
X0Y701D02*
X7Y701D01*
X2393Y701D02*
X2400Y701D01*
X0Y700D02*
X7Y700D01*
X2393Y700D02*
X2400Y700D01*
X0Y699D02*
X7Y699D01*
X2393Y699D02*
X2400Y699D01*
X0Y698D02*
X7Y698D01*
X2393Y698D02*
X2400Y698D01*
X0Y697D02*
X7Y697D01*
X2393Y697D02*
X2400Y697D01*
X0Y696D02*
X7Y696D01*
X2393Y696D02*
X2400Y696D01*
X0Y695D02*
X7Y695D01*
X2393Y695D02*
X2400Y695D01*
X0Y694D02*
X7Y694D01*
X2393Y694D02*
X2400Y694D01*
X0Y693D02*
X7Y693D01*
X2393Y693D02*
X2400Y693D01*
X0Y692D02*
X7Y692D01*
X2393Y692D02*
X2400Y692D01*
X0Y691D02*
X7Y691D01*
X2393Y691D02*
X2400Y691D01*
X0Y690D02*
X7Y690D01*
X2393Y690D02*
X2400Y690D01*
X0Y689D02*
X7Y689D01*
X2393Y689D02*
X2400Y689D01*
X0Y688D02*
X7Y688D01*
X2393Y688D02*
X2400Y688D01*
X0Y687D02*
X7Y687D01*
X2393Y687D02*
X2400Y687D01*
X0Y686D02*
X7Y686D01*
X2393Y686D02*
X2400Y686D01*
X0Y685D02*
X7Y685D01*
X2393Y685D02*
X2400Y685D01*
X0Y684D02*
X7Y684D01*
X2393Y684D02*
X2400Y684D01*
X0Y683D02*
X7Y683D01*
X2393Y683D02*
X2400Y683D01*
X0Y682D02*
X7Y682D01*
X2393Y682D02*
X2400Y682D01*
X0Y681D02*
X7Y681D01*
X2393Y681D02*
X2400Y681D01*
X0Y680D02*
X7Y680D01*
X2393Y680D02*
X2400Y680D01*
X0Y679D02*
X7Y679D01*
X2393Y679D02*
X2400Y679D01*
X0Y678D02*
X7Y678D01*
X2393Y678D02*
X2400Y678D01*
X0Y677D02*
X7Y677D01*
X2393Y677D02*
X2400Y677D01*
X0Y676D02*
X7Y676D01*
X2393Y676D02*
X2400Y676D01*
X0Y675D02*
X7Y675D01*
X2393Y675D02*
X2400Y675D01*
X0Y674D02*
X7Y674D01*
X2393Y674D02*
X2400Y674D01*
X0Y673D02*
X7Y673D01*
X2393Y673D02*
X2400Y673D01*
X0Y672D02*
X7Y672D01*
X2393Y672D02*
X2400Y672D01*
X0Y671D02*
X7Y671D01*
X2393Y671D02*
X2400Y671D01*
X0Y670D02*
X7Y670D01*
X2393Y670D02*
X2400Y670D01*
X0Y669D02*
X7Y669D01*
X2393Y669D02*
X2400Y669D01*
X0Y668D02*
X7Y668D01*
X2393Y668D02*
X2400Y668D01*
X0Y667D02*
X7Y667D01*
X2393Y667D02*
X2400Y667D01*
X0Y666D02*
X7Y666D01*
X2393Y666D02*
X2400Y666D01*
X0Y665D02*
X7Y665D01*
X2393Y665D02*
X2400Y665D01*
X0Y664D02*
X7Y664D01*
X2393Y664D02*
X2400Y664D01*
X0Y663D02*
X7Y663D01*
X2393Y663D02*
X2400Y663D01*
X0Y662D02*
X7Y662D01*
X2393Y662D02*
X2400Y662D01*
X0Y661D02*
X7Y661D01*
X2393Y661D02*
X2400Y661D01*
X0Y660D02*
X7Y660D01*
X2393Y660D02*
X2400Y660D01*
X0Y659D02*
X7Y659D01*
X2393Y659D02*
X2400Y659D01*
X0Y658D02*
X7Y658D01*
X2393Y658D02*
X2400Y658D01*
X0Y657D02*
X7Y657D01*
X2393Y657D02*
X2400Y657D01*
X0Y656D02*
X7Y656D01*
X2393Y656D02*
X2400Y656D01*
X0Y655D02*
X7Y655D01*
X2393Y655D02*
X2400Y655D01*
X0Y654D02*
X7Y654D01*
X2393Y654D02*
X2400Y654D01*
X0Y653D02*
X7Y653D01*
X2393Y653D02*
X2400Y653D01*
X0Y652D02*
X7Y652D01*
X2393Y652D02*
X2400Y652D01*
X0Y651D02*
X7Y651D01*
X2393Y651D02*
X2400Y651D01*
X0Y650D02*
X7Y650D01*
X2393Y650D02*
X2400Y650D01*
X0Y649D02*
X7Y649D01*
X2393Y649D02*
X2400Y649D01*
X0Y648D02*
X7Y648D01*
X2393Y648D02*
X2400Y648D01*
X0Y647D02*
X7Y647D01*
X2393Y647D02*
X2400Y647D01*
X0Y646D02*
X7Y646D01*
X2393Y646D02*
X2400Y646D01*
X0Y645D02*
X7Y645D01*
X2393Y645D02*
X2400Y645D01*
X0Y644D02*
X7Y644D01*
X2393Y644D02*
X2400Y644D01*
X0Y643D02*
X7Y643D01*
X2393Y643D02*
X2400Y643D01*
X0Y642D02*
X7Y642D01*
X2393Y642D02*
X2400Y642D01*
X0Y641D02*
X7Y641D01*
X2393Y641D02*
X2400Y641D01*
X0Y640D02*
X7Y640D01*
X2393Y640D02*
X2400Y640D01*
X0Y639D02*
X7Y639D01*
X2393Y639D02*
X2400Y639D01*
X0Y638D02*
X7Y638D01*
X2393Y638D02*
X2400Y638D01*
X0Y637D02*
X7Y637D01*
X2393Y637D02*
X2400Y637D01*
X0Y636D02*
X7Y636D01*
X2393Y636D02*
X2400Y636D01*
X0Y635D02*
X7Y635D01*
X2393Y635D02*
X2400Y635D01*
X0Y634D02*
X7Y634D01*
X2393Y634D02*
X2400Y634D01*
X0Y633D02*
X7Y633D01*
X2393Y633D02*
X2400Y633D01*
X0Y632D02*
X7Y632D01*
X2393Y632D02*
X2400Y632D01*
X0Y631D02*
X7Y631D01*
X2393Y631D02*
X2400Y631D01*
X0Y630D02*
X7Y630D01*
X2393Y630D02*
X2400Y630D01*
X0Y629D02*
X7Y629D01*
X2393Y629D02*
X2400Y629D01*
X0Y628D02*
X7Y628D01*
X2393Y628D02*
X2400Y628D01*
X0Y627D02*
X7Y627D01*
X2393Y627D02*
X2400Y627D01*
X0Y626D02*
X7Y626D01*
X2393Y626D02*
X2400Y626D01*
X0Y625D02*
X7Y625D01*
X2393Y625D02*
X2400Y625D01*
X0Y624D02*
X7Y624D01*
X2393Y624D02*
X2400Y624D01*
X0Y623D02*
X7Y623D01*
X2393Y623D02*
X2400Y623D01*
X0Y622D02*
X7Y622D01*
X2393Y622D02*
X2400Y622D01*
X0Y621D02*
X7Y621D01*
X2393Y621D02*
X2400Y621D01*
X0Y620D02*
X7Y620D01*
X2393Y620D02*
X2400Y620D01*
X0Y619D02*
X7Y619D01*
X2393Y619D02*
X2400Y619D01*
X0Y618D02*
X7Y618D01*
X2393Y618D02*
X2400Y618D01*
X0Y617D02*
X7Y617D01*
X2393Y617D02*
X2400Y617D01*
X0Y616D02*
X7Y616D01*
X2393Y616D02*
X2400Y616D01*
X0Y615D02*
X7Y615D01*
X2393Y615D02*
X2400Y615D01*
X0Y614D02*
X7Y614D01*
X2393Y614D02*
X2400Y614D01*
X0Y613D02*
X7Y613D01*
X2393Y613D02*
X2400Y613D01*
X0Y612D02*
X7Y612D01*
X2393Y612D02*
X2400Y612D01*
X0Y611D02*
X7Y611D01*
X2393Y611D02*
X2400Y611D01*
X0Y610D02*
X7Y610D01*
X2393Y610D02*
X2400Y610D01*
X0Y609D02*
X7Y609D01*
X2393Y609D02*
X2400Y609D01*
X0Y608D02*
X7Y608D01*
X2393Y608D02*
X2400Y608D01*
X0Y607D02*
X7Y607D01*
X2393Y607D02*
X2400Y607D01*
X0Y606D02*
X7Y606D01*
X2393Y606D02*
X2400Y606D01*
X0Y605D02*
X7Y605D01*
X2393Y605D02*
X2400Y605D01*
X0Y604D02*
X7Y604D01*
X2393Y604D02*
X2400Y604D01*
X0Y603D02*
X7Y603D01*
X2393Y603D02*
X2400Y603D01*
X0Y602D02*
X7Y602D01*
X2393Y602D02*
X2400Y602D01*
X0Y601D02*
X7Y601D01*
X2393Y601D02*
X2400Y601D01*
X0Y600D02*
X7Y600D01*
X2393Y600D02*
X2400Y600D01*
X0Y599D02*
X7Y599D01*
X2393Y599D02*
X2400Y599D01*
X0Y598D02*
X7Y598D01*
X2393Y598D02*
X2400Y598D01*
X0Y597D02*
X7Y597D01*
X2393Y597D02*
X2400Y597D01*
X0Y596D02*
X7Y596D01*
X2393Y596D02*
X2400Y596D01*
X0Y595D02*
X7Y595D01*
X2393Y595D02*
X2400Y595D01*
X0Y594D02*
X7Y594D01*
X2393Y594D02*
X2400Y594D01*
X0Y593D02*
X7Y593D01*
X2393Y593D02*
X2400Y593D01*
X0Y592D02*
X7Y592D01*
X2393Y592D02*
X2400Y592D01*
X0Y591D02*
X7Y591D01*
X2393Y591D02*
X2400Y591D01*
X0Y590D02*
X7Y590D01*
X2393Y590D02*
X2400Y590D01*
X0Y589D02*
X7Y589D01*
X2393Y589D02*
X2400Y589D01*
X0Y588D02*
X7Y588D01*
X2393Y588D02*
X2400Y588D01*
X0Y587D02*
X7Y587D01*
X2393Y587D02*
X2400Y587D01*
X0Y586D02*
X7Y586D01*
X2393Y586D02*
X2400Y586D01*
X0Y585D02*
X7Y585D01*
X2393Y585D02*
X2400Y585D01*
X0Y584D02*
X7Y584D01*
X2393Y584D02*
X2400Y584D01*
X0Y583D02*
X7Y583D01*
X2393Y583D02*
X2400Y583D01*
X0Y582D02*
X7Y582D01*
X2393Y582D02*
X2400Y582D01*
X0Y581D02*
X7Y581D01*
X2393Y581D02*
X2400Y581D01*
X0Y580D02*
X7Y580D01*
X2393Y580D02*
X2400Y580D01*
X0Y579D02*
X7Y579D01*
X2393Y579D02*
X2400Y579D01*
X0Y578D02*
X7Y578D01*
X2393Y578D02*
X2400Y578D01*
X0Y577D02*
X7Y577D01*
X2393Y577D02*
X2400Y577D01*
X0Y576D02*
X7Y576D01*
X2393Y576D02*
X2400Y576D01*
X0Y575D02*
X7Y575D01*
X2393Y575D02*
X2400Y575D01*
X0Y574D02*
X7Y574D01*
X2393Y574D02*
X2400Y574D01*
X0Y573D02*
X7Y573D01*
X2393Y573D02*
X2400Y573D01*
X0Y572D02*
X7Y572D01*
X2393Y572D02*
X2400Y572D01*
X0Y571D02*
X7Y571D01*
X2393Y571D02*
X2400Y571D01*
X0Y570D02*
X7Y570D01*
X2393Y570D02*
X2400Y570D01*
X0Y569D02*
X7Y569D01*
X2393Y569D02*
X2400Y569D01*
X0Y568D02*
X7Y568D01*
X2393Y568D02*
X2400Y568D01*
X0Y567D02*
X7Y567D01*
X2393Y567D02*
X2400Y567D01*
X0Y566D02*
X7Y566D01*
X2393Y566D02*
X2400Y566D01*
X0Y565D02*
X7Y565D01*
X2393Y565D02*
X2400Y565D01*
X0Y564D02*
X7Y564D01*
X2393Y564D02*
X2400Y564D01*
X0Y563D02*
X7Y563D01*
X2393Y563D02*
X2400Y563D01*
X0Y562D02*
X7Y562D01*
X2393Y562D02*
X2400Y562D01*
X0Y561D02*
X7Y561D01*
X2393Y561D02*
X2400Y561D01*
X0Y560D02*
X7Y560D01*
X2393Y560D02*
X2400Y560D01*
X0Y559D02*
X7Y559D01*
X2393Y559D02*
X2400Y559D01*
X0Y558D02*
X7Y558D01*
X2393Y558D02*
X2400Y558D01*
X0Y557D02*
X7Y557D01*
X2393Y557D02*
X2400Y557D01*
X0Y556D02*
X7Y556D01*
X2393Y556D02*
X2400Y556D01*
X0Y555D02*
X7Y555D01*
X2393Y555D02*
X2400Y555D01*
X0Y554D02*
X7Y554D01*
X2393Y554D02*
X2400Y554D01*
X0Y553D02*
X7Y553D01*
X2393Y553D02*
X2400Y553D01*
X0Y552D02*
X7Y552D01*
X2393Y552D02*
X2400Y552D01*
X0Y551D02*
X7Y551D01*
X2393Y551D02*
X2400Y551D01*
X0Y550D02*
X7Y550D01*
X2393Y550D02*
X2400Y550D01*
X0Y549D02*
X7Y549D01*
X2393Y549D02*
X2400Y549D01*
X0Y548D02*
X7Y548D01*
X2393Y548D02*
X2400Y548D01*
X0Y547D02*
X7Y547D01*
X2393Y547D02*
X2400Y547D01*
X0Y546D02*
X7Y546D01*
X2393Y546D02*
X2400Y546D01*
X0Y545D02*
X7Y545D01*
X2393Y545D02*
X2400Y545D01*
X0Y544D02*
X7Y544D01*
X2393Y544D02*
X2400Y544D01*
X0Y543D02*
X7Y543D01*
X2393Y543D02*
X2400Y543D01*
X0Y542D02*
X7Y542D01*
X2393Y542D02*
X2400Y542D01*
X0Y541D02*
X7Y541D01*
X2393Y541D02*
X2400Y541D01*
X0Y540D02*
X7Y540D01*
X2393Y540D02*
X2400Y540D01*
X0Y539D02*
X7Y539D01*
X2393Y539D02*
X2400Y539D01*
X0Y538D02*
X7Y538D01*
X2393Y538D02*
X2400Y538D01*
X0Y537D02*
X7Y537D01*
X2393Y537D02*
X2400Y537D01*
X0Y536D02*
X7Y536D01*
X2393Y536D02*
X2400Y536D01*
X0Y535D02*
X7Y535D01*
X2393Y535D02*
X2400Y535D01*
X0Y534D02*
X7Y534D01*
X2393Y534D02*
X2400Y534D01*
X0Y533D02*
X7Y533D01*
X2393Y533D02*
X2400Y533D01*
X0Y532D02*
X7Y532D01*
X2393Y532D02*
X2400Y532D01*
X0Y531D02*
X7Y531D01*
X2393Y531D02*
X2400Y531D01*
X0Y530D02*
X7Y530D01*
X2393Y530D02*
X2400Y530D01*
X0Y529D02*
X7Y529D01*
X2393Y529D02*
X2400Y529D01*
X0Y528D02*
X7Y528D01*
X2393Y528D02*
X2400Y528D01*
X0Y527D02*
X7Y527D01*
X2393Y527D02*
X2400Y527D01*
X0Y526D02*
X7Y526D01*
X2393Y526D02*
X2400Y526D01*
X0Y525D02*
X7Y525D01*
X2393Y525D02*
X2400Y525D01*
X0Y524D02*
X7Y524D01*
X2393Y524D02*
X2400Y524D01*
X0Y523D02*
X7Y523D01*
X2393Y523D02*
X2400Y523D01*
X0Y522D02*
X7Y522D01*
X2393Y522D02*
X2400Y522D01*
X0Y521D02*
X7Y521D01*
X2393Y521D02*
X2400Y521D01*
X0Y520D02*
X7Y520D01*
X2393Y520D02*
X2400Y520D01*
X0Y519D02*
X7Y519D01*
X2393Y519D02*
X2400Y519D01*
X0Y518D02*
X7Y518D01*
X2393Y518D02*
X2400Y518D01*
X0Y517D02*
X7Y517D01*
X2393Y517D02*
X2400Y517D01*
X0Y516D02*
X7Y516D01*
X2393Y516D02*
X2400Y516D01*
X0Y515D02*
X7Y515D01*
X2393Y515D02*
X2400Y515D01*
X0Y514D02*
X7Y514D01*
X2393Y514D02*
X2400Y514D01*
X0Y513D02*
X7Y513D01*
X2393Y513D02*
X2400Y513D01*
X0Y512D02*
X7Y512D01*
X2393Y512D02*
X2400Y512D01*
X0Y511D02*
X7Y511D01*
X2393Y511D02*
X2400Y511D01*
X0Y510D02*
X7Y510D01*
X2393Y510D02*
X2400Y510D01*
X0Y509D02*
X7Y509D01*
X2393Y509D02*
X2400Y509D01*
X0Y508D02*
X7Y508D01*
X2393Y508D02*
X2400Y508D01*
X0Y507D02*
X7Y507D01*
X2393Y507D02*
X2400Y507D01*
X0Y506D02*
X7Y506D01*
X2393Y506D02*
X2400Y506D01*
X0Y505D02*
X7Y505D01*
X2393Y505D02*
X2400Y505D01*
X0Y504D02*
X7Y504D01*
X2393Y504D02*
X2400Y504D01*
X0Y503D02*
X7Y503D01*
X2393Y503D02*
X2400Y503D01*
X0Y502D02*
X7Y502D01*
X2393Y502D02*
X2400Y502D01*
X0Y501D02*
X7Y501D01*
X2393Y501D02*
X2400Y501D01*
X0Y500D02*
X7Y500D01*
X2393Y500D02*
X2400Y500D01*
X0Y499D02*
X7Y499D01*
X2393Y499D02*
X2400Y499D01*
X0Y498D02*
X7Y498D01*
X2393Y498D02*
X2400Y498D01*
X0Y497D02*
X7Y497D01*
X2393Y497D02*
X2400Y497D01*
X0Y496D02*
X7Y496D01*
X2393Y496D02*
X2400Y496D01*
X0Y495D02*
X7Y495D01*
X2393Y495D02*
X2400Y495D01*
X0Y494D02*
X7Y494D01*
X2393Y494D02*
X2400Y494D01*
X0Y493D02*
X7Y493D01*
X2393Y493D02*
X2400Y493D01*
X0Y492D02*
X7Y492D01*
X2393Y492D02*
X2400Y492D01*
X0Y491D02*
X7Y491D01*
X2393Y491D02*
X2400Y491D01*
X0Y490D02*
X7Y490D01*
X2393Y490D02*
X2400Y490D01*
X0Y489D02*
X7Y489D01*
X2393Y489D02*
X2400Y489D01*
X0Y488D02*
X7Y488D01*
X2393Y488D02*
X2400Y488D01*
X0Y487D02*
X7Y487D01*
X2393Y487D02*
X2400Y487D01*
X0Y486D02*
X7Y486D01*
X2393Y486D02*
X2400Y486D01*
X0Y485D02*
X7Y485D01*
X2393Y485D02*
X2400Y485D01*
X0Y484D02*
X7Y484D01*
X2393Y484D02*
X2400Y484D01*
X0Y483D02*
X7Y483D01*
X2393Y483D02*
X2400Y483D01*
X0Y482D02*
X7Y482D01*
X2393Y482D02*
X2400Y482D01*
X0Y481D02*
X7Y481D01*
X2393Y481D02*
X2400Y481D01*
X0Y480D02*
X7Y480D01*
X2393Y480D02*
X2400Y480D01*
X0Y479D02*
X7Y479D01*
X2393Y479D02*
X2400Y479D01*
X0Y478D02*
X7Y478D01*
X2393Y478D02*
X2400Y478D01*
X0Y477D02*
X7Y477D01*
X2393Y477D02*
X2400Y477D01*
X0Y476D02*
X7Y476D01*
X2393Y476D02*
X2400Y476D01*
X0Y475D02*
X7Y475D01*
X2393Y475D02*
X2400Y475D01*
X0Y474D02*
X7Y474D01*
X2393Y474D02*
X2400Y474D01*
X0Y473D02*
X7Y473D01*
X2393Y473D02*
X2400Y473D01*
X0Y472D02*
X7Y472D01*
X2393Y472D02*
X2400Y472D01*
X0Y471D02*
X7Y471D01*
X2393Y471D02*
X2400Y471D01*
X0Y470D02*
X7Y470D01*
X2393Y470D02*
X2400Y470D01*
X0Y469D02*
X7Y469D01*
X2393Y469D02*
X2400Y469D01*
X0Y468D02*
X7Y468D01*
X2393Y468D02*
X2400Y468D01*
X0Y467D02*
X7Y467D01*
X2393Y467D02*
X2400Y467D01*
X0Y466D02*
X7Y466D01*
X2393Y466D02*
X2400Y466D01*
X0Y465D02*
X7Y465D01*
X2393Y465D02*
X2400Y465D01*
X0Y464D02*
X7Y464D01*
X2393Y464D02*
X2400Y464D01*
X0Y463D02*
X7Y463D01*
X2393Y463D02*
X2400Y463D01*
X0Y462D02*
X7Y462D01*
X2393Y462D02*
X2400Y462D01*
X0Y461D02*
X7Y461D01*
X2393Y461D02*
X2400Y461D01*
X0Y460D02*
X7Y460D01*
X2393Y460D02*
X2400Y460D01*
X0Y459D02*
X7Y459D01*
X2393Y459D02*
X2400Y459D01*
X0Y458D02*
X7Y458D01*
X2393Y458D02*
X2400Y458D01*
X0Y457D02*
X7Y457D01*
X2393Y457D02*
X2400Y457D01*
X0Y456D02*
X7Y456D01*
X2393Y456D02*
X2400Y456D01*
X0Y455D02*
X7Y455D01*
X2393Y455D02*
X2400Y455D01*
X0Y454D02*
X7Y454D01*
X2393Y454D02*
X2400Y454D01*
X0Y453D02*
X7Y453D01*
X2393Y453D02*
X2400Y453D01*
X0Y452D02*
X7Y452D01*
X2393Y452D02*
X2400Y452D01*
X0Y451D02*
X7Y451D01*
X2393Y451D02*
X2400Y451D01*
X0Y450D02*
X7Y450D01*
X2393Y450D02*
X2400Y450D01*
X0Y449D02*
X7Y449D01*
X2393Y449D02*
X2400Y449D01*
X0Y448D02*
X7Y448D01*
X2393Y448D02*
X2400Y448D01*
X0Y447D02*
X7Y447D01*
X2393Y447D02*
X2400Y447D01*
X0Y446D02*
X7Y446D01*
X2393Y446D02*
X2400Y446D01*
X0Y445D02*
X7Y445D01*
X2393Y445D02*
X2400Y445D01*
X0Y444D02*
X7Y444D01*
X2393Y444D02*
X2400Y444D01*
X0Y443D02*
X7Y443D01*
X2393Y443D02*
X2400Y443D01*
X0Y442D02*
X7Y442D01*
X2393Y442D02*
X2400Y442D01*
X0Y441D02*
X7Y441D01*
X2393Y441D02*
X2400Y441D01*
X0Y440D02*
X7Y440D01*
X2393Y440D02*
X2400Y440D01*
X0Y439D02*
X7Y439D01*
X2393Y439D02*
X2400Y439D01*
X0Y438D02*
X7Y438D01*
X2393Y438D02*
X2400Y438D01*
X0Y437D02*
X7Y437D01*
X2393Y437D02*
X2400Y437D01*
X0Y436D02*
X7Y436D01*
X2393Y436D02*
X2400Y436D01*
X0Y435D02*
X7Y435D01*
X2393Y435D02*
X2400Y435D01*
X0Y434D02*
X7Y434D01*
X2393Y434D02*
X2400Y434D01*
X0Y433D02*
X7Y433D01*
X2393Y433D02*
X2400Y433D01*
X0Y432D02*
X7Y432D01*
X2393Y432D02*
X2400Y432D01*
X0Y431D02*
X7Y431D01*
X2393Y431D02*
X2400Y431D01*
X0Y430D02*
X7Y430D01*
X2393Y430D02*
X2400Y430D01*
X0Y429D02*
X7Y429D01*
X2393Y429D02*
X2400Y429D01*
X0Y428D02*
X7Y428D01*
X2393Y428D02*
X2400Y428D01*
X0Y427D02*
X7Y427D01*
X2393Y427D02*
X2400Y427D01*
X0Y426D02*
X7Y426D01*
X2393Y426D02*
X2400Y426D01*
X0Y425D02*
X7Y425D01*
X2393Y425D02*
X2400Y425D01*
X0Y424D02*
X7Y424D01*
X2393Y424D02*
X2400Y424D01*
X0Y423D02*
X7Y423D01*
X2393Y423D02*
X2400Y423D01*
X0Y422D02*
X7Y422D01*
X2393Y422D02*
X2400Y422D01*
X0Y421D02*
X7Y421D01*
X2393Y421D02*
X2400Y421D01*
X0Y420D02*
X7Y420D01*
X2393Y420D02*
X2400Y420D01*
X0Y419D02*
X7Y419D01*
X2393Y419D02*
X2400Y419D01*
X0Y418D02*
X7Y418D01*
X2393Y418D02*
X2400Y418D01*
X0Y417D02*
X7Y417D01*
X2393Y417D02*
X2400Y417D01*
X0Y416D02*
X7Y416D01*
X2393Y416D02*
X2400Y416D01*
X0Y415D02*
X7Y415D01*
X2393Y415D02*
X2400Y415D01*
X0Y414D02*
X7Y414D01*
X2393Y414D02*
X2400Y414D01*
X0Y413D02*
X7Y413D01*
X2393Y413D02*
X2400Y413D01*
X0Y412D02*
X7Y412D01*
X2393Y412D02*
X2400Y412D01*
X0Y411D02*
X7Y411D01*
X2393Y411D02*
X2400Y411D01*
X0Y410D02*
X7Y410D01*
X2393Y410D02*
X2400Y410D01*
X0Y409D02*
X7Y409D01*
X2393Y409D02*
X2400Y409D01*
X0Y408D02*
X7Y408D01*
X2393Y408D02*
X2400Y408D01*
X0Y407D02*
X7Y407D01*
X2393Y407D02*
X2400Y407D01*
X0Y406D02*
X7Y406D01*
X2393Y406D02*
X2400Y406D01*
X0Y405D02*
X7Y405D01*
X2393Y405D02*
X2400Y405D01*
X0Y404D02*
X7Y404D01*
X2393Y404D02*
X2400Y404D01*
X0Y403D02*
X7Y403D01*
X2393Y403D02*
X2400Y403D01*
X0Y402D02*
X7Y402D01*
X2393Y402D02*
X2400Y402D01*
X0Y401D02*
X7Y401D01*
X2393Y401D02*
X2400Y401D01*
X0Y400D02*
X7Y400D01*
X2393Y400D02*
X2400Y400D01*
X0Y399D02*
X7Y399D01*
X2393Y399D02*
X2400Y399D01*
X0Y398D02*
X7Y398D01*
X2393Y398D02*
X2400Y398D01*
X0Y397D02*
X7Y397D01*
X2393Y397D02*
X2400Y397D01*
X0Y396D02*
X7Y396D01*
X2393Y396D02*
X2400Y396D01*
X0Y395D02*
X7Y395D01*
X2393Y395D02*
X2400Y395D01*
X0Y394D02*
X7Y394D01*
X2393Y394D02*
X2400Y394D01*
X0Y393D02*
X7Y393D01*
X2393Y393D02*
X2400Y393D01*
X0Y392D02*
X7Y392D01*
X2393Y392D02*
X2400Y392D01*
X0Y391D02*
X7Y391D01*
X2393Y391D02*
X2400Y391D01*
X0Y390D02*
X7Y390D01*
X2393Y390D02*
X2400Y390D01*
X0Y389D02*
X7Y389D01*
X2393Y389D02*
X2400Y389D01*
X0Y388D02*
X7Y388D01*
X2393Y388D02*
X2400Y388D01*
X0Y387D02*
X7Y387D01*
X2393Y387D02*
X2400Y387D01*
X0Y386D02*
X7Y386D01*
X2393Y386D02*
X2400Y386D01*
X0Y385D02*
X7Y385D01*
X2393Y385D02*
X2400Y385D01*
X0Y384D02*
X7Y384D01*
X2393Y384D02*
X2400Y384D01*
X0Y383D02*
X7Y383D01*
X2393Y383D02*
X2400Y383D01*
X0Y382D02*
X7Y382D01*
X2393Y382D02*
X2400Y382D01*
X0Y381D02*
X7Y381D01*
X2393Y381D02*
X2400Y381D01*
X0Y380D02*
X7Y380D01*
X2393Y380D02*
X2400Y380D01*
X0Y379D02*
X7Y379D01*
X2393Y379D02*
X2400Y379D01*
X0Y378D02*
X7Y378D01*
X2393Y378D02*
X2400Y378D01*
X0Y377D02*
X7Y377D01*
X2393Y377D02*
X2400Y377D01*
X0Y376D02*
X7Y376D01*
X2393Y376D02*
X2400Y376D01*
X0Y375D02*
X7Y375D01*
X2393Y375D02*
X2400Y375D01*
X0Y374D02*
X7Y374D01*
X2393Y374D02*
X2400Y374D01*
X0Y373D02*
X7Y373D01*
X2393Y373D02*
X2400Y373D01*
X0Y372D02*
X7Y372D01*
X2393Y372D02*
X2400Y372D01*
X0Y371D02*
X7Y371D01*
X2393Y371D02*
X2400Y371D01*
X0Y370D02*
X7Y370D01*
X2393Y370D02*
X2400Y370D01*
X0Y369D02*
X7Y369D01*
X2393Y369D02*
X2400Y369D01*
X0Y368D02*
X7Y368D01*
X2393Y368D02*
X2400Y368D01*
X0Y367D02*
X7Y367D01*
X2393Y367D02*
X2400Y367D01*
X0Y366D02*
X7Y366D01*
X2393Y366D02*
X2400Y366D01*
X0Y365D02*
X7Y365D01*
X2393Y365D02*
X2400Y365D01*
X0Y364D02*
X7Y364D01*
X2393Y364D02*
X2400Y364D01*
X0Y363D02*
X7Y363D01*
X2393Y363D02*
X2400Y363D01*
X0Y362D02*
X7Y362D01*
X2393Y362D02*
X2400Y362D01*
X0Y361D02*
X7Y361D01*
X2393Y361D02*
X2400Y361D01*
X0Y360D02*
X7Y360D01*
X2393Y360D02*
X2400Y360D01*
X0Y359D02*
X7Y359D01*
X2393Y359D02*
X2400Y359D01*
X0Y358D02*
X7Y358D01*
X2393Y358D02*
X2400Y358D01*
X0Y357D02*
X7Y357D01*
X2393Y357D02*
X2400Y357D01*
X0Y356D02*
X7Y356D01*
X2393Y356D02*
X2400Y356D01*
X0Y355D02*
X7Y355D01*
X2393Y355D02*
X2400Y355D01*
X0Y354D02*
X7Y354D01*
X2393Y354D02*
X2400Y354D01*
X0Y353D02*
X7Y353D01*
X2393Y353D02*
X2400Y353D01*
X0Y352D02*
X7Y352D01*
X2393Y352D02*
X2400Y352D01*
X0Y351D02*
X7Y351D01*
X2393Y351D02*
X2400Y351D01*
X0Y350D02*
X7Y350D01*
X2393Y350D02*
X2400Y350D01*
X0Y349D02*
X7Y349D01*
X2393Y349D02*
X2400Y349D01*
X0Y348D02*
X7Y348D01*
X2393Y348D02*
X2400Y348D01*
X0Y347D02*
X7Y347D01*
X2393Y347D02*
X2400Y347D01*
X0Y346D02*
X7Y346D01*
X2393Y346D02*
X2400Y346D01*
X0Y345D02*
X7Y345D01*
X2393Y345D02*
X2400Y345D01*
X0Y344D02*
X7Y344D01*
X2393Y344D02*
X2400Y344D01*
X0Y343D02*
X7Y343D01*
X2393Y343D02*
X2400Y343D01*
X0Y342D02*
X7Y342D01*
X2393Y342D02*
X2400Y342D01*
X0Y341D02*
X7Y341D01*
X2393Y341D02*
X2400Y341D01*
X0Y340D02*
X7Y340D01*
X2393Y340D02*
X2400Y340D01*
X0Y339D02*
X7Y339D01*
X2393Y339D02*
X2400Y339D01*
X0Y338D02*
X7Y338D01*
X2393Y338D02*
X2400Y338D01*
X0Y337D02*
X7Y337D01*
X2393Y337D02*
X2400Y337D01*
X0Y336D02*
X7Y336D01*
X2393Y336D02*
X2400Y336D01*
X0Y335D02*
X7Y335D01*
X2393Y335D02*
X2400Y335D01*
X0Y334D02*
X7Y334D01*
X2393Y334D02*
X2400Y334D01*
X0Y333D02*
X7Y333D01*
X2393Y333D02*
X2400Y333D01*
X0Y332D02*
X7Y332D01*
X2393Y332D02*
X2400Y332D01*
X0Y331D02*
X7Y331D01*
X2393Y331D02*
X2400Y331D01*
X0Y330D02*
X7Y330D01*
X2393Y330D02*
X2400Y330D01*
X0Y329D02*
X7Y329D01*
X2393Y329D02*
X2400Y329D01*
X0Y328D02*
X7Y328D01*
X2393Y328D02*
X2400Y328D01*
X0Y327D02*
X7Y327D01*
X2393Y327D02*
X2400Y327D01*
X0Y326D02*
X7Y326D01*
X2393Y326D02*
X2400Y326D01*
X0Y325D02*
X7Y325D01*
X2393Y325D02*
X2400Y325D01*
X0Y324D02*
X7Y324D01*
X2393Y324D02*
X2400Y324D01*
X0Y323D02*
X7Y323D01*
X2393Y323D02*
X2400Y323D01*
X0Y322D02*
X7Y322D01*
X2393Y322D02*
X2400Y322D01*
X0Y321D02*
X7Y321D01*
X2393Y321D02*
X2400Y321D01*
X0Y320D02*
X7Y320D01*
X2393Y320D02*
X2400Y320D01*
X0Y319D02*
X7Y319D01*
X2393Y319D02*
X2400Y319D01*
X0Y318D02*
X7Y318D01*
X2393Y318D02*
X2400Y318D01*
X0Y317D02*
X7Y317D01*
X2393Y317D02*
X2400Y317D01*
X0Y316D02*
X7Y316D01*
X2393Y316D02*
X2400Y316D01*
X0Y315D02*
X7Y315D01*
X2393Y315D02*
X2400Y315D01*
X0Y314D02*
X7Y314D01*
X2393Y314D02*
X2400Y314D01*
X0Y313D02*
X7Y313D01*
X2393Y313D02*
X2400Y313D01*
X0Y312D02*
X7Y312D01*
X2393Y312D02*
X2400Y312D01*
X0Y311D02*
X7Y311D01*
X2393Y311D02*
X2400Y311D01*
X0Y310D02*
X7Y310D01*
X2393Y310D02*
X2400Y310D01*
X0Y309D02*
X7Y309D01*
X2393Y309D02*
X2400Y309D01*
X0Y308D02*
X7Y308D01*
X2393Y308D02*
X2400Y308D01*
X0Y307D02*
X7Y307D01*
X2393Y307D02*
X2400Y307D01*
X0Y306D02*
X7Y306D01*
X2393Y306D02*
X2400Y306D01*
X0Y305D02*
X7Y305D01*
X2393Y305D02*
X2400Y305D01*
X0Y304D02*
X7Y304D01*
X2393Y304D02*
X2400Y304D01*
X0Y303D02*
X7Y303D01*
X2393Y303D02*
X2400Y303D01*
X0Y302D02*
X7Y302D01*
X2393Y302D02*
X2400Y302D01*
X0Y301D02*
X7Y301D01*
X2393Y301D02*
X2400Y301D01*
X0Y300D02*
X7Y300D01*
X2393Y300D02*
X2400Y300D01*
X0Y299D02*
X7Y299D01*
X2393Y299D02*
X2400Y299D01*
X0Y298D02*
X7Y298D01*
X2393Y298D02*
X2400Y298D01*
X0Y297D02*
X7Y297D01*
X2393Y297D02*
X2400Y297D01*
X0Y296D02*
X7Y296D01*
X2393Y296D02*
X2400Y296D01*
X0Y295D02*
X7Y295D01*
X2393Y295D02*
X2400Y295D01*
X0Y294D02*
X7Y294D01*
X2393Y294D02*
X2400Y294D01*
X0Y293D02*
X7Y293D01*
X2393Y293D02*
X2400Y293D01*
X0Y292D02*
X7Y292D01*
X2393Y292D02*
X2400Y292D01*
X0Y291D02*
X7Y291D01*
X2393Y291D02*
X2400Y291D01*
X0Y290D02*
X7Y290D01*
X2393Y290D02*
X2400Y290D01*
X0Y289D02*
X7Y289D01*
X2393Y289D02*
X2400Y289D01*
X0Y288D02*
X7Y288D01*
X2393Y288D02*
X2400Y288D01*
X0Y287D02*
X7Y287D01*
X2393Y287D02*
X2400Y287D01*
X0Y286D02*
X7Y286D01*
X2393Y286D02*
X2400Y286D01*
X0Y285D02*
X7Y285D01*
X2393Y285D02*
X2400Y285D01*
X0Y284D02*
X7Y284D01*
X2393Y284D02*
X2400Y284D01*
X0Y283D02*
X7Y283D01*
X2393Y283D02*
X2400Y283D01*
X0Y282D02*
X7Y282D01*
X2393Y282D02*
X2400Y282D01*
X0Y281D02*
X7Y281D01*
X2393Y281D02*
X2400Y281D01*
X0Y280D02*
X7Y280D01*
X2393Y280D02*
X2400Y280D01*
X0Y279D02*
X7Y279D01*
X2393Y279D02*
X2400Y279D01*
X0Y278D02*
X7Y278D01*
X2393Y278D02*
X2400Y278D01*
X0Y277D02*
X7Y277D01*
X2393Y277D02*
X2400Y277D01*
X0Y276D02*
X7Y276D01*
X2393Y276D02*
X2400Y276D01*
X0Y275D02*
X7Y275D01*
X2393Y275D02*
X2400Y275D01*
X0Y274D02*
X7Y274D01*
X2393Y274D02*
X2400Y274D01*
X0Y273D02*
X7Y273D01*
X2393Y273D02*
X2400Y273D01*
X0Y272D02*
X7Y272D01*
X2393Y272D02*
X2400Y272D01*
X0Y271D02*
X7Y271D01*
X2393Y271D02*
X2400Y271D01*
X0Y270D02*
X7Y270D01*
X2393Y270D02*
X2400Y270D01*
X0Y269D02*
X7Y269D01*
X2393Y269D02*
X2400Y269D01*
X0Y268D02*
X7Y268D01*
X2393Y268D02*
X2400Y268D01*
X0Y267D02*
X7Y267D01*
X2393Y267D02*
X2400Y267D01*
X0Y266D02*
X7Y266D01*
X2393Y266D02*
X2400Y266D01*
X0Y265D02*
X7Y265D01*
X2393Y265D02*
X2400Y265D01*
X0Y264D02*
X7Y264D01*
X2393Y264D02*
X2400Y264D01*
X0Y263D02*
X7Y263D01*
X2393Y263D02*
X2400Y263D01*
X0Y262D02*
X7Y262D01*
X2393Y262D02*
X2400Y262D01*
X0Y261D02*
X7Y261D01*
X2393Y261D02*
X2400Y261D01*
X0Y260D02*
X7Y260D01*
X2393Y260D02*
X2400Y260D01*
X0Y259D02*
X7Y259D01*
X2393Y259D02*
X2400Y259D01*
X0Y258D02*
X7Y258D01*
X2393Y258D02*
X2400Y258D01*
X0Y257D02*
X7Y257D01*
X2393Y257D02*
X2400Y257D01*
X0Y256D02*
X7Y256D01*
X2393Y256D02*
X2400Y256D01*
X0Y255D02*
X7Y255D01*
X2393Y255D02*
X2400Y255D01*
X0Y254D02*
X7Y254D01*
X2393Y254D02*
X2400Y254D01*
X0Y253D02*
X7Y253D01*
X2393Y253D02*
X2400Y253D01*
X0Y252D02*
X7Y252D01*
X2393Y252D02*
X2400Y252D01*
X0Y251D02*
X7Y251D01*
X2393Y251D02*
X2400Y251D01*
X0Y250D02*
X7Y250D01*
X2393Y250D02*
X2400Y250D01*
X0Y249D02*
X7Y249D01*
X2393Y249D02*
X2400Y249D01*
X0Y248D02*
X7Y248D01*
X2393Y248D02*
X2400Y248D01*
X0Y247D02*
X7Y247D01*
X2393Y247D02*
X2400Y247D01*
X0Y246D02*
X7Y246D01*
X2393Y246D02*
X2400Y246D01*
X0Y245D02*
X7Y245D01*
X2393Y245D02*
X2400Y245D01*
X0Y244D02*
X7Y244D01*
X2393Y244D02*
X2400Y244D01*
X0Y243D02*
X7Y243D01*
X2393Y243D02*
X2400Y243D01*
X0Y242D02*
X7Y242D01*
X2393Y242D02*
X2400Y242D01*
X0Y241D02*
X7Y241D01*
X2393Y241D02*
X2400Y241D01*
X0Y240D02*
X7Y240D01*
X2393Y240D02*
X2400Y240D01*
X0Y239D02*
X7Y239D01*
X2393Y239D02*
X2400Y239D01*
X0Y238D02*
X7Y238D01*
X2393Y238D02*
X2400Y238D01*
X0Y237D02*
X7Y237D01*
X2393Y237D02*
X2400Y237D01*
X0Y236D02*
X7Y236D01*
X2393Y236D02*
X2400Y236D01*
X0Y235D02*
X7Y235D01*
X2393Y235D02*
X2400Y235D01*
X0Y234D02*
X7Y234D01*
X2393Y234D02*
X2400Y234D01*
X0Y233D02*
X7Y233D01*
X2393Y233D02*
X2400Y233D01*
X0Y232D02*
X7Y232D01*
X2393Y232D02*
X2400Y232D01*
X0Y231D02*
X7Y231D01*
X2393Y231D02*
X2400Y231D01*
X0Y230D02*
X7Y230D01*
X2393Y230D02*
X2400Y230D01*
X0Y229D02*
X7Y229D01*
X2393Y229D02*
X2400Y229D01*
X0Y228D02*
X7Y228D01*
X2393Y228D02*
X2400Y228D01*
X0Y227D02*
X7Y227D01*
X2393Y227D02*
X2400Y227D01*
X0Y226D02*
X7Y226D01*
X2393Y226D02*
X2400Y226D01*
X0Y225D02*
X7Y225D01*
X2393Y225D02*
X2400Y225D01*
X0Y224D02*
X7Y224D01*
X2393Y224D02*
X2400Y224D01*
X0Y223D02*
X7Y223D01*
X2393Y223D02*
X2400Y223D01*
X0Y222D02*
X7Y222D01*
X2393Y222D02*
X2400Y222D01*
X0Y221D02*
X7Y221D01*
X2393Y221D02*
X2400Y221D01*
X0Y220D02*
X7Y220D01*
X2393Y220D02*
X2400Y220D01*
X0Y219D02*
X7Y219D01*
X2393Y219D02*
X2400Y219D01*
X0Y218D02*
X7Y218D01*
X2393Y218D02*
X2400Y218D01*
X0Y217D02*
X7Y217D01*
X2393Y217D02*
X2400Y217D01*
X0Y216D02*
X7Y216D01*
X2393Y216D02*
X2400Y216D01*
X0Y215D02*
X7Y215D01*
X2393Y215D02*
X2400Y215D01*
X0Y214D02*
X7Y214D01*
X2393Y214D02*
X2400Y214D01*
X0Y213D02*
X7Y213D01*
X2393Y213D02*
X2400Y213D01*
X0Y212D02*
X7Y212D01*
X2393Y212D02*
X2400Y212D01*
X0Y211D02*
X7Y211D01*
X2393Y211D02*
X2400Y211D01*
X0Y210D02*
X7Y210D01*
X2393Y210D02*
X2400Y210D01*
X0Y209D02*
X7Y209D01*
X2393Y209D02*
X2400Y209D01*
X0Y208D02*
X7Y208D01*
X2393Y208D02*
X2400Y208D01*
X0Y207D02*
X7Y207D01*
X2393Y207D02*
X2400Y207D01*
X0Y206D02*
X7Y206D01*
X2393Y206D02*
X2400Y206D01*
X0Y205D02*
X7Y205D01*
X2393Y205D02*
X2400Y205D01*
X0Y204D02*
X7Y204D01*
X2393Y204D02*
X2400Y204D01*
X0Y203D02*
X7Y203D01*
X2393Y203D02*
X2400Y203D01*
X0Y202D02*
X7Y202D01*
X2393Y202D02*
X2400Y202D01*
X0Y201D02*
X7Y201D01*
X2393Y201D02*
X2400Y201D01*
X0Y200D02*
X7Y200D01*
X2393Y200D02*
X2400Y200D01*
X0Y199D02*
X7Y199D01*
X2393Y199D02*
X2400Y199D01*
X0Y198D02*
X7Y198D01*
X2393Y198D02*
X2400Y198D01*
X0Y197D02*
X7Y197D01*
X2393Y197D02*
X2400Y197D01*
X0Y196D02*
X7Y196D01*
X2393Y196D02*
X2400Y196D01*
X0Y195D02*
X7Y195D01*
X2393Y195D02*
X2400Y195D01*
X0Y194D02*
X7Y194D01*
X2393Y194D02*
X2400Y194D01*
X0Y193D02*
X7Y193D01*
X2393Y193D02*
X2400Y193D01*
X0Y192D02*
X7Y192D01*
X2393Y192D02*
X2400Y192D01*
X0Y191D02*
X7Y191D01*
X2393Y191D02*
X2400Y191D01*
X0Y190D02*
X7Y190D01*
X2393Y190D02*
X2400Y190D01*
X0Y189D02*
X7Y189D01*
X2393Y189D02*
X2400Y189D01*
X0Y188D02*
X7Y188D01*
X2393Y188D02*
X2400Y188D01*
X0Y187D02*
X7Y187D01*
X2393Y187D02*
X2400Y187D01*
X0Y186D02*
X7Y186D01*
X2393Y186D02*
X2400Y186D01*
X0Y185D02*
X7Y185D01*
X2393Y185D02*
X2400Y185D01*
X0Y184D02*
X7Y184D01*
X2393Y184D02*
X2400Y184D01*
X0Y183D02*
X7Y183D01*
X2393Y183D02*
X2400Y183D01*
X0Y182D02*
X7Y182D01*
X2393Y182D02*
X2400Y182D01*
X0Y181D02*
X7Y181D01*
X2393Y181D02*
X2400Y181D01*
X0Y180D02*
X7Y180D01*
X2393Y180D02*
X2400Y180D01*
X0Y179D02*
X7Y179D01*
X2393Y179D02*
X2400Y179D01*
X0Y178D02*
X7Y178D01*
X2393Y178D02*
X2400Y178D01*
X0Y177D02*
X7Y177D01*
X2393Y177D02*
X2400Y177D01*
X0Y176D02*
X7Y176D01*
X2393Y176D02*
X2400Y176D01*
X0Y175D02*
X7Y175D01*
X2393Y175D02*
X2400Y175D01*
X0Y174D02*
X7Y174D01*
X2393Y174D02*
X2400Y174D01*
X0Y173D02*
X7Y173D01*
X2393Y173D02*
X2400Y173D01*
X0Y172D02*
X7Y172D01*
X2393Y172D02*
X2400Y172D01*
X0Y171D02*
X7Y171D01*
X2393Y171D02*
X2400Y171D01*
X0Y170D02*
X7Y170D01*
X2393Y170D02*
X2400Y170D01*
X0Y169D02*
X7Y169D01*
X2393Y169D02*
X2400Y169D01*
X0Y168D02*
X7Y168D01*
X2393Y168D02*
X2400Y168D01*
X0Y167D02*
X7Y167D01*
X2393Y167D02*
X2400Y167D01*
X0Y166D02*
X7Y166D01*
X2393Y166D02*
X2400Y166D01*
X0Y165D02*
X7Y165D01*
X2393Y165D02*
X2400Y165D01*
X0Y164D02*
X7Y164D01*
X2393Y164D02*
X2400Y164D01*
X0Y163D02*
X7Y163D01*
X2393Y163D02*
X2400Y163D01*
X0Y162D02*
X7Y162D01*
X2393Y162D02*
X2400Y162D01*
X0Y161D02*
X7Y161D01*
X2393Y161D02*
X2400Y161D01*
X0Y160D02*
X7Y160D01*
X2393Y160D02*
X2400Y160D01*
X0Y159D02*
X7Y159D01*
X2393Y159D02*
X2400Y159D01*
X0Y158D02*
X7Y158D01*
X2393Y158D02*
X2400Y158D01*
X0Y157D02*
X7Y157D01*
X2393Y157D02*
X2400Y157D01*
X0Y156D02*
X7Y156D01*
X2393Y156D02*
X2400Y156D01*
X0Y155D02*
X7Y155D01*
X2393Y155D02*
X2400Y155D01*
X0Y154D02*
X7Y154D01*
X2393Y154D02*
X2400Y154D01*
X0Y153D02*
X7Y153D01*
X2393Y153D02*
X2400Y153D01*
X0Y152D02*
X7Y152D01*
X2393Y152D02*
X2400Y152D01*
X0Y151D02*
X7Y151D01*
X2393Y151D02*
X2400Y151D01*
X0Y150D02*
X7Y150D01*
X2393Y150D02*
X2400Y150D01*
X0Y149D02*
X7Y149D01*
X2393Y149D02*
X2400Y149D01*
X0Y148D02*
X7Y148D01*
X2393Y148D02*
X2400Y148D01*
X0Y147D02*
X7Y147D01*
X2393Y147D02*
X2400Y147D01*
X0Y146D02*
X7Y146D01*
X2393Y146D02*
X2400Y146D01*
X0Y145D02*
X7Y145D01*
X2393Y145D02*
X2400Y145D01*
X0Y144D02*
X7Y144D01*
X2393Y144D02*
X2400Y144D01*
X0Y143D02*
X7Y143D01*
X2393Y143D02*
X2400Y143D01*
X0Y142D02*
X7Y142D01*
X2393Y142D02*
X2400Y142D01*
X0Y141D02*
X7Y141D01*
X2393Y141D02*
X2400Y141D01*
X0Y140D02*
X7Y140D01*
X2393Y140D02*
X2400Y140D01*
X0Y139D02*
X7Y139D01*
X2393Y139D02*
X2400Y139D01*
X0Y138D02*
X7Y138D01*
X2393Y138D02*
X2400Y138D01*
X0Y137D02*
X7Y137D01*
X2393Y137D02*
X2400Y137D01*
X0Y136D02*
X7Y136D01*
X2393Y136D02*
X2400Y136D01*
X0Y135D02*
X7Y135D01*
X2393Y135D02*
X2400Y135D01*
X0Y134D02*
X7Y134D01*
X2393Y134D02*
X2400Y134D01*
X0Y133D02*
X7Y133D01*
X2393Y133D02*
X2400Y133D01*
X0Y132D02*
X7Y132D01*
X2393Y132D02*
X2400Y132D01*
X0Y131D02*
X7Y131D01*
X2393Y131D02*
X2400Y131D01*
X0Y130D02*
X7Y130D01*
X2393Y130D02*
X2400Y130D01*
X0Y129D02*
X7Y129D01*
X2393Y129D02*
X2400Y129D01*
X0Y128D02*
X7Y128D01*
X2393Y128D02*
X2400Y128D01*
X0Y127D02*
X7Y127D01*
X2393Y127D02*
X2400Y127D01*
X0Y126D02*
X7Y126D01*
X2393Y126D02*
X2400Y126D01*
X0Y125D02*
X7Y125D01*
X2393Y125D02*
X2400Y125D01*
X0Y124D02*
X7Y124D01*
X2393Y124D02*
X2400Y124D01*
X0Y123D02*
X7Y123D01*
X2393Y123D02*
X2400Y123D01*
X0Y122D02*
X7Y122D01*
X2393Y122D02*
X2400Y122D01*
X0Y121D02*
X7Y121D01*
X2393Y121D02*
X2400Y121D01*
X0Y120D02*
X7Y120D01*
X2393Y120D02*
X2400Y120D01*
X0Y119D02*
X7Y119D01*
X2393Y119D02*
X2400Y119D01*
X0Y118D02*
X7Y118D01*
X2393Y118D02*
X2400Y118D01*
X0Y117D02*
X7Y117D01*
X2393Y117D02*
X2400Y117D01*
X0Y116D02*
X7Y116D01*
X2393Y116D02*
X2400Y116D01*
X0Y115D02*
X7Y115D01*
X2393Y115D02*
X2400Y115D01*
X0Y114D02*
X7Y114D01*
X2393Y114D02*
X2400Y114D01*
X0Y113D02*
X7Y113D01*
X2393Y113D02*
X2400Y113D01*
X0Y112D02*
X7Y112D01*
X2393Y112D02*
X2400Y112D01*
X0Y111D02*
X7Y111D01*
X2393Y111D02*
X2400Y111D01*
X0Y110D02*
X7Y110D01*
X2393Y110D02*
X2400Y110D01*
X0Y109D02*
X7Y109D01*
X2393Y109D02*
X2400Y109D01*
X0Y108D02*
X7Y108D01*
X2393Y108D02*
X2400Y108D01*
X0Y107D02*
X7Y107D01*
X2393Y107D02*
X2400Y107D01*
X0Y106D02*
X7Y106D01*
X2393Y106D02*
X2400Y106D01*
X0Y105D02*
X7Y105D01*
X2393Y105D02*
X2400Y105D01*
X0Y104D02*
X7Y104D01*
X2393Y104D02*
X2400Y104D01*
X0Y103D02*
X7Y103D01*
X2393Y103D02*
X2400Y103D01*
X0Y102D02*
X7Y102D01*
X2393Y102D02*
X2400Y102D01*
X0Y101D02*
X7Y101D01*
X2393Y101D02*
X2400Y101D01*
X0Y100D02*
X7Y100D01*
X2393Y100D02*
X2400Y100D01*
X0Y99D02*
X7Y99D01*
X2393Y99D02*
X2400Y99D01*
X0Y98D02*
X7Y98D01*
X2393Y98D02*
X2400Y98D01*
X0Y97D02*
X7Y97D01*
X2393Y97D02*
X2400Y97D01*
X0Y96D02*
X7Y96D01*
X2393Y96D02*
X2400Y96D01*
X0Y95D02*
X7Y95D01*
X2393Y95D02*
X2400Y95D01*
X0Y94D02*
X7Y94D01*
X2393Y94D02*
X2400Y94D01*
X0Y93D02*
X7Y93D01*
X2393Y93D02*
X2400Y93D01*
X0Y92D02*
X7Y92D01*
X2393Y92D02*
X2400Y92D01*
X0Y91D02*
X7Y91D01*
X2393Y91D02*
X2400Y91D01*
X0Y90D02*
X7Y90D01*
X2393Y90D02*
X2400Y90D01*
X0Y89D02*
X7Y89D01*
X2393Y89D02*
X2400Y89D01*
X0Y88D02*
X7Y88D01*
X2393Y88D02*
X2400Y88D01*
X0Y87D02*
X7Y87D01*
X2393Y87D02*
X2400Y87D01*
X0Y86D02*
X7Y86D01*
X2393Y86D02*
X2400Y86D01*
X0Y85D02*
X7Y85D01*
X2393Y85D02*
X2400Y85D01*
X0Y84D02*
X7Y84D01*
X2393Y84D02*
X2400Y84D01*
X0Y83D02*
X7Y83D01*
X2393Y83D02*
X2400Y83D01*
X0Y82D02*
X7Y82D01*
X2393Y82D02*
X2400Y82D01*
X0Y81D02*
X7Y81D01*
X2393Y81D02*
X2400Y81D01*
X0Y80D02*
X7Y80D01*
X2393Y80D02*
X2400Y80D01*
X0Y79D02*
X7Y79D01*
X2393Y79D02*
X2400Y79D01*
X0Y78D02*
X7Y78D01*
X2393Y78D02*
X2400Y78D01*
X0Y77D02*
X7Y77D01*
X2393Y77D02*
X2400Y77D01*
X0Y76D02*
X7Y76D01*
X2393Y76D02*
X2400Y76D01*
X0Y75D02*
X7Y75D01*
X2393Y75D02*
X2400Y75D01*
X0Y74D02*
X7Y74D01*
X2393Y74D02*
X2400Y74D01*
X0Y73D02*
X7Y73D01*
X2393Y73D02*
X2400Y73D01*
X0Y72D02*
X7Y72D01*
X2393Y72D02*
X2400Y72D01*
X0Y71D02*
X7Y71D01*
X2393Y71D02*
X2400Y71D01*
X0Y70D02*
X7Y70D01*
X2393Y70D02*
X2400Y70D01*
X0Y69D02*
X7Y69D01*
X2393Y69D02*
X2400Y69D01*
X0Y68D02*
X7Y68D01*
X2393Y68D02*
X2400Y68D01*
X0Y67D02*
X7Y67D01*
X2393Y67D02*
X2400Y67D01*
X0Y66D02*
X7Y66D01*
X2393Y66D02*
X2400Y66D01*
X0Y65D02*
X7Y65D01*
X2393Y65D02*
X2400Y65D01*
X0Y64D02*
X7Y64D01*
X2393Y64D02*
X2400Y64D01*
X0Y63D02*
X7Y63D01*
X2393Y63D02*
X2400Y63D01*
X0Y62D02*
X7Y62D01*
X2393Y62D02*
X2400Y62D01*
X0Y61D02*
X7Y61D01*
X2393Y61D02*
X2400Y61D01*
X0Y60D02*
X7Y60D01*
X2393Y60D02*
X2400Y60D01*
X0Y59D02*
X7Y59D01*
X2393Y59D02*
X2400Y59D01*
X0Y58D02*
X7Y58D01*
X2393Y58D02*
X2400Y58D01*
X0Y57D02*
X7Y57D01*
X2393Y57D02*
X2400Y57D01*
X0Y56D02*
X7Y56D01*
X2393Y56D02*
X2400Y56D01*
X0Y55D02*
X7Y55D01*
X2393Y55D02*
X2400Y55D01*
X0Y54D02*
X7Y54D01*
X2393Y54D02*
X2400Y54D01*
X0Y53D02*
X7Y53D01*
X2393Y53D02*
X2400Y53D01*
X0Y52D02*
X7Y52D01*
X2393Y52D02*
X2400Y52D01*
X0Y51D02*
X7Y51D01*
X2393Y51D02*
X2400Y51D01*
X0Y50D02*
X7Y50D01*
X2393Y50D02*
X2400Y50D01*
X0Y49D02*
X7Y49D01*
X2393Y49D02*
X2400Y49D01*
X0Y48D02*
X7Y48D01*
X2393Y48D02*
X2400Y48D01*
X0Y47D02*
X7Y47D01*
X2393Y47D02*
X2400Y47D01*
X0Y46D02*
X7Y46D01*
X2393Y46D02*
X2400Y46D01*
X0Y45D02*
X7Y45D01*
X2393Y45D02*
X2400Y45D01*
X0Y44D02*
X7Y44D01*
X2393Y44D02*
X2400Y44D01*
X0Y43D02*
X7Y43D01*
X2393Y43D02*
X2400Y43D01*
X0Y42D02*
X7Y42D01*
X2393Y42D02*
X2400Y42D01*
X0Y41D02*
X7Y41D01*
X2393Y41D02*
X2400Y41D01*
X0Y40D02*
X7Y40D01*
X2393Y40D02*
X2400Y40D01*
X0Y39D02*
X7Y39D01*
X2393Y39D02*
X2400Y39D01*
X0Y38D02*
X7Y38D01*
X2393Y38D02*
X2400Y38D01*
X0Y37D02*
X7Y37D01*
X2393Y37D02*
X2400Y37D01*
X0Y36D02*
X7Y36D01*
X2393Y36D02*
X2400Y36D01*
X0Y35D02*
X7Y35D01*
X2393Y35D02*
X2400Y35D01*
X0Y34D02*
X7Y34D01*
X2393Y34D02*
X2400Y34D01*
X0Y33D02*
X7Y33D01*
X2393Y33D02*
X2400Y33D01*
X0Y32D02*
X7Y32D01*
X2393Y32D02*
X2400Y32D01*
X0Y31D02*
X7Y31D01*
X2393Y31D02*
X2400Y31D01*
X0Y30D02*
X7Y30D01*
X2393Y30D02*
X2400Y30D01*
X0Y29D02*
X7Y29D01*
X2393Y29D02*
X2400Y29D01*
X0Y28D02*
X7Y28D01*
X2393Y28D02*
X2400Y28D01*
X0Y27D02*
X7Y27D01*
X2393Y27D02*
X2400Y27D01*
X0Y26D02*
X7Y26D01*
X2393Y26D02*
X2400Y26D01*
X0Y25D02*
X7Y25D01*
X2393Y25D02*
X2400Y25D01*
X0Y24D02*
X7Y24D01*
X2393Y24D02*
X2400Y24D01*
X0Y23D02*
X7Y23D01*
X2393Y23D02*
X2400Y23D01*
X0Y22D02*
X7Y22D01*
X2393Y22D02*
X2400Y22D01*
X0Y21D02*
X7Y21D01*
X2393Y21D02*
X2400Y21D01*
X0Y20D02*
X7Y20D01*
X2393Y20D02*
X2400Y20D01*
X0Y19D02*
X7Y19D01*
X2393Y19D02*
X2400Y19D01*
X0Y18D02*
X7Y18D01*
X2393Y18D02*
X2400Y18D01*
X0Y17D02*
X7Y17D01*
X2393Y17D02*
X2400Y17D01*
X0Y16D02*
X7Y16D01*
X2393Y16D02*
X2400Y16D01*
X0Y15D02*
X7Y15D01*
X2393Y15D02*
X2400Y15D01*
X0Y14D02*
X7Y14D01*
X2393Y14D02*
X2400Y14D01*
X0Y13D02*
X7Y13D01*
X2393Y13D02*
X2400Y13D01*
X0Y12D02*
X7Y12D01*
X2393Y12D02*
X2400Y12D01*
X0Y11D02*
X7Y11D01*
X2393Y11D02*
X2400Y11D01*
X0Y10D02*
X7Y10D01*
X2393Y10D02*
X2400Y10D01*
X0Y9D02*
X7Y9D01*
X2393Y9D02*
X2400Y9D01*
X0Y8D02*
X2400Y8D01*
X0Y7D02*
X2400Y7D01*
X0Y6D02*
X2400Y6D01*
X0Y5D02*
X2400Y5D01*
X0Y4D02*
X2400Y4D01*
X0Y3D02*
X2400Y3D01*
X0Y2D02*
X2400Y2D01*
X0Y1D02*
X2400Y1D01*
D02*
G04 End of Silk0*
M02*