G04 MADE WITH FRITZING*
G04 WWW.FRITZING.ORG*
G04 DOUBLE SIDED*
G04 HOLES PLATED*
G04 CONTOUR ON CENTER OF CONTOUR VECTOR*
%ASAXBY*%
%FSLAX23Y23*%
%MOIN*%
%OFA0B0*%
%SFA1.0B1.0*%
%ADD10C,0.049370*%
%ADD11C,0.092000*%
%ADD12C,0.088000*%
%ADD13C,0.038000*%
%ADD14C,0.042000*%
%ADD15R,0.092000X0.092000*%
%ADD16R,0.001000X0.001000*%
%LNMASK0*%
G90*
G70*
G54D10*
X1838Y360D03*
X2238Y360D03*
X1438Y160D03*
X1038Y160D03*
X638Y360D03*
X238Y360D03*
X238Y60D03*
X2038Y60D03*
G54D11*
X338Y260D03*
X238Y260D03*
X138Y260D03*
X738Y260D03*
X638Y260D03*
X538Y260D03*
X1138Y260D03*
X1038Y260D03*
X938Y260D03*
X2338Y260D03*
X2238Y260D03*
X2138Y260D03*
X1938Y260D03*
X1838Y260D03*
X1738Y260D03*
X1538Y260D03*
X1438Y260D03*
X1338Y260D03*
G54D12*
X238Y860D03*
X238Y760D03*
X238Y660D03*
X338Y60D03*
X438Y60D03*
X538Y60D03*
X638Y60D03*
X1638Y60D03*
X1738Y60D03*
X1838Y60D03*
X1938Y60D03*
G54D13*
X38Y1060D03*
G54D12*
X138Y1060D03*
G54D14*
X38Y1160D03*
G54D11*
X138Y1160D03*
X238Y1160D03*
G54D10*
X38Y960D03*
X338Y660D03*
X1038Y1060D03*
X838Y1060D03*
X338Y760D03*
G54D15*
X338Y260D03*
X738Y260D03*
X1138Y260D03*
X2338Y260D03*
X1938Y260D03*
X1538Y260D03*
G54D16*
X0Y1206D02*
X83Y1206D01*
X0Y1205D02*
X83Y1205D01*
X0Y1204D02*
X83Y1204D01*
X0Y1203D02*
X83Y1203D01*
X0Y1202D02*
X83Y1202D01*
X0Y1201D02*
X83Y1201D01*
X0Y1200D02*
X83Y1200D01*
X0Y1199D02*
X83Y1199D01*
X534Y1199D02*
X541Y1199D01*
X634Y1199D02*
X641Y1199D01*
X734Y1199D02*
X741Y1199D01*
X834Y1199D02*
X841Y1199D01*
X933Y1199D02*
X941Y1199D01*
X1033Y1199D02*
X1041Y1199D01*
X1133Y1199D02*
X1141Y1199D01*
X1233Y1199D02*
X1241Y1199D01*
X1333Y1199D02*
X1341Y1199D01*
X1433Y1199D02*
X1441Y1199D01*
X1533Y1199D02*
X1541Y1199D01*
X1633Y1199D02*
X1641Y1199D01*
X0Y1198D02*
X83Y1198D01*
X529Y1198D02*
X546Y1198D01*
X629Y1198D02*
X646Y1198D01*
X729Y1198D02*
X746Y1198D01*
X829Y1198D02*
X846Y1198D01*
X929Y1198D02*
X946Y1198D01*
X1029Y1198D02*
X1046Y1198D01*
X1129Y1198D02*
X1146Y1198D01*
X1229Y1198D02*
X1246Y1198D01*
X1329Y1198D02*
X1346Y1198D01*
X1429Y1198D02*
X1446Y1198D01*
X1529Y1198D02*
X1546Y1198D01*
X1629Y1198D02*
X1646Y1198D01*
X0Y1197D02*
X83Y1197D01*
X526Y1197D02*
X549Y1197D01*
X626Y1197D02*
X649Y1197D01*
X726Y1197D02*
X749Y1197D01*
X826Y1197D02*
X849Y1197D01*
X926Y1197D02*
X949Y1197D01*
X1026Y1197D02*
X1049Y1197D01*
X1126Y1197D02*
X1149Y1197D01*
X1226Y1197D02*
X1249Y1197D01*
X1326Y1197D02*
X1349Y1197D01*
X1426Y1197D02*
X1449Y1197D01*
X1526Y1197D02*
X1549Y1197D01*
X1626Y1197D02*
X1649Y1197D01*
X0Y1196D02*
X83Y1196D01*
X523Y1196D02*
X552Y1196D01*
X623Y1196D02*
X652Y1196D01*
X723Y1196D02*
X752Y1196D01*
X823Y1196D02*
X852Y1196D01*
X923Y1196D02*
X952Y1196D01*
X1023Y1196D02*
X1052Y1196D01*
X1123Y1196D02*
X1152Y1196D01*
X1223Y1196D02*
X1252Y1196D01*
X1323Y1196D02*
X1352Y1196D01*
X1423Y1196D02*
X1452Y1196D01*
X1523Y1196D02*
X1552Y1196D01*
X1623Y1196D02*
X1652Y1196D01*
X0Y1195D02*
X83Y1195D01*
X521Y1195D02*
X554Y1195D01*
X621Y1195D02*
X654Y1195D01*
X721Y1195D02*
X754Y1195D01*
X821Y1195D02*
X854Y1195D01*
X921Y1195D02*
X954Y1195D01*
X1021Y1195D02*
X1054Y1195D01*
X1121Y1195D02*
X1154Y1195D01*
X1221Y1195D02*
X1254Y1195D01*
X1321Y1195D02*
X1354Y1195D01*
X1421Y1195D02*
X1454Y1195D01*
X1521Y1195D02*
X1554Y1195D01*
X1621Y1195D02*
X1654Y1195D01*
X0Y1194D02*
X83Y1194D01*
X520Y1194D02*
X556Y1194D01*
X620Y1194D02*
X656Y1194D01*
X720Y1194D02*
X756Y1194D01*
X820Y1194D02*
X856Y1194D01*
X920Y1194D02*
X956Y1194D01*
X1020Y1194D02*
X1056Y1194D01*
X1120Y1194D02*
X1155Y1194D01*
X1219Y1194D02*
X1255Y1194D01*
X1319Y1194D02*
X1355Y1194D01*
X1419Y1194D02*
X1455Y1194D01*
X1519Y1194D02*
X1555Y1194D01*
X1619Y1194D02*
X1655Y1194D01*
X0Y1193D02*
X83Y1193D01*
X518Y1193D02*
X557Y1193D01*
X618Y1193D02*
X657Y1193D01*
X718Y1193D02*
X757Y1193D01*
X818Y1193D02*
X857Y1193D01*
X918Y1193D02*
X957Y1193D01*
X1018Y1193D02*
X1057Y1193D01*
X1118Y1193D02*
X1157Y1193D01*
X1218Y1193D02*
X1257Y1193D01*
X1318Y1193D02*
X1357Y1193D01*
X1418Y1193D02*
X1457Y1193D01*
X1518Y1193D02*
X1557Y1193D01*
X1618Y1193D02*
X1657Y1193D01*
X0Y1192D02*
X83Y1192D01*
X517Y1192D02*
X559Y1192D01*
X617Y1192D02*
X659Y1192D01*
X717Y1192D02*
X759Y1192D01*
X817Y1192D02*
X859Y1192D01*
X916Y1192D02*
X959Y1192D01*
X1016Y1192D02*
X1059Y1192D01*
X1116Y1192D02*
X1159Y1192D01*
X1216Y1192D02*
X1259Y1192D01*
X1316Y1192D02*
X1359Y1192D01*
X1416Y1192D02*
X1458Y1192D01*
X1516Y1192D02*
X1558Y1192D01*
X1616Y1192D02*
X1658Y1192D01*
X0Y1191D02*
X83Y1191D01*
X515Y1191D02*
X560Y1191D01*
X615Y1191D02*
X660Y1191D01*
X715Y1191D02*
X760Y1191D01*
X815Y1191D02*
X860Y1191D01*
X915Y1191D02*
X960Y1191D01*
X1015Y1191D02*
X1060Y1191D01*
X1115Y1191D02*
X1160Y1191D01*
X1215Y1191D02*
X1260Y1191D01*
X1315Y1191D02*
X1360Y1191D01*
X1415Y1191D02*
X1460Y1191D01*
X1515Y1191D02*
X1560Y1191D01*
X1615Y1191D02*
X1660Y1191D01*
X0Y1190D02*
X83Y1190D01*
X514Y1190D02*
X561Y1190D01*
X614Y1190D02*
X661Y1190D01*
X714Y1190D02*
X761Y1190D01*
X814Y1190D02*
X861Y1190D01*
X914Y1190D02*
X961Y1190D01*
X1014Y1190D02*
X1061Y1190D01*
X1114Y1190D02*
X1161Y1190D01*
X1214Y1190D02*
X1261Y1190D01*
X1314Y1190D02*
X1361Y1190D01*
X1414Y1190D02*
X1461Y1190D01*
X1514Y1190D02*
X1561Y1190D01*
X1614Y1190D02*
X1661Y1190D01*
X0Y1189D02*
X83Y1189D01*
X513Y1189D02*
X562Y1189D01*
X613Y1189D02*
X662Y1189D01*
X713Y1189D02*
X762Y1189D01*
X813Y1189D02*
X862Y1189D01*
X913Y1189D02*
X962Y1189D01*
X1013Y1189D02*
X1062Y1189D01*
X1113Y1189D02*
X1162Y1189D01*
X1213Y1189D02*
X1262Y1189D01*
X1313Y1189D02*
X1362Y1189D01*
X1413Y1189D02*
X1462Y1189D01*
X1513Y1189D02*
X1562Y1189D01*
X1613Y1189D02*
X1662Y1189D01*
X0Y1188D02*
X83Y1188D01*
X512Y1188D02*
X563Y1188D01*
X612Y1188D02*
X663Y1188D01*
X712Y1188D02*
X763Y1188D01*
X812Y1188D02*
X863Y1188D01*
X912Y1188D02*
X963Y1188D01*
X1012Y1188D02*
X1063Y1188D01*
X1112Y1188D02*
X1163Y1188D01*
X1212Y1188D02*
X1263Y1188D01*
X1312Y1188D02*
X1363Y1188D01*
X1411Y1188D02*
X1463Y1188D01*
X1511Y1188D02*
X1563Y1188D01*
X1611Y1188D02*
X1663Y1188D01*
X0Y1187D02*
X83Y1187D01*
X511Y1187D02*
X564Y1187D01*
X611Y1187D02*
X664Y1187D01*
X711Y1187D02*
X764Y1187D01*
X811Y1187D02*
X864Y1187D01*
X911Y1187D02*
X964Y1187D01*
X1011Y1187D02*
X1064Y1187D01*
X1111Y1187D02*
X1164Y1187D01*
X1211Y1187D02*
X1264Y1187D01*
X1310Y1187D02*
X1364Y1187D01*
X1410Y1187D02*
X1464Y1187D01*
X1510Y1187D02*
X1564Y1187D01*
X1610Y1187D02*
X1664Y1187D01*
X0Y1186D02*
X83Y1186D01*
X510Y1186D02*
X565Y1186D01*
X610Y1186D02*
X665Y1186D01*
X710Y1186D02*
X765Y1186D01*
X810Y1186D02*
X865Y1186D01*
X910Y1186D02*
X965Y1186D01*
X1010Y1186D02*
X1065Y1186D01*
X1110Y1186D02*
X1165Y1186D01*
X1210Y1186D02*
X1265Y1186D01*
X1310Y1186D02*
X1365Y1186D01*
X1410Y1186D02*
X1465Y1186D01*
X1510Y1186D02*
X1565Y1186D01*
X1609Y1186D02*
X1665Y1186D01*
X0Y1185D02*
X83Y1185D01*
X509Y1185D02*
X566Y1185D01*
X609Y1185D02*
X666Y1185D01*
X709Y1185D02*
X766Y1185D01*
X809Y1185D02*
X866Y1185D01*
X909Y1185D02*
X966Y1185D01*
X1009Y1185D02*
X1066Y1185D01*
X1109Y1185D02*
X1166Y1185D01*
X1209Y1185D02*
X1266Y1185D01*
X1309Y1185D02*
X1366Y1185D01*
X1409Y1185D02*
X1466Y1185D01*
X1509Y1185D02*
X1566Y1185D01*
X1609Y1185D02*
X1666Y1185D01*
X0Y1184D02*
X83Y1184D01*
X508Y1184D02*
X567Y1184D01*
X608Y1184D02*
X667Y1184D01*
X708Y1184D02*
X767Y1184D01*
X808Y1184D02*
X867Y1184D01*
X908Y1184D02*
X967Y1184D01*
X1008Y1184D02*
X1067Y1184D01*
X1108Y1184D02*
X1167Y1184D01*
X1208Y1184D02*
X1267Y1184D01*
X1308Y1184D02*
X1367Y1184D01*
X1408Y1184D02*
X1467Y1184D01*
X1508Y1184D02*
X1567Y1184D01*
X1608Y1184D02*
X1667Y1184D01*
X0Y1183D02*
X83Y1183D01*
X507Y1183D02*
X568Y1183D01*
X607Y1183D02*
X668Y1183D01*
X707Y1183D02*
X768Y1183D01*
X807Y1183D02*
X868Y1183D01*
X907Y1183D02*
X968Y1183D01*
X1007Y1183D02*
X1068Y1183D01*
X1107Y1183D02*
X1168Y1183D01*
X1207Y1183D02*
X1268Y1183D01*
X1307Y1183D02*
X1368Y1183D01*
X1407Y1183D02*
X1468Y1183D01*
X1507Y1183D02*
X1568Y1183D01*
X1607Y1183D02*
X1668Y1183D01*
X0Y1182D02*
X83Y1182D01*
X506Y1182D02*
X569Y1182D01*
X606Y1182D02*
X669Y1182D01*
X706Y1182D02*
X769Y1182D01*
X806Y1182D02*
X869Y1182D01*
X906Y1182D02*
X969Y1182D01*
X1006Y1182D02*
X1069Y1182D01*
X1106Y1182D02*
X1169Y1182D01*
X1206Y1182D02*
X1269Y1182D01*
X1306Y1182D02*
X1368Y1182D01*
X1406Y1182D02*
X1468Y1182D01*
X1506Y1182D02*
X1568Y1182D01*
X1606Y1182D02*
X1668Y1182D01*
X0Y1181D02*
X83Y1181D01*
X506Y1181D02*
X569Y1181D01*
X606Y1181D02*
X669Y1181D01*
X706Y1181D02*
X769Y1181D01*
X806Y1181D02*
X869Y1181D01*
X906Y1181D02*
X969Y1181D01*
X1006Y1181D02*
X1069Y1181D01*
X1106Y1181D02*
X1169Y1181D01*
X1206Y1181D02*
X1269Y1181D01*
X1306Y1181D02*
X1369Y1181D01*
X1406Y1181D02*
X1469Y1181D01*
X1505Y1181D02*
X1569Y1181D01*
X1605Y1181D02*
X1669Y1181D01*
X0Y1180D02*
X83Y1180D01*
X505Y1180D02*
X570Y1180D01*
X605Y1180D02*
X670Y1180D01*
X705Y1180D02*
X770Y1180D01*
X805Y1180D02*
X870Y1180D01*
X905Y1180D02*
X970Y1180D01*
X1005Y1180D02*
X1070Y1180D01*
X1105Y1180D02*
X1170Y1180D01*
X1205Y1180D02*
X1270Y1180D01*
X1305Y1180D02*
X1370Y1180D01*
X1405Y1180D02*
X1470Y1180D01*
X1505Y1180D02*
X1570Y1180D01*
X1605Y1180D02*
X1670Y1180D01*
X0Y1179D02*
X83Y1179D01*
X504Y1179D02*
X571Y1179D01*
X604Y1179D02*
X671Y1179D01*
X704Y1179D02*
X771Y1179D01*
X804Y1179D02*
X871Y1179D01*
X904Y1179D02*
X971Y1179D01*
X1004Y1179D02*
X1070Y1179D01*
X1104Y1179D02*
X1170Y1179D01*
X1204Y1179D02*
X1270Y1179D01*
X1304Y1179D02*
X1370Y1179D01*
X1404Y1179D02*
X1470Y1179D01*
X1504Y1179D02*
X1570Y1179D01*
X1604Y1179D02*
X1670Y1179D01*
X0Y1178D02*
X83Y1178D01*
X504Y1178D02*
X571Y1178D01*
X604Y1178D02*
X671Y1178D01*
X704Y1178D02*
X771Y1178D01*
X804Y1178D02*
X871Y1178D01*
X904Y1178D02*
X971Y1178D01*
X1004Y1178D02*
X1071Y1178D01*
X1104Y1178D02*
X1171Y1178D01*
X1204Y1178D02*
X1271Y1178D01*
X1304Y1178D02*
X1371Y1178D01*
X1404Y1178D02*
X1471Y1178D01*
X1504Y1178D02*
X1571Y1178D01*
X1604Y1178D02*
X1671Y1178D01*
X0Y1177D02*
X83Y1177D01*
X503Y1177D02*
X572Y1177D01*
X603Y1177D02*
X672Y1177D01*
X703Y1177D02*
X772Y1177D01*
X803Y1177D02*
X872Y1177D01*
X903Y1177D02*
X972Y1177D01*
X1003Y1177D02*
X1072Y1177D01*
X1103Y1177D02*
X1172Y1177D01*
X1203Y1177D02*
X1272Y1177D01*
X1303Y1177D02*
X1372Y1177D01*
X1403Y1177D02*
X1471Y1177D01*
X1503Y1177D02*
X1571Y1177D01*
X1603Y1177D02*
X1671Y1177D01*
X0Y1176D02*
X83Y1176D01*
X503Y1176D02*
X572Y1176D01*
X603Y1176D02*
X672Y1176D01*
X703Y1176D02*
X772Y1176D01*
X803Y1176D02*
X872Y1176D01*
X903Y1176D02*
X972Y1176D01*
X1003Y1176D02*
X1072Y1176D01*
X1103Y1176D02*
X1172Y1176D01*
X1203Y1176D02*
X1272Y1176D01*
X1303Y1176D02*
X1372Y1176D01*
X1403Y1176D02*
X1472Y1176D01*
X1503Y1176D02*
X1572Y1176D01*
X1603Y1176D02*
X1672Y1176D01*
X0Y1175D02*
X83Y1175D01*
X502Y1175D02*
X573Y1175D01*
X602Y1175D02*
X673Y1175D01*
X702Y1175D02*
X773Y1175D01*
X802Y1175D02*
X873Y1175D01*
X902Y1175D02*
X973Y1175D01*
X1002Y1175D02*
X1073Y1175D01*
X1102Y1175D02*
X1173Y1175D01*
X1202Y1175D02*
X1273Y1175D01*
X1302Y1175D02*
X1372Y1175D01*
X1402Y1175D02*
X1472Y1175D01*
X1502Y1175D02*
X1572Y1175D01*
X1602Y1175D02*
X1672Y1175D01*
X0Y1174D02*
X83Y1174D01*
X502Y1174D02*
X573Y1174D01*
X602Y1174D02*
X673Y1174D01*
X702Y1174D02*
X773Y1174D01*
X802Y1174D02*
X873Y1174D01*
X902Y1174D02*
X973Y1174D01*
X1002Y1174D02*
X1073Y1174D01*
X1102Y1174D02*
X1173Y1174D01*
X1202Y1174D02*
X1273Y1174D01*
X1302Y1174D02*
X1373Y1174D01*
X1402Y1174D02*
X1473Y1174D01*
X1502Y1174D02*
X1573Y1174D01*
X1602Y1174D02*
X1673Y1174D01*
X0Y1173D02*
X83Y1173D01*
X501Y1173D02*
X573Y1173D01*
X601Y1173D02*
X673Y1173D01*
X701Y1173D02*
X773Y1173D01*
X801Y1173D02*
X873Y1173D01*
X901Y1173D02*
X973Y1173D01*
X1001Y1173D02*
X1073Y1173D01*
X1101Y1173D02*
X1173Y1173D01*
X1201Y1173D02*
X1273Y1173D01*
X1301Y1173D02*
X1373Y1173D01*
X1401Y1173D02*
X1473Y1173D01*
X1501Y1173D02*
X1573Y1173D01*
X1601Y1173D02*
X1673Y1173D01*
X0Y1172D02*
X83Y1172D01*
X501Y1172D02*
X574Y1172D01*
X601Y1172D02*
X674Y1172D01*
X701Y1172D02*
X774Y1172D01*
X801Y1172D02*
X874Y1172D01*
X901Y1172D02*
X974Y1172D01*
X1001Y1172D02*
X1074Y1172D01*
X1101Y1172D02*
X1174Y1172D01*
X1201Y1172D02*
X1274Y1172D01*
X1301Y1172D02*
X1374Y1172D01*
X1401Y1172D02*
X1474Y1172D01*
X1501Y1172D02*
X1574Y1172D01*
X1601Y1172D02*
X1674Y1172D01*
X0Y1171D02*
X83Y1171D01*
X501Y1171D02*
X574Y1171D01*
X601Y1171D02*
X674Y1171D01*
X701Y1171D02*
X774Y1171D01*
X801Y1171D02*
X874Y1171D01*
X901Y1171D02*
X974Y1171D01*
X1001Y1171D02*
X1074Y1171D01*
X1101Y1171D02*
X1174Y1171D01*
X1201Y1171D02*
X1274Y1171D01*
X1301Y1171D02*
X1374Y1171D01*
X1400Y1171D02*
X1474Y1171D01*
X1500Y1171D02*
X1574Y1171D01*
X1600Y1171D02*
X1674Y1171D01*
X0Y1170D02*
X83Y1170D01*
X500Y1170D02*
X574Y1170D01*
X600Y1170D02*
X674Y1170D01*
X700Y1170D02*
X774Y1170D01*
X800Y1170D02*
X874Y1170D01*
X900Y1170D02*
X974Y1170D01*
X1000Y1170D02*
X1074Y1170D01*
X1100Y1170D02*
X1174Y1170D01*
X1200Y1170D02*
X1274Y1170D01*
X1300Y1170D02*
X1374Y1170D01*
X1400Y1170D02*
X1474Y1170D01*
X1500Y1170D02*
X1574Y1170D01*
X1600Y1170D02*
X1674Y1170D01*
X0Y1169D02*
X83Y1169D01*
X500Y1169D02*
X575Y1169D01*
X600Y1169D02*
X675Y1169D01*
X700Y1169D02*
X775Y1169D01*
X800Y1169D02*
X875Y1169D01*
X900Y1169D02*
X975Y1169D01*
X1000Y1169D02*
X1075Y1169D01*
X1100Y1169D02*
X1175Y1169D01*
X1200Y1169D02*
X1275Y1169D01*
X1300Y1169D02*
X1375Y1169D01*
X1400Y1169D02*
X1475Y1169D01*
X1500Y1169D02*
X1575Y1169D01*
X1600Y1169D02*
X1674Y1169D01*
X0Y1168D02*
X83Y1168D01*
X500Y1168D02*
X575Y1168D01*
X600Y1168D02*
X675Y1168D01*
X700Y1168D02*
X775Y1168D01*
X800Y1168D02*
X875Y1168D01*
X900Y1168D02*
X975Y1168D01*
X1000Y1168D02*
X1075Y1168D01*
X1100Y1168D02*
X1175Y1168D01*
X1200Y1168D02*
X1275Y1168D01*
X1300Y1168D02*
X1375Y1168D01*
X1400Y1168D02*
X1475Y1168D01*
X1500Y1168D02*
X1575Y1168D01*
X1600Y1168D02*
X1675Y1168D01*
X0Y1167D02*
X83Y1167D01*
X500Y1167D02*
X575Y1167D01*
X600Y1167D02*
X675Y1167D01*
X700Y1167D02*
X775Y1167D01*
X800Y1167D02*
X875Y1167D01*
X900Y1167D02*
X975Y1167D01*
X1000Y1167D02*
X1075Y1167D01*
X1099Y1167D02*
X1175Y1167D01*
X1199Y1167D02*
X1275Y1167D01*
X1299Y1167D02*
X1375Y1167D01*
X1399Y1167D02*
X1475Y1167D01*
X1499Y1167D02*
X1575Y1167D01*
X1599Y1167D02*
X1675Y1167D01*
X0Y1166D02*
X83Y1166D01*
X499Y1166D02*
X575Y1166D01*
X599Y1166D02*
X675Y1166D01*
X699Y1166D02*
X775Y1166D01*
X799Y1166D02*
X875Y1166D01*
X899Y1166D02*
X975Y1166D01*
X999Y1166D02*
X1075Y1166D01*
X1099Y1166D02*
X1175Y1166D01*
X1199Y1166D02*
X1275Y1166D01*
X1299Y1166D02*
X1375Y1166D01*
X1399Y1166D02*
X1475Y1166D01*
X1499Y1166D02*
X1575Y1166D01*
X1599Y1166D02*
X1675Y1166D01*
X0Y1165D02*
X83Y1165D01*
X499Y1165D02*
X576Y1165D01*
X599Y1165D02*
X676Y1165D01*
X699Y1165D02*
X776Y1165D01*
X799Y1165D02*
X875Y1165D01*
X899Y1165D02*
X975Y1165D01*
X999Y1165D02*
X1075Y1165D01*
X1099Y1165D02*
X1175Y1165D01*
X1199Y1165D02*
X1275Y1165D01*
X1299Y1165D02*
X1375Y1165D01*
X1399Y1165D02*
X1475Y1165D01*
X1499Y1165D02*
X1575Y1165D01*
X1599Y1165D02*
X1675Y1165D01*
X0Y1164D02*
X83Y1164D01*
X499Y1164D02*
X576Y1164D01*
X599Y1164D02*
X676Y1164D01*
X699Y1164D02*
X776Y1164D01*
X799Y1164D02*
X876Y1164D01*
X899Y1164D02*
X976Y1164D01*
X999Y1164D02*
X1076Y1164D01*
X1099Y1164D02*
X1176Y1164D01*
X1199Y1164D02*
X1276Y1164D01*
X1299Y1164D02*
X1376Y1164D01*
X1399Y1164D02*
X1475Y1164D01*
X1499Y1164D02*
X1575Y1164D01*
X1599Y1164D02*
X1675Y1164D01*
X0Y1163D02*
X83Y1163D01*
X499Y1163D02*
X576Y1163D01*
X599Y1163D02*
X676Y1163D01*
X699Y1163D02*
X776Y1163D01*
X799Y1163D02*
X876Y1163D01*
X899Y1163D02*
X976Y1163D01*
X999Y1163D02*
X1076Y1163D01*
X1099Y1163D02*
X1176Y1163D01*
X1199Y1163D02*
X1276Y1163D01*
X1299Y1163D02*
X1376Y1163D01*
X1399Y1163D02*
X1476Y1163D01*
X1499Y1163D02*
X1576Y1163D01*
X1599Y1163D02*
X1675Y1163D01*
X0Y1162D02*
X83Y1162D01*
X499Y1162D02*
X576Y1162D01*
X599Y1162D02*
X676Y1162D01*
X699Y1162D02*
X776Y1162D01*
X799Y1162D02*
X876Y1162D01*
X899Y1162D02*
X976Y1162D01*
X999Y1162D02*
X1076Y1162D01*
X1099Y1162D02*
X1176Y1162D01*
X1199Y1162D02*
X1276Y1162D01*
X1299Y1162D02*
X1376Y1162D01*
X1399Y1162D02*
X1476Y1162D01*
X1499Y1162D02*
X1576Y1162D01*
X1599Y1162D02*
X1676Y1162D01*
X0Y1161D02*
X83Y1161D01*
X499Y1161D02*
X576Y1161D01*
X599Y1161D02*
X676Y1161D01*
X699Y1161D02*
X776Y1161D01*
X799Y1161D02*
X876Y1161D01*
X899Y1161D02*
X976Y1161D01*
X999Y1161D02*
X1076Y1161D01*
X1099Y1161D02*
X1176Y1161D01*
X1199Y1161D02*
X1276Y1161D01*
X1299Y1161D02*
X1376Y1161D01*
X1399Y1161D02*
X1476Y1161D01*
X1499Y1161D02*
X1576Y1161D01*
X1599Y1161D02*
X1676Y1161D01*
X0Y1160D02*
X83Y1160D01*
X499Y1160D02*
X576Y1160D01*
X599Y1160D02*
X676Y1160D01*
X699Y1160D02*
X776Y1160D01*
X799Y1160D02*
X876Y1160D01*
X899Y1160D02*
X976Y1160D01*
X999Y1160D02*
X1076Y1160D01*
X1099Y1160D02*
X1176Y1160D01*
X1199Y1160D02*
X1276Y1160D01*
X1299Y1160D02*
X1376Y1160D01*
X1399Y1160D02*
X1476Y1160D01*
X1499Y1160D02*
X1576Y1160D01*
X1599Y1160D02*
X1676Y1160D01*
X0Y1159D02*
X83Y1159D01*
X499Y1159D02*
X576Y1159D01*
X599Y1159D02*
X676Y1159D01*
X699Y1159D02*
X776Y1159D01*
X799Y1159D02*
X876Y1159D01*
X899Y1159D02*
X976Y1159D01*
X999Y1159D02*
X1076Y1159D01*
X1099Y1159D02*
X1176Y1159D01*
X1199Y1159D02*
X1276Y1159D01*
X1299Y1159D02*
X1376Y1159D01*
X1399Y1159D02*
X1476Y1159D01*
X1499Y1159D02*
X1576Y1159D01*
X1599Y1159D02*
X1676Y1159D01*
X0Y1158D02*
X83Y1158D01*
X499Y1158D02*
X576Y1158D01*
X599Y1158D02*
X676Y1158D01*
X699Y1158D02*
X776Y1158D01*
X799Y1158D02*
X876Y1158D01*
X899Y1158D02*
X976Y1158D01*
X999Y1158D02*
X1076Y1158D01*
X1099Y1158D02*
X1176Y1158D01*
X1199Y1158D02*
X1276Y1158D01*
X1299Y1158D02*
X1376Y1158D01*
X1399Y1158D02*
X1476Y1158D01*
X1499Y1158D02*
X1576Y1158D01*
X1599Y1158D02*
X1676Y1158D01*
X0Y1157D02*
X83Y1157D01*
X499Y1157D02*
X576Y1157D01*
X599Y1157D02*
X676Y1157D01*
X699Y1157D02*
X776Y1157D01*
X799Y1157D02*
X876Y1157D01*
X899Y1157D02*
X976Y1157D01*
X999Y1157D02*
X1076Y1157D01*
X1099Y1157D02*
X1176Y1157D01*
X1199Y1157D02*
X1276Y1157D01*
X1299Y1157D02*
X1376Y1157D01*
X1399Y1157D02*
X1475Y1157D01*
X1499Y1157D02*
X1575Y1157D01*
X1599Y1157D02*
X1675Y1157D01*
X0Y1156D02*
X83Y1156D01*
X499Y1156D02*
X576Y1156D01*
X599Y1156D02*
X676Y1156D01*
X699Y1156D02*
X776Y1156D01*
X799Y1156D02*
X875Y1156D01*
X899Y1156D02*
X975Y1156D01*
X999Y1156D02*
X1075Y1156D01*
X1099Y1156D02*
X1175Y1156D01*
X1199Y1156D02*
X1275Y1156D01*
X1299Y1156D02*
X1375Y1156D01*
X1399Y1156D02*
X1475Y1156D01*
X1499Y1156D02*
X1575Y1156D01*
X1599Y1156D02*
X1675Y1156D01*
X0Y1155D02*
X83Y1155D01*
X499Y1155D02*
X575Y1155D01*
X599Y1155D02*
X675Y1155D01*
X699Y1155D02*
X775Y1155D01*
X799Y1155D02*
X875Y1155D01*
X899Y1155D02*
X975Y1155D01*
X999Y1155D02*
X1075Y1155D01*
X1099Y1155D02*
X1175Y1155D01*
X1199Y1155D02*
X1275Y1155D01*
X1299Y1155D02*
X1375Y1155D01*
X1399Y1155D02*
X1475Y1155D01*
X1499Y1155D02*
X1575Y1155D01*
X1599Y1155D02*
X1675Y1155D01*
X0Y1154D02*
X83Y1154D01*
X500Y1154D02*
X575Y1154D01*
X600Y1154D02*
X675Y1154D01*
X700Y1154D02*
X775Y1154D01*
X800Y1154D02*
X875Y1154D01*
X900Y1154D02*
X975Y1154D01*
X1000Y1154D02*
X1075Y1154D01*
X1099Y1154D02*
X1175Y1154D01*
X1199Y1154D02*
X1275Y1154D01*
X1299Y1154D02*
X1375Y1154D01*
X1399Y1154D02*
X1475Y1154D01*
X1499Y1154D02*
X1575Y1154D01*
X1599Y1154D02*
X1675Y1154D01*
X0Y1153D02*
X83Y1153D01*
X500Y1153D02*
X575Y1153D01*
X600Y1153D02*
X675Y1153D01*
X700Y1153D02*
X775Y1153D01*
X800Y1153D02*
X875Y1153D01*
X900Y1153D02*
X975Y1153D01*
X1000Y1153D02*
X1075Y1153D01*
X1100Y1153D02*
X1175Y1153D01*
X1200Y1153D02*
X1275Y1153D01*
X1300Y1153D02*
X1375Y1153D01*
X1400Y1153D02*
X1475Y1153D01*
X1500Y1153D02*
X1575Y1153D01*
X1600Y1153D02*
X1675Y1153D01*
X0Y1152D02*
X83Y1152D01*
X500Y1152D02*
X575Y1152D01*
X600Y1152D02*
X675Y1152D01*
X700Y1152D02*
X775Y1152D01*
X800Y1152D02*
X875Y1152D01*
X900Y1152D02*
X975Y1152D01*
X1000Y1152D02*
X1075Y1152D01*
X1100Y1152D02*
X1175Y1152D01*
X1200Y1152D02*
X1275Y1152D01*
X1300Y1152D02*
X1375Y1152D01*
X1400Y1152D02*
X1475Y1152D01*
X1500Y1152D02*
X1575Y1152D01*
X1600Y1152D02*
X1674Y1152D01*
X0Y1151D02*
X83Y1151D01*
X500Y1151D02*
X574Y1151D01*
X600Y1151D02*
X674Y1151D01*
X700Y1151D02*
X774Y1151D01*
X800Y1151D02*
X874Y1151D01*
X900Y1151D02*
X974Y1151D01*
X1000Y1151D02*
X1074Y1151D01*
X1100Y1151D02*
X1174Y1151D01*
X1200Y1151D02*
X1274Y1151D01*
X1300Y1151D02*
X1374Y1151D01*
X1400Y1151D02*
X1474Y1151D01*
X1500Y1151D02*
X1574Y1151D01*
X1600Y1151D02*
X1674Y1151D01*
X0Y1150D02*
X83Y1150D01*
X501Y1150D02*
X574Y1150D01*
X601Y1150D02*
X674Y1150D01*
X701Y1150D02*
X774Y1150D01*
X801Y1150D02*
X874Y1150D01*
X901Y1150D02*
X974Y1150D01*
X1001Y1150D02*
X1074Y1150D01*
X1101Y1150D02*
X1174Y1150D01*
X1201Y1150D02*
X1274Y1150D01*
X1301Y1150D02*
X1374Y1150D01*
X1401Y1150D02*
X1474Y1150D01*
X1500Y1150D02*
X1574Y1150D01*
X1600Y1150D02*
X1674Y1150D01*
X0Y1149D02*
X83Y1149D01*
X501Y1149D02*
X574Y1149D01*
X601Y1149D02*
X674Y1149D01*
X701Y1149D02*
X774Y1149D01*
X801Y1149D02*
X874Y1149D01*
X901Y1149D02*
X974Y1149D01*
X1001Y1149D02*
X1074Y1149D01*
X1101Y1149D02*
X1174Y1149D01*
X1201Y1149D02*
X1274Y1149D01*
X1301Y1149D02*
X1374Y1149D01*
X1401Y1149D02*
X1474Y1149D01*
X1501Y1149D02*
X1574Y1149D01*
X1601Y1149D02*
X1674Y1149D01*
X0Y1148D02*
X83Y1148D01*
X502Y1148D02*
X573Y1148D01*
X601Y1148D02*
X673Y1148D01*
X701Y1148D02*
X773Y1148D01*
X801Y1148D02*
X873Y1148D01*
X901Y1148D02*
X973Y1148D01*
X1001Y1148D02*
X1073Y1148D01*
X1101Y1148D02*
X1173Y1148D01*
X1201Y1148D02*
X1273Y1148D01*
X1301Y1148D02*
X1373Y1148D01*
X1401Y1148D02*
X1473Y1148D01*
X1501Y1148D02*
X1573Y1148D01*
X1601Y1148D02*
X1673Y1148D01*
X0Y1147D02*
X83Y1147D01*
X502Y1147D02*
X573Y1147D01*
X602Y1147D02*
X673Y1147D01*
X702Y1147D02*
X773Y1147D01*
X802Y1147D02*
X873Y1147D01*
X902Y1147D02*
X973Y1147D01*
X1002Y1147D02*
X1073Y1147D01*
X1102Y1147D02*
X1173Y1147D01*
X1202Y1147D02*
X1273Y1147D01*
X1302Y1147D02*
X1373Y1147D01*
X1402Y1147D02*
X1473Y1147D01*
X1502Y1147D02*
X1573Y1147D01*
X1602Y1147D02*
X1673Y1147D01*
X0Y1146D02*
X83Y1146D01*
X502Y1146D02*
X573Y1146D01*
X602Y1146D02*
X673Y1146D01*
X702Y1146D02*
X773Y1146D01*
X802Y1146D02*
X873Y1146D01*
X902Y1146D02*
X973Y1146D01*
X1002Y1146D02*
X1072Y1146D01*
X1102Y1146D02*
X1172Y1146D01*
X1202Y1146D02*
X1272Y1146D01*
X1302Y1146D02*
X1372Y1146D01*
X1402Y1146D02*
X1472Y1146D01*
X1502Y1146D02*
X1572Y1146D01*
X1602Y1146D02*
X1672Y1146D01*
X0Y1145D02*
X83Y1145D01*
X503Y1145D02*
X572Y1145D01*
X603Y1145D02*
X672Y1145D01*
X703Y1145D02*
X772Y1145D01*
X803Y1145D02*
X872Y1145D01*
X903Y1145D02*
X972Y1145D01*
X1003Y1145D02*
X1072Y1145D01*
X1103Y1145D02*
X1172Y1145D01*
X1203Y1145D02*
X1272Y1145D01*
X1303Y1145D02*
X1372Y1145D01*
X1403Y1145D02*
X1472Y1145D01*
X1503Y1145D02*
X1572Y1145D01*
X1603Y1145D02*
X1672Y1145D01*
X0Y1144D02*
X83Y1144D01*
X503Y1144D02*
X572Y1144D01*
X603Y1144D02*
X672Y1144D01*
X703Y1144D02*
X772Y1144D01*
X803Y1144D02*
X872Y1144D01*
X903Y1144D02*
X972Y1144D01*
X1003Y1144D02*
X1071Y1144D01*
X1103Y1144D02*
X1171Y1144D01*
X1203Y1144D02*
X1271Y1144D01*
X1303Y1144D02*
X1371Y1144D01*
X1403Y1144D02*
X1471Y1144D01*
X1503Y1144D02*
X1571Y1144D01*
X1603Y1144D02*
X1671Y1144D01*
X0Y1143D02*
X83Y1143D01*
X504Y1143D02*
X571Y1143D01*
X604Y1143D02*
X671Y1143D01*
X704Y1143D02*
X771Y1143D01*
X804Y1143D02*
X871Y1143D01*
X904Y1143D02*
X971Y1143D01*
X1004Y1143D02*
X1071Y1143D01*
X1104Y1143D02*
X1171Y1143D01*
X1204Y1143D02*
X1271Y1143D01*
X1304Y1143D02*
X1371Y1143D01*
X1404Y1143D02*
X1471Y1143D01*
X1504Y1143D02*
X1571Y1143D01*
X1604Y1143D02*
X1671Y1143D01*
X0Y1142D02*
X83Y1142D01*
X505Y1142D02*
X570Y1142D01*
X605Y1142D02*
X670Y1142D01*
X704Y1142D02*
X770Y1142D01*
X804Y1142D02*
X870Y1142D01*
X904Y1142D02*
X970Y1142D01*
X1004Y1142D02*
X1070Y1142D01*
X1104Y1142D02*
X1170Y1142D01*
X1204Y1142D02*
X1270Y1142D01*
X1304Y1142D02*
X1370Y1142D01*
X1404Y1142D02*
X1470Y1142D01*
X1504Y1142D02*
X1570Y1142D01*
X1604Y1142D02*
X1670Y1142D01*
X0Y1141D02*
X83Y1141D01*
X505Y1141D02*
X570Y1141D01*
X605Y1141D02*
X670Y1141D01*
X705Y1141D02*
X770Y1141D01*
X805Y1141D02*
X870Y1141D01*
X905Y1141D02*
X970Y1141D01*
X1005Y1141D02*
X1070Y1141D01*
X1105Y1141D02*
X1170Y1141D01*
X1205Y1141D02*
X1270Y1141D01*
X1305Y1141D02*
X1370Y1141D01*
X1405Y1141D02*
X1470Y1141D01*
X1505Y1141D02*
X1570Y1141D01*
X1605Y1141D02*
X1670Y1141D01*
X0Y1140D02*
X83Y1140D01*
X506Y1140D02*
X569Y1140D01*
X606Y1140D02*
X669Y1140D01*
X706Y1140D02*
X769Y1140D01*
X806Y1140D02*
X869Y1140D01*
X906Y1140D02*
X969Y1140D01*
X1006Y1140D02*
X1069Y1140D01*
X1106Y1140D02*
X1169Y1140D01*
X1206Y1140D02*
X1269Y1140D01*
X1306Y1140D02*
X1369Y1140D01*
X1406Y1140D02*
X1469Y1140D01*
X1506Y1140D02*
X1569Y1140D01*
X1606Y1140D02*
X1669Y1140D01*
X0Y1139D02*
X83Y1139D01*
X507Y1139D02*
X569Y1139D01*
X607Y1139D02*
X669Y1139D01*
X706Y1139D02*
X769Y1139D01*
X806Y1139D02*
X868Y1139D01*
X906Y1139D02*
X968Y1139D01*
X1006Y1139D02*
X1068Y1139D01*
X1106Y1139D02*
X1168Y1139D01*
X1206Y1139D02*
X1268Y1139D01*
X1306Y1139D02*
X1368Y1139D01*
X1406Y1139D02*
X1468Y1139D01*
X1506Y1139D02*
X1568Y1139D01*
X1606Y1139D02*
X1668Y1139D01*
X0Y1138D02*
X83Y1138D01*
X507Y1138D02*
X568Y1138D01*
X607Y1138D02*
X668Y1138D01*
X707Y1138D02*
X768Y1138D01*
X807Y1138D02*
X868Y1138D01*
X907Y1138D02*
X968Y1138D01*
X1007Y1138D02*
X1068Y1138D01*
X1107Y1138D02*
X1168Y1138D01*
X1207Y1138D02*
X1268Y1138D01*
X1307Y1138D02*
X1368Y1138D01*
X1407Y1138D02*
X1468Y1138D01*
X1507Y1138D02*
X1568Y1138D01*
X1607Y1138D02*
X1668Y1138D01*
X0Y1137D02*
X83Y1137D01*
X508Y1137D02*
X567Y1137D01*
X608Y1137D02*
X667Y1137D01*
X708Y1137D02*
X767Y1137D01*
X808Y1137D02*
X867Y1137D01*
X908Y1137D02*
X967Y1137D01*
X1008Y1137D02*
X1067Y1137D01*
X1108Y1137D02*
X1167Y1137D01*
X1208Y1137D02*
X1267Y1137D01*
X1308Y1137D02*
X1367Y1137D01*
X1408Y1137D02*
X1467Y1137D01*
X1508Y1137D02*
X1567Y1137D01*
X1608Y1137D02*
X1667Y1137D01*
X0Y1136D02*
X83Y1136D01*
X509Y1136D02*
X566Y1136D01*
X609Y1136D02*
X666Y1136D01*
X709Y1136D02*
X766Y1136D01*
X809Y1136D02*
X866Y1136D01*
X909Y1136D02*
X966Y1136D01*
X1009Y1136D02*
X1066Y1136D01*
X1109Y1136D02*
X1166Y1136D01*
X1209Y1136D02*
X1266Y1136D01*
X1309Y1136D02*
X1366Y1136D01*
X1409Y1136D02*
X1466Y1136D01*
X1509Y1136D02*
X1566Y1136D01*
X1609Y1136D02*
X1666Y1136D01*
X0Y1135D02*
X83Y1135D01*
X510Y1135D02*
X565Y1135D01*
X610Y1135D02*
X665Y1135D01*
X710Y1135D02*
X765Y1135D01*
X810Y1135D02*
X865Y1135D01*
X910Y1135D02*
X965Y1135D01*
X1010Y1135D02*
X1065Y1135D01*
X1110Y1135D02*
X1165Y1135D01*
X1210Y1135D02*
X1265Y1135D01*
X1310Y1135D02*
X1365Y1135D01*
X1410Y1135D02*
X1465Y1135D01*
X1510Y1135D02*
X1565Y1135D01*
X1610Y1135D02*
X1665Y1135D01*
X0Y1134D02*
X83Y1134D01*
X511Y1134D02*
X564Y1134D01*
X611Y1134D02*
X664Y1134D01*
X711Y1134D02*
X764Y1134D01*
X811Y1134D02*
X864Y1134D01*
X911Y1134D02*
X964Y1134D01*
X1011Y1134D02*
X1064Y1134D01*
X1111Y1134D02*
X1164Y1134D01*
X1211Y1134D02*
X1264Y1134D01*
X1311Y1134D02*
X1364Y1134D01*
X1411Y1134D02*
X1464Y1134D01*
X1511Y1134D02*
X1564Y1134D01*
X1611Y1134D02*
X1664Y1134D01*
X0Y1133D02*
X83Y1133D01*
X512Y1133D02*
X563Y1133D01*
X612Y1133D02*
X663Y1133D01*
X712Y1133D02*
X763Y1133D01*
X812Y1133D02*
X863Y1133D01*
X912Y1133D02*
X963Y1133D01*
X1012Y1133D02*
X1063Y1133D01*
X1112Y1133D02*
X1163Y1133D01*
X1212Y1133D02*
X1263Y1133D01*
X1312Y1133D02*
X1363Y1133D01*
X1412Y1133D02*
X1463Y1133D01*
X1512Y1133D02*
X1563Y1133D01*
X1612Y1133D02*
X1663Y1133D01*
X0Y1132D02*
X83Y1132D01*
X513Y1132D02*
X562Y1132D01*
X613Y1132D02*
X662Y1132D01*
X713Y1132D02*
X762Y1132D01*
X813Y1132D02*
X862Y1132D01*
X913Y1132D02*
X962Y1132D01*
X1013Y1132D02*
X1062Y1132D01*
X1113Y1132D02*
X1162Y1132D01*
X1213Y1132D02*
X1262Y1132D01*
X1313Y1132D02*
X1362Y1132D01*
X1413Y1132D02*
X1462Y1132D01*
X1513Y1132D02*
X1562Y1132D01*
X1613Y1132D02*
X1662Y1132D01*
X0Y1131D02*
X83Y1131D01*
X514Y1131D02*
X561Y1131D01*
X614Y1131D02*
X661Y1131D01*
X714Y1131D02*
X761Y1131D01*
X814Y1131D02*
X861Y1131D01*
X914Y1131D02*
X961Y1131D01*
X1014Y1131D02*
X1061Y1131D01*
X1114Y1131D02*
X1161Y1131D01*
X1214Y1131D02*
X1261Y1131D01*
X1314Y1131D02*
X1361Y1131D01*
X1414Y1131D02*
X1461Y1131D01*
X1514Y1131D02*
X1561Y1131D01*
X1614Y1131D02*
X1661Y1131D01*
X0Y1130D02*
X83Y1130D01*
X515Y1130D02*
X560Y1130D01*
X615Y1130D02*
X660Y1130D01*
X715Y1130D02*
X760Y1130D01*
X815Y1130D02*
X860Y1130D01*
X915Y1130D02*
X960Y1130D01*
X1015Y1130D02*
X1060Y1130D01*
X1115Y1130D02*
X1160Y1130D01*
X1215Y1130D02*
X1260Y1130D01*
X1315Y1130D02*
X1360Y1130D01*
X1415Y1130D02*
X1460Y1130D01*
X1515Y1130D02*
X1560Y1130D01*
X1615Y1130D02*
X1660Y1130D01*
X0Y1129D02*
X83Y1129D01*
X517Y1129D02*
X559Y1129D01*
X617Y1129D02*
X659Y1129D01*
X716Y1129D02*
X759Y1129D01*
X816Y1129D02*
X859Y1129D01*
X916Y1129D02*
X959Y1129D01*
X1016Y1129D02*
X1059Y1129D01*
X1116Y1129D02*
X1159Y1129D01*
X1216Y1129D02*
X1259Y1129D01*
X1316Y1129D02*
X1359Y1129D01*
X1416Y1129D02*
X1459Y1129D01*
X1516Y1129D02*
X1559Y1129D01*
X1616Y1129D02*
X1658Y1129D01*
X0Y1128D02*
X83Y1128D01*
X518Y1128D02*
X557Y1128D01*
X618Y1128D02*
X657Y1128D01*
X718Y1128D02*
X757Y1128D01*
X818Y1128D02*
X857Y1128D01*
X918Y1128D02*
X957Y1128D01*
X1018Y1128D02*
X1057Y1128D01*
X1118Y1128D02*
X1157Y1128D01*
X1218Y1128D02*
X1257Y1128D01*
X1318Y1128D02*
X1357Y1128D01*
X1418Y1128D02*
X1457Y1128D01*
X1518Y1128D02*
X1557Y1128D01*
X1618Y1128D02*
X1657Y1128D01*
X0Y1127D02*
X83Y1127D01*
X520Y1127D02*
X556Y1127D01*
X619Y1127D02*
X656Y1127D01*
X719Y1127D02*
X756Y1127D01*
X819Y1127D02*
X856Y1127D01*
X919Y1127D02*
X956Y1127D01*
X1019Y1127D02*
X1056Y1127D01*
X1119Y1127D02*
X1156Y1127D01*
X1219Y1127D02*
X1256Y1127D01*
X1319Y1127D02*
X1356Y1127D01*
X1419Y1127D02*
X1456Y1127D01*
X1519Y1127D02*
X1556Y1127D01*
X1619Y1127D02*
X1656Y1127D01*
X0Y1126D02*
X83Y1126D01*
X521Y1126D02*
X554Y1126D01*
X621Y1126D02*
X654Y1126D01*
X721Y1126D02*
X754Y1126D01*
X821Y1126D02*
X854Y1126D01*
X921Y1126D02*
X954Y1126D01*
X1021Y1126D02*
X1054Y1126D01*
X1121Y1126D02*
X1154Y1126D01*
X1221Y1126D02*
X1254Y1126D01*
X1321Y1126D02*
X1354Y1126D01*
X1421Y1126D02*
X1454Y1126D01*
X1521Y1126D02*
X1554Y1126D01*
X1621Y1126D02*
X1654Y1126D01*
X0Y1125D02*
X83Y1125D01*
X523Y1125D02*
X552Y1125D01*
X623Y1125D02*
X652Y1125D01*
X723Y1125D02*
X752Y1125D01*
X823Y1125D02*
X852Y1125D01*
X923Y1125D02*
X952Y1125D01*
X1023Y1125D02*
X1052Y1125D01*
X1123Y1125D02*
X1152Y1125D01*
X1223Y1125D02*
X1252Y1125D01*
X1323Y1125D02*
X1352Y1125D01*
X1423Y1125D02*
X1452Y1125D01*
X1523Y1125D02*
X1552Y1125D01*
X1623Y1125D02*
X1652Y1125D01*
X0Y1124D02*
X83Y1124D01*
X525Y1124D02*
X550Y1124D01*
X625Y1124D02*
X650Y1124D01*
X725Y1124D02*
X750Y1124D01*
X825Y1124D02*
X850Y1124D01*
X925Y1124D02*
X950Y1124D01*
X1025Y1124D02*
X1050Y1124D01*
X1125Y1124D02*
X1150Y1124D01*
X1225Y1124D02*
X1250Y1124D01*
X1325Y1124D02*
X1350Y1124D01*
X1425Y1124D02*
X1450Y1124D01*
X1525Y1124D02*
X1550Y1124D01*
X1625Y1124D02*
X1650Y1124D01*
X0Y1123D02*
X83Y1123D01*
X528Y1123D02*
X547Y1123D01*
X628Y1123D02*
X647Y1123D01*
X728Y1123D02*
X747Y1123D01*
X828Y1123D02*
X847Y1123D01*
X928Y1123D02*
X947Y1123D01*
X1028Y1123D02*
X1047Y1123D01*
X1128Y1123D02*
X1147Y1123D01*
X1228Y1123D02*
X1247Y1123D01*
X1328Y1123D02*
X1347Y1123D01*
X1428Y1123D02*
X1447Y1123D01*
X1528Y1123D02*
X1547Y1123D01*
X1628Y1123D02*
X1647Y1123D01*
X0Y1122D02*
X83Y1122D01*
X532Y1122D02*
X543Y1122D01*
X632Y1122D02*
X643Y1122D01*
X732Y1122D02*
X743Y1122D01*
X832Y1122D02*
X843Y1122D01*
X932Y1122D02*
X943Y1122D01*
X1032Y1122D02*
X1043Y1122D01*
X1132Y1122D02*
X1143Y1122D01*
X1232Y1122D02*
X1243Y1122D01*
X1332Y1122D02*
X1343Y1122D01*
X1432Y1122D02*
X1443Y1122D01*
X1532Y1122D02*
X1543Y1122D01*
X1632Y1122D02*
X1643Y1122D01*
X0Y1121D02*
X83Y1121D01*
X0Y1120D02*
X83Y1120D01*
X0Y1119D02*
X83Y1119D01*
X0Y1118D02*
X83Y1118D01*
X0Y1117D02*
X83Y1117D01*
X0Y1116D02*
X83Y1116D01*
X0Y1115D02*
X83Y1115D01*
X33Y1104D02*
X42Y1104D01*
X28Y1103D02*
X47Y1103D01*
X25Y1102D02*
X50Y1102D01*
X23Y1101D02*
X52Y1101D01*
X21Y1100D02*
X54Y1100D01*
X19Y1099D02*
X56Y1099D01*
X17Y1098D02*
X58Y1098D01*
X15Y1097D02*
X60Y1097D01*
X14Y1096D02*
X61Y1096D01*
X13Y1095D02*
X62Y1095D01*
X11Y1094D02*
X64Y1094D01*
X10Y1093D02*
X65Y1093D01*
X9Y1092D02*
X66Y1092D01*
X8Y1091D02*
X67Y1091D01*
X7Y1090D02*
X68Y1090D01*
X6Y1089D02*
X69Y1089D01*
X5Y1088D02*
X70Y1088D01*
X4Y1087D02*
X71Y1087D01*
X4Y1086D02*
X71Y1086D01*
X3Y1085D02*
X72Y1085D01*
X2Y1084D02*
X73Y1084D01*
X1Y1083D02*
X74Y1083D01*
X1Y1082D02*
X74Y1082D01*
X0Y1081D02*
X75Y1081D01*
X0Y1080D02*
X76Y1080D01*
X0Y1079D02*
X76Y1079D01*
X0Y1078D02*
X77Y1078D01*
X0Y1077D02*
X77Y1077D01*
X0Y1076D02*
X78Y1076D01*
X0Y1075D02*
X78Y1075D01*
X0Y1074D02*
X78Y1074D01*
X0Y1073D02*
X79Y1073D01*
X0Y1072D02*
X79Y1072D01*
X0Y1071D02*
X79Y1071D01*
X0Y1070D02*
X80Y1070D01*
X0Y1069D02*
X80Y1069D01*
X0Y1068D02*
X80Y1068D01*
X0Y1067D02*
X80Y1067D01*
X0Y1066D02*
X81Y1066D01*
X0Y1065D02*
X81Y1065D01*
X0Y1064D02*
X81Y1064D01*
X0Y1063D02*
X81Y1063D01*
X0Y1062D02*
X81Y1062D01*
X0Y1061D02*
X81Y1061D01*
X0Y1060D02*
X81Y1060D01*
X0Y1059D02*
X81Y1059D01*
X0Y1058D02*
X81Y1058D01*
X0Y1057D02*
X81Y1057D01*
X0Y1056D02*
X81Y1056D01*
X0Y1055D02*
X81Y1055D01*
X0Y1054D02*
X80Y1054D01*
X0Y1053D02*
X80Y1053D01*
X0Y1052D02*
X80Y1052D01*
X0Y1051D02*
X80Y1051D01*
X0Y1050D02*
X79Y1050D01*
X0Y1049D02*
X79Y1049D01*
X0Y1048D02*
X79Y1048D01*
X0Y1047D02*
X78Y1047D01*
X0Y1046D02*
X78Y1046D01*
X0Y1045D02*
X78Y1045D01*
X0Y1044D02*
X77Y1044D01*
X0Y1043D02*
X77Y1043D01*
X0Y1042D02*
X76Y1042D01*
X0Y1041D02*
X76Y1041D01*
X0Y1040D02*
X75Y1040D01*
X1Y1039D02*
X74Y1039D01*
X1Y1038D02*
X74Y1038D01*
X2Y1037D02*
X73Y1037D01*
X3Y1036D02*
X72Y1036D01*
X3Y1035D02*
X72Y1035D01*
X4Y1034D02*
X71Y1034D01*
X5Y1033D02*
X70Y1033D01*
X6Y1032D02*
X69Y1032D01*
X7Y1031D02*
X68Y1031D01*
X8Y1030D02*
X67Y1030D01*
X9Y1029D02*
X66Y1029D01*
X10Y1028D02*
X65Y1028D01*
X11Y1027D02*
X64Y1027D01*
X12Y1026D02*
X63Y1026D01*
X14Y1025D02*
X61Y1025D01*
X15Y1024D02*
X60Y1024D01*
X17Y1023D02*
X58Y1023D01*
X18Y1022D02*
X57Y1022D01*
X20Y1021D02*
X55Y1021D01*
X22Y1020D02*
X53Y1020D01*
X25Y1019D02*
X50Y1019D01*
X28Y1018D02*
X47Y1018D01*
X32Y1017D02*
X43Y1017D01*
X532Y499D02*
X543Y499D01*
X632Y499D02*
X643Y499D01*
X732Y499D02*
X743Y499D01*
X832Y499D02*
X843Y499D01*
X932Y499D02*
X943Y499D01*
X1032Y499D02*
X1043Y499D01*
X1132Y499D02*
X1143Y499D01*
X1232Y499D02*
X1243Y499D01*
X1332Y499D02*
X1343Y499D01*
X1432Y499D02*
X1443Y499D01*
X1532Y499D02*
X1543Y499D01*
X1632Y499D02*
X1643Y499D01*
X528Y498D02*
X547Y498D01*
X628Y498D02*
X647Y498D01*
X728Y498D02*
X747Y498D01*
X828Y498D02*
X847Y498D01*
X928Y498D02*
X947Y498D01*
X1028Y498D02*
X1047Y498D01*
X1128Y498D02*
X1147Y498D01*
X1228Y498D02*
X1247Y498D01*
X1328Y498D02*
X1347Y498D01*
X1428Y498D02*
X1447Y498D01*
X1528Y498D02*
X1547Y498D01*
X1628Y498D02*
X1647Y498D01*
X525Y497D02*
X550Y497D01*
X625Y497D02*
X650Y497D01*
X725Y497D02*
X750Y497D01*
X825Y497D02*
X850Y497D01*
X925Y497D02*
X950Y497D01*
X1025Y497D02*
X1050Y497D01*
X1125Y497D02*
X1150Y497D01*
X1225Y497D02*
X1250Y497D01*
X1325Y497D02*
X1350Y497D01*
X1425Y497D02*
X1450Y497D01*
X1525Y497D02*
X1550Y497D01*
X1625Y497D02*
X1650Y497D01*
X523Y496D02*
X552Y496D01*
X623Y496D02*
X652Y496D01*
X723Y496D02*
X752Y496D01*
X823Y496D02*
X852Y496D01*
X923Y496D02*
X952Y496D01*
X1023Y496D02*
X1052Y496D01*
X1123Y496D02*
X1152Y496D01*
X1223Y496D02*
X1252Y496D01*
X1323Y496D02*
X1352Y496D01*
X1423Y496D02*
X1452Y496D01*
X1523Y496D02*
X1552Y496D01*
X1623Y496D02*
X1652Y496D01*
X521Y495D02*
X554Y495D01*
X621Y495D02*
X654Y495D01*
X721Y495D02*
X754Y495D01*
X821Y495D02*
X854Y495D01*
X921Y495D02*
X954Y495D01*
X1021Y495D02*
X1054Y495D01*
X1121Y495D02*
X1154Y495D01*
X1221Y495D02*
X1254Y495D01*
X1321Y495D02*
X1354Y495D01*
X1421Y495D02*
X1454Y495D01*
X1521Y495D02*
X1554Y495D01*
X1621Y495D02*
X1654Y495D01*
X519Y494D02*
X556Y494D01*
X619Y494D02*
X656Y494D01*
X719Y494D02*
X756Y494D01*
X819Y494D02*
X856Y494D01*
X919Y494D02*
X956Y494D01*
X1019Y494D02*
X1056Y494D01*
X1119Y494D02*
X1156Y494D01*
X1219Y494D02*
X1256Y494D01*
X1319Y494D02*
X1356Y494D01*
X1419Y494D02*
X1456Y494D01*
X1519Y494D02*
X1556Y494D01*
X1619Y494D02*
X1656Y494D01*
X518Y493D02*
X558Y493D01*
X618Y493D02*
X658Y493D01*
X718Y493D02*
X758Y493D01*
X818Y493D02*
X858Y493D01*
X918Y493D02*
X958Y493D01*
X1018Y493D02*
X1058Y493D01*
X1117Y493D02*
X1158Y493D01*
X1217Y493D02*
X1257Y493D01*
X1317Y493D02*
X1357Y493D01*
X1417Y493D02*
X1457Y493D01*
X1517Y493D02*
X1557Y493D01*
X1617Y493D02*
X1657Y493D01*
X516Y492D02*
X559Y492D01*
X616Y492D02*
X659Y492D01*
X716Y492D02*
X759Y492D01*
X816Y492D02*
X859Y492D01*
X916Y492D02*
X959Y492D01*
X1016Y492D02*
X1059Y492D01*
X1116Y492D02*
X1159Y492D01*
X1216Y492D02*
X1259Y492D01*
X1316Y492D02*
X1359Y492D01*
X1416Y492D02*
X1459Y492D01*
X1516Y492D02*
X1559Y492D01*
X1616Y492D02*
X1659Y492D01*
X515Y491D02*
X560Y491D01*
X615Y491D02*
X660Y491D01*
X715Y491D02*
X760Y491D01*
X815Y491D02*
X860Y491D01*
X915Y491D02*
X960Y491D01*
X1015Y491D02*
X1060Y491D01*
X1115Y491D02*
X1160Y491D01*
X1215Y491D02*
X1260Y491D01*
X1315Y491D02*
X1360Y491D01*
X1415Y491D02*
X1460Y491D01*
X1515Y491D02*
X1560Y491D01*
X1615Y491D02*
X1660Y491D01*
X514Y490D02*
X562Y490D01*
X614Y490D02*
X662Y490D01*
X714Y490D02*
X762Y490D01*
X814Y490D02*
X862Y490D01*
X914Y490D02*
X962Y490D01*
X1014Y490D02*
X1061Y490D01*
X1114Y490D02*
X1161Y490D01*
X1213Y490D02*
X1261Y490D01*
X1313Y490D02*
X1361Y490D01*
X1413Y490D02*
X1461Y490D01*
X1513Y490D02*
X1561Y490D01*
X1613Y490D02*
X1661Y490D01*
X513Y489D02*
X563Y489D01*
X613Y489D02*
X663Y489D01*
X712Y489D02*
X763Y489D01*
X812Y489D02*
X863Y489D01*
X912Y489D02*
X963Y489D01*
X1012Y489D02*
X1063Y489D01*
X1112Y489D02*
X1163Y489D01*
X1212Y489D02*
X1263Y489D01*
X1312Y489D02*
X1363Y489D01*
X1412Y489D02*
X1462Y489D01*
X1512Y489D02*
X1562Y489D01*
X1612Y489D02*
X1662Y489D01*
X511Y488D02*
X564Y488D01*
X611Y488D02*
X664Y488D01*
X711Y488D02*
X764Y488D01*
X811Y488D02*
X864Y488D01*
X911Y488D02*
X964Y488D01*
X1011Y488D02*
X1064Y488D01*
X1111Y488D02*
X1164Y488D01*
X1211Y488D02*
X1264Y488D01*
X1311Y488D02*
X1364Y488D01*
X1411Y488D02*
X1464Y488D01*
X1511Y488D02*
X1564Y488D01*
X1611Y488D02*
X1664Y488D01*
X510Y487D02*
X565Y487D01*
X610Y487D02*
X665Y487D01*
X710Y487D02*
X765Y487D01*
X810Y487D02*
X865Y487D01*
X910Y487D02*
X965Y487D01*
X1010Y487D02*
X1065Y487D01*
X1110Y487D02*
X1165Y487D01*
X1210Y487D02*
X1265Y487D01*
X1310Y487D02*
X1365Y487D01*
X1410Y487D02*
X1465Y487D01*
X1510Y487D02*
X1565Y487D01*
X1610Y487D02*
X1664Y487D01*
X509Y486D02*
X566Y486D01*
X609Y486D02*
X666Y486D01*
X709Y486D02*
X766Y486D01*
X809Y486D02*
X866Y486D01*
X909Y486D02*
X966Y486D01*
X1009Y486D02*
X1066Y486D01*
X1109Y486D02*
X1166Y486D01*
X1209Y486D02*
X1265Y486D01*
X1309Y486D02*
X1365Y486D01*
X1409Y486D02*
X1465Y486D01*
X1509Y486D02*
X1565Y486D01*
X1609Y486D02*
X1665Y486D01*
X509Y485D02*
X567Y485D01*
X609Y485D02*
X667Y485D01*
X709Y485D02*
X767Y485D01*
X809Y485D02*
X866Y485D01*
X908Y485D02*
X966Y485D01*
X1008Y485D02*
X1066Y485D01*
X1108Y485D02*
X1166Y485D01*
X1208Y485D02*
X1266Y485D01*
X1308Y485D02*
X1366Y485D01*
X1408Y485D02*
X1466Y485D01*
X1508Y485D02*
X1566Y485D01*
X1608Y485D02*
X1666Y485D01*
X508Y484D02*
X567Y484D01*
X608Y484D02*
X667Y484D01*
X708Y484D02*
X767Y484D01*
X808Y484D02*
X867Y484D01*
X908Y484D02*
X967Y484D01*
X1008Y484D02*
X1067Y484D01*
X1108Y484D02*
X1167Y484D01*
X1208Y484D02*
X1267Y484D01*
X1308Y484D02*
X1367Y484D01*
X1408Y484D02*
X1467Y484D01*
X1508Y484D02*
X1567Y484D01*
X1608Y484D02*
X1667Y484D01*
X507Y483D02*
X568Y483D01*
X607Y483D02*
X668Y483D01*
X707Y483D02*
X768Y483D01*
X807Y483D02*
X868Y483D01*
X907Y483D02*
X968Y483D01*
X1007Y483D02*
X1068Y483D01*
X1107Y483D02*
X1168Y483D01*
X1207Y483D02*
X1268Y483D01*
X1307Y483D02*
X1368Y483D01*
X1407Y483D02*
X1468Y483D01*
X1507Y483D02*
X1568Y483D01*
X1607Y483D02*
X1668Y483D01*
X506Y482D02*
X569Y482D01*
X606Y482D02*
X669Y482D01*
X706Y482D02*
X769Y482D01*
X806Y482D02*
X869Y482D01*
X906Y482D02*
X969Y482D01*
X1006Y482D02*
X1069Y482D01*
X1106Y482D02*
X1169Y482D01*
X1206Y482D02*
X1269Y482D01*
X1306Y482D02*
X1369Y482D01*
X1406Y482D02*
X1469Y482D01*
X1506Y482D02*
X1569Y482D01*
X1606Y482D02*
X1669Y482D01*
X506Y481D02*
X570Y481D01*
X606Y481D02*
X669Y481D01*
X705Y481D02*
X769Y481D01*
X805Y481D02*
X869Y481D01*
X905Y481D02*
X969Y481D01*
X1005Y481D02*
X1069Y481D01*
X1105Y481D02*
X1169Y481D01*
X1205Y481D02*
X1269Y481D01*
X1305Y481D02*
X1369Y481D01*
X1405Y481D02*
X1469Y481D01*
X1505Y481D02*
X1569Y481D01*
X1605Y481D02*
X1669Y481D01*
X505Y480D02*
X570Y480D01*
X605Y480D02*
X670Y480D01*
X705Y480D02*
X770Y480D01*
X805Y480D02*
X870Y480D01*
X905Y480D02*
X970Y480D01*
X1005Y480D02*
X1070Y480D01*
X1105Y480D02*
X1170Y480D01*
X1205Y480D02*
X1270Y480D01*
X1305Y480D02*
X1370Y480D01*
X1405Y480D02*
X1470Y480D01*
X1505Y480D02*
X1570Y480D01*
X1605Y480D02*
X1670Y480D01*
X504Y479D02*
X571Y479D01*
X604Y479D02*
X671Y479D01*
X704Y479D02*
X771Y479D01*
X804Y479D02*
X871Y479D01*
X904Y479D02*
X971Y479D01*
X1004Y479D02*
X1071Y479D01*
X1104Y479D02*
X1171Y479D01*
X1204Y479D02*
X1271Y479D01*
X1304Y479D02*
X1371Y479D01*
X1404Y479D02*
X1471Y479D01*
X1504Y479D02*
X1571Y479D01*
X1604Y479D02*
X1671Y479D01*
X504Y478D02*
X571Y478D01*
X604Y478D02*
X671Y478D01*
X704Y478D02*
X771Y478D01*
X804Y478D02*
X871Y478D01*
X904Y478D02*
X971Y478D01*
X1004Y478D02*
X1071Y478D01*
X1104Y478D02*
X1171Y478D01*
X1204Y478D02*
X1271Y478D01*
X1303Y478D02*
X1371Y478D01*
X1403Y478D02*
X1471Y478D01*
X1503Y478D02*
X1571Y478D01*
X1603Y478D02*
X1671Y478D01*
X503Y477D02*
X572Y477D01*
X603Y477D02*
X672Y477D01*
X703Y477D02*
X772Y477D01*
X803Y477D02*
X872Y477D01*
X903Y477D02*
X972Y477D01*
X1003Y477D02*
X1072Y477D01*
X1103Y477D02*
X1172Y477D01*
X1203Y477D02*
X1272Y477D01*
X1303Y477D02*
X1372Y477D01*
X1403Y477D02*
X1472Y477D01*
X1503Y477D02*
X1572Y477D01*
X1603Y477D02*
X1672Y477D01*
X503Y476D02*
X572Y476D01*
X603Y476D02*
X672Y476D01*
X703Y476D02*
X772Y476D01*
X803Y476D02*
X872Y476D01*
X903Y476D02*
X972Y476D01*
X1003Y476D02*
X1072Y476D01*
X1102Y476D02*
X1172Y476D01*
X1202Y476D02*
X1272Y476D01*
X1302Y476D02*
X1372Y476D01*
X1402Y476D02*
X1472Y476D01*
X1502Y476D02*
X1572Y476D01*
X1602Y476D02*
X1672Y476D01*
X502Y475D02*
X573Y475D01*
X602Y475D02*
X673Y475D01*
X702Y475D02*
X773Y475D01*
X802Y475D02*
X873Y475D01*
X902Y475D02*
X973Y475D01*
X1002Y475D02*
X1073Y475D01*
X1102Y475D02*
X1173Y475D01*
X1202Y475D02*
X1273Y475D01*
X1302Y475D02*
X1373Y475D01*
X1402Y475D02*
X1473Y475D01*
X1502Y475D02*
X1573Y475D01*
X1602Y475D02*
X1673Y475D01*
X502Y474D02*
X573Y474D01*
X602Y474D02*
X673Y474D01*
X702Y474D02*
X773Y474D01*
X802Y474D02*
X873Y474D01*
X902Y474D02*
X973Y474D01*
X1002Y474D02*
X1073Y474D01*
X1102Y474D02*
X1173Y474D01*
X1202Y474D02*
X1273Y474D01*
X1302Y474D02*
X1373Y474D01*
X1402Y474D02*
X1473Y474D01*
X1502Y474D02*
X1573Y474D01*
X1601Y474D02*
X1673Y474D01*
X501Y473D02*
X574Y473D01*
X601Y473D02*
X674Y473D01*
X701Y473D02*
X774Y473D01*
X801Y473D02*
X874Y473D01*
X901Y473D02*
X973Y473D01*
X1001Y473D02*
X1073Y473D01*
X1101Y473D02*
X1173Y473D01*
X1201Y473D02*
X1273Y473D01*
X1301Y473D02*
X1373Y473D01*
X1401Y473D02*
X1473Y473D01*
X1501Y473D02*
X1573Y473D01*
X1601Y473D02*
X1673Y473D01*
X501Y472D02*
X574Y472D01*
X601Y472D02*
X674Y472D01*
X701Y472D02*
X774Y472D01*
X801Y472D02*
X874Y472D01*
X901Y472D02*
X974Y472D01*
X1001Y472D02*
X1074Y472D01*
X1101Y472D02*
X1174Y472D01*
X1201Y472D02*
X1274Y472D01*
X1301Y472D02*
X1374Y472D01*
X1401Y472D02*
X1474Y472D01*
X1501Y472D02*
X1574Y472D01*
X1601Y472D02*
X1674Y472D01*
X501Y471D02*
X574Y471D01*
X601Y471D02*
X674Y471D01*
X701Y471D02*
X774Y471D01*
X801Y471D02*
X874Y471D01*
X901Y471D02*
X974Y471D01*
X1000Y471D02*
X1074Y471D01*
X1100Y471D02*
X1174Y471D01*
X1200Y471D02*
X1274Y471D01*
X1300Y471D02*
X1374Y471D01*
X1400Y471D02*
X1474Y471D01*
X1500Y471D02*
X1574Y471D01*
X1600Y471D02*
X1674Y471D01*
X500Y470D02*
X575Y470D01*
X600Y470D02*
X675Y470D01*
X700Y470D02*
X774Y470D01*
X800Y470D02*
X874Y470D01*
X900Y470D02*
X974Y470D01*
X1000Y470D02*
X1074Y470D01*
X1100Y470D02*
X1174Y470D01*
X1200Y470D02*
X1274Y470D01*
X1300Y470D02*
X1374Y470D01*
X1400Y470D02*
X1474Y470D01*
X1500Y470D02*
X1574Y470D01*
X1600Y470D02*
X1674Y470D01*
X500Y469D02*
X575Y469D01*
X600Y469D02*
X675Y469D01*
X700Y469D02*
X775Y469D01*
X800Y469D02*
X875Y469D01*
X900Y469D02*
X975Y469D01*
X1000Y469D02*
X1075Y469D01*
X1100Y469D02*
X1175Y469D01*
X1200Y469D02*
X1275Y469D01*
X1300Y469D02*
X1375Y469D01*
X1400Y469D02*
X1475Y469D01*
X1500Y469D02*
X1575Y469D01*
X1600Y469D02*
X1675Y469D01*
X500Y468D02*
X575Y468D01*
X600Y468D02*
X675Y468D01*
X700Y468D02*
X775Y468D01*
X800Y468D02*
X875Y468D01*
X900Y468D02*
X975Y468D01*
X1000Y468D02*
X1075Y468D01*
X1100Y468D02*
X1175Y468D01*
X1200Y468D02*
X1275Y468D01*
X1300Y468D02*
X1375Y468D01*
X1400Y468D02*
X1475Y468D01*
X1500Y468D02*
X1575Y468D01*
X1600Y468D02*
X1675Y468D01*
X500Y467D02*
X575Y467D01*
X600Y467D02*
X675Y467D01*
X700Y467D02*
X775Y467D01*
X800Y467D02*
X875Y467D01*
X899Y467D02*
X975Y467D01*
X999Y467D02*
X1075Y467D01*
X1099Y467D02*
X1175Y467D01*
X1199Y467D02*
X1275Y467D01*
X1299Y467D02*
X1375Y467D01*
X1399Y467D02*
X1475Y467D01*
X1499Y467D02*
X1575Y467D01*
X1599Y467D02*
X1675Y467D01*
X499Y466D02*
X575Y466D01*
X599Y466D02*
X675Y466D01*
X699Y466D02*
X775Y466D01*
X799Y466D02*
X875Y466D01*
X899Y466D02*
X975Y466D01*
X999Y466D02*
X1075Y466D01*
X1099Y466D02*
X1175Y466D01*
X1199Y466D02*
X1275Y466D01*
X1299Y466D02*
X1375Y466D01*
X1399Y466D02*
X1475Y466D01*
X1499Y466D02*
X1575Y466D01*
X1599Y466D02*
X1675Y466D01*
X499Y465D02*
X576Y465D01*
X599Y465D02*
X676Y465D01*
X699Y465D02*
X776Y465D01*
X799Y465D02*
X876Y465D01*
X899Y465D02*
X975Y465D01*
X999Y465D02*
X1075Y465D01*
X1099Y465D02*
X1175Y465D01*
X1199Y465D02*
X1275Y465D01*
X1299Y465D02*
X1375Y465D01*
X1399Y465D02*
X1475Y465D01*
X1499Y465D02*
X1575Y465D01*
X1599Y465D02*
X1675Y465D01*
X499Y464D02*
X576Y464D01*
X599Y464D02*
X676Y464D01*
X699Y464D02*
X776Y464D01*
X799Y464D02*
X876Y464D01*
X899Y464D02*
X976Y464D01*
X999Y464D02*
X1076Y464D01*
X1099Y464D02*
X1176Y464D01*
X1199Y464D02*
X1276Y464D01*
X1299Y464D02*
X1376Y464D01*
X1399Y464D02*
X1476Y464D01*
X1499Y464D02*
X1575Y464D01*
X1599Y464D02*
X1675Y464D01*
X499Y463D02*
X576Y463D01*
X599Y463D02*
X676Y463D01*
X699Y463D02*
X776Y463D01*
X799Y463D02*
X876Y463D01*
X899Y463D02*
X976Y463D01*
X999Y463D02*
X1076Y463D01*
X1099Y463D02*
X1176Y463D01*
X1199Y463D02*
X1276Y463D01*
X1299Y463D02*
X1376Y463D01*
X1399Y463D02*
X1476Y463D01*
X1499Y463D02*
X1576Y463D01*
X1599Y463D02*
X1676Y463D01*
X499Y462D02*
X576Y462D01*
X599Y462D02*
X676Y462D01*
X699Y462D02*
X776Y462D01*
X799Y462D02*
X876Y462D01*
X899Y462D02*
X976Y462D01*
X999Y462D02*
X1076Y462D01*
X1099Y462D02*
X1176Y462D01*
X1199Y462D02*
X1276Y462D01*
X1299Y462D02*
X1376Y462D01*
X1399Y462D02*
X1476Y462D01*
X1499Y462D02*
X1576Y462D01*
X1599Y462D02*
X1676Y462D01*
X499Y461D02*
X576Y461D01*
X599Y461D02*
X676Y461D01*
X699Y461D02*
X776Y461D01*
X799Y461D02*
X876Y461D01*
X899Y461D02*
X976Y461D01*
X999Y461D02*
X1076Y461D01*
X1099Y461D02*
X1176Y461D01*
X1199Y461D02*
X1276Y461D01*
X1299Y461D02*
X1376Y461D01*
X1399Y461D02*
X1476Y461D01*
X1499Y461D02*
X1576Y461D01*
X1599Y461D02*
X1676Y461D01*
X499Y460D02*
X576Y460D01*
X599Y460D02*
X676Y460D01*
X699Y460D02*
X776Y460D01*
X799Y460D02*
X876Y460D01*
X899Y460D02*
X976Y460D01*
X999Y460D02*
X1076Y460D01*
X1099Y460D02*
X1176Y460D01*
X1199Y460D02*
X1276Y460D01*
X1299Y460D02*
X1376Y460D01*
X1399Y460D02*
X1476Y460D01*
X1499Y460D02*
X1576Y460D01*
X1599Y460D02*
X1676Y460D01*
X499Y459D02*
X576Y459D01*
X599Y459D02*
X676Y459D01*
X699Y459D02*
X776Y459D01*
X799Y459D02*
X876Y459D01*
X899Y459D02*
X976Y459D01*
X999Y459D02*
X1076Y459D01*
X1099Y459D02*
X1176Y459D01*
X1199Y459D02*
X1276Y459D01*
X1299Y459D02*
X1376Y459D01*
X1399Y459D02*
X1476Y459D01*
X1499Y459D02*
X1576Y459D01*
X1599Y459D02*
X1676Y459D01*
X499Y458D02*
X576Y458D01*
X599Y458D02*
X676Y458D01*
X699Y458D02*
X776Y458D01*
X799Y458D02*
X876Y458D01*
X899Y458D02*
X976Y458D01*
X999Y458D02*
X1076Y458D01*
X1099Y458D02*
X1176Y458D01*
X1199Y458D02*
X1276Y458D01*
X1299Y458D02*
X1376Y458D01*
X1399Y458D02*
X1476Y458D01*
X1499Y458D02*
X1576Y458D01*
X1599Y458D02*
X1675Y458D01*
X499Y457D02*
X576Y457D01*
X599Y457D02*
X676Y457D01*
X699Y457D02*
X776Y457D01*
X799Y457D02*
X876Y457D01*
X899Y457D02*
X976Y457D01*
X999Y457D02*
X1076Y457D01*
X1099Y457D02*
X1176Y457D01*
X1199Y457D02*
X1276Y457D01*
X1299Y457D02*
X1375Y457D01*
X1399Y457D02*
X1475Y457D01*
X1499Y457D02*
X1575Y457D01*
X1599Y457D02*
X1675Y457D01*
X499Y456D02*
X576Y456D01*
X599Y456D02*
X675Y456D01*
X699Y456D02*
X775Y456D01*
X799Y456D02*
X875Y456D01*
X899Y456D02*
X975Y456D01*
X999Y456D02*
X1075Y456D01*
X1099Y456D02*
X1175Y456D01*
X1199Y456D02*
X1275Y456D01*
X1299Y456D02*
X1375Y456D01*
X1399Y456D02*
X1475Y456D01*
X1499Y456D02*
X1575Y456D01*
X1599Y456D02*
X1675Y456D01*
X500Y455D02*
X575Y455D01*
X599Y455D02*
X675Y455D01*
X699Y455D02*
X775Y455D01*
X799Y455D02*
X875Y455D01*
X899Y455D02*
X975Y455D01*
X999Y455D02*
X1075Y455D01*
X1099Y455D02*
X1175Y455D01*
X1199Y455D02*
X1275Y455D01*
X1299Y455D02*
X1375Y455D01*
X1399Y455D02*
X1475Y455D01*
X1499Y455D02*
X1575Y455D01*
X1599Y455D02*
X1675Y455D01*
X500Y454D02*
X575Y454D01*
X600Y454D02*
X675Y454D01*
X700Y454D02*
X775Y454D01*
X800Y454D02*
X875Y454D01*
X900Y454D02*
X975Y454D01*
X1000Y454D02*
X1075Y454D01*
X1100Y454D02*
X1175Y454D01*
X1200Y454D02*
X1275Y454D01*
X1299Y454D02*
X1375Y454D01*
X1399Y454D02*
X1475Y454D01*
X1499Y454D02*
X1575Y454D01*
X1599Y454D02*
X1675Y454D01*
X500Y453D02*
X575Y453D01*
X600Y453D02*
X675Y453D01*
X700Y453D02*
X775Y453D01*
X800Y453D02*
X875Y453D01*
X900Y453D02*
X975Y453D01*
X1000Y453D02*
X1075Y453D01*
X1100Y453D02*
X1175Y453D01*
X1200Y453D02*
X1275Y453D01*
X1300Y453D02*
X1375Y453D01*
X1400Y453D02*
X1475Y453D01*
X1500Y453D02*
X1575Y453D01*
X1600Y453D02*
X1675Y453D01*
X500Y452D02*
X575Y452D01*
X600Y452D02*
X675Y452D01*
X700Y452D02*
X775Y452D01*
X800Y452D02*
X875Y452D01*
X900Y452D02*
X975Y452D01*
X1000Y452D02*
X1075Y452D01*
X1100Y452D02*
X1175Y452D01*
X1200Y452D02*
X1274Y452D01*
X1300Y452D02*
X1374Y452D01*
X1400Y452D02*
X1474Y452D01*
X1500Y452D02*
X1574Y452D01*
X1600Y452D02*
X1674Y452D01*
X501Y451D02*
X574Y451D01*
X600Y451D02*
X674Y451D01*
X700Y451D02*
X774Y451D01*
X800Y451D02*
X874Y451D01*
X900Y451D02*
X974Y451D01*
X1000Y451D02*
X1074Y451D01*
X1100Y451D02*
X1174Y451D01*
X1200Y451D02*
X1274Y451D01*
X1300Y451D02*
X1374Y451D01*
X1400Y451D02*
X1474Y451D01*
X1500Y451D02*
X1574Y451D01*
X1600Y451D02*
X1674Y451D01*
X501Y450D02*
X574Y450D01*
X601Y450D02*
X674Y450D01*
X701Y450D02*
X774Y450D01*
X801Y450D02*
X874Y450D01*
X901Y450D02*
X974Y450D01*
X1001Y450D02*
X1074Y450D01*
X1101Y450D02*
X1174Y450D01*
X1201Y450D02*
X1274Y450D01*
X1301Y450D02*
X1374Y450D01*
X1401Y450D02*
X1474Y450D01*
X1501Y450D02*
X1574Y450D01*
X1601Y450D02*
X1674Y450D01*
X501Y449D02*
X574Y449D01*
X601Y449D02*
X674Y449D01*
X701Y449D02*
X774Y449D01*
X801Y449D02*
X874Y449D01*
X901Y449D02*
X974Y449D01*
X1001Y449D02*
X1074Y449D01*
X1101Y449D02*
X1174Y449D01*
X1201Y449D02*
X1274Y449D01*
X1301Y449D02*
X1374Y449D01*
X1401Y449D02*
X1474Y449D01*
X1501Y449D02*
X1573Y449D01*
X1601Y449D02*
X1673Y449D01*
X502Y448D02*
X573Y448D01*
X602Y448D02*
X673Y448D01*
X702Y448D02*
X773Y448D01*
X802Y448D02*
X873Y448D01*
X902Y448D02*
X973Y448D01*
X1001Y448D02*
X1073Y448D01*
X1101Y448D02*
X1173Y448D01*
X1201Y448D02*
X1273Y448D01*
X1301Y448D02*
X1373Y448D01*
X1401Y448D02*
X1473Y448D01*
X1501Y448D02*
X1573Y448D01*
X1601Y448D02*
X1673Y448D01*
X502Y447D02*
X573Y447D01*
X602Y447D02*
X673Y447D01*
X702Y447D02*
X773Y447D01*
X802Y447D02*
X873Y447D01*
X902Y447D02*
X973Y447D01*
X1002Y447D02*
X1073Y447D01*
X1102Y447D02*
X1173Y447D01*
X1202Y447D02*
X1273Y447D01*
X1302Y447D02*
X1373Y447D01*
X1402Y447D02*
X1473Y447D01*
X1502Y447D02*
X1573Y447D01*
X1602Y447D02*
X1673Y447D01*
X502Y446D02*
X572Y446D01*
X602Y446D02*
X672Y446D01*
X702Y446D02*
X772Y446D01*
X802Y446D02*
X872Y446D01*
X902Y446D02*
X972Y446D01*
X1002Y446D02*
X1072Y446D01*
X1102Y446D02*
X1172Y446D01*
X1202Y446D02*
X1272Y446D01*
X1302Y446D02*
X1372Y446D01*
X1402Y446D02*
X1472Y446D01*
X1502Y446D02*
X1572Y446D01*
X1602Y446D02*
X1672Y446D01*
X503Y445D02*
X572Y445D01*
X603Y445D02*
X672Y445D01*
X703Y445D02*
X772Y445D01*
X803Y445D02*
X872Y445D01*
X903Y445D02*
X972Y445D01*
X1003Y445D02*
X1072Y445D01*
X1103Y445D02*
X1172Y445D01*
X1203Y445D02*
X1272Y445D01*
X1303Y445D02*
X1372Y445D01*
X1403Y445D02*
X1472Y445D01*
X1503Y445D02*
X1572Y445D01*
X1603Y445D02*
X1672Y445D01*
X504Y444D02*
X571Y444D01*
X604Y444D02*
X671Y444D01*
X703Y444D02*
X771Y444D01*
X803Y444D02*
X871Y444D01*
X903Y444D02*
X971Y444D01*
X1003Y444D02*
X1071Y444D01*
X1103Y444D02*
X1171Y444D01*
X1203Y444D02*
X1271Y444D01*
X1303Y444D02*
X1371Y444D01*
X1403Y444D02*
X1471Y444D01*
X1503Y444D02*
X1571Y444D01*
X1603Y444D02*
X1671Y444D01*
X504Y443D02*
X571Y443D01*
X604Y443D02*
X671Y443D01*
X704Y443D02*
X771Y443D01*
X804Y443D02*
X871Y443D01*
X904Y443D02*
X971Y443D01*
X1004Y443D02*
X1071Y443D01*
X1104Y443D02*
X1171Y443D01*
X1204Y443D02*
X1271Y443D01*
X1304Y443D02*
X1371Y443D01*
X1404Y443D02*
X1471Y443D01*
X1504Y443D02*
X1571Y443D01*
X1604Y443D02*
X1671Y443D01*
X505Y442D02*
X570Y442D01*
X605Y442D02*
X670Y442D01*
X705Y442D02*
X770Y442D01*
X805Y442D02*
X870Y442D01*
X905Y442D02*
X970Y442D01*
X1005Y442D02*
X1070Y442D01*
X1105Y442D02*
X1170Y442D01*
X1205Y442D02*
X1270Y442D01*
X1305Y442D02*
X1370Y442D01*
X1404Y442D02*
X1470Y442D01*
X1504Y442D02*
X1570Y442D01*
X1604Y442D02*
X1670Y442D01*
X505Y441D02*
X570Y441D01*
X605Y441D02*
X670Y441D01*
X705Y441D02*
X770Y441D01*
X805Y441D02*
X870Y441D01*
X905Y441D02*
X970Y441D01*
X1005Y441D02*
X1070Y441D01*
X1105Y441D02*
X1170Y441D01*
X1205Y441D02*
X1270Y441D01*
X1305Y441D02*
X1370Y441D01*
X1405Y441D02*
X1469Y441D01*
X1505Y441D02*
X1569Y441D01*
X1605Y441D02*
X1669Y441D01*
X506Y440D02*
X569Y440D01*
X606Y440D02*
X669Y440D01*
X706Y440D02*
X769Y440D01*
X806Y440D02*
X869Y440D01*
X906Y440D02*
X969Y440D01*
X1006Y440D02*
X1069Y440D01*
X1106Y440D02*
X1169Y440D01*
X1206Y440D02*
X1269Y440D01*
X1306Y440D02*
X1369Y440D01*
X1406Y440D02*
X1469Y440D01*
X1506Y440D02*
X1569Y440D01*
X1606Y440D02*
X1669Y440D01*
X507Y439D02*
X568Y439D01*
X607Y439D02*
X668Y439D01*
X707Y439D02*
X768Y439D01*
X807Y439D02*
X868Y439D01*
X907Y439D02*
X968Y439D01*
X1007Y439D02*
X1068Y439D01*
X1107Y439D02*
X1168Y439D01*
X1207Y439D02*
X1268Y439D01*
X1307Y439D02*
X1368Y439D01*
X1407Y439D02*
X1468Y439D01*
X1506Y439D02*
X1568Y439D01*
X1606Y439D02*
X1668Y439D01*
X508Y438D02*
X568Y438D01*
X607Y438D02*
X668Y438D01*
X707Y438D02*
X768Y438D01*
X807Y438D02*
X868Y438D01*
X907Y438D02*
X967Y438D01*
X1007Y438D02*
X1067Y438D01*
X1107Y438D02*
X1167Y438D01*
X1207Y438D02*
X1267Y438D01*
X1307Y438D02*
X1367Y438D01*
X1407Y438D02*
X1467Y438D01*
X1507Y438D02*
X1567Y438D01*
X1607Y438D02*
X1667Y438D01*
X508Y437D02*
X567Y437D01*
X608Y437D02*
X667Y437D01*
X708Y437D02*
X767Y437D01*
X808Y437D02*
X867Y437D01*
X908Y437D02*
X967Y437D01*
X1008Y437D02*
X1067Y437D01*
X1108Y437D02*
X1167Y437D01*
X1208Y437D02*
X1267Y437D01*
X1308Y437D02*
X1367Y437D01*
X1408Y437D02*
X1467Y437D01*
X1508Y437D02*
X1567Y437D01*
X1608Y437D02*
X1667Y437D01*
X509Y436D02*
X566Y436D01*
X609Y436D02*
X666Y436D01*
X709Y436D02*
X766Y436D01*
X809Y436D02*
X866Y436D01*
X909Y436D02*
X966Y436D01*
X1009Y436D02*
X1066Y436D01*
X1109Y436D02*
X1166Y436D01*
X1209Y436D02*
X1266Y436D01*
X1309Y436D02*
X1366Y436D01*
X1409Y436D02*
X1466Y436D01*
X1509Y436D02*
X1566Y436D01*
X1609Y436D02*
X1666Y436D01*
X510Y435D02*
X565Y435D01*
X610Y435D02*
X665Y435D01*
X710Y435D02*
X765Y435D01*
X810Y435D02*
X865Y435D01*
X910Y435D02*
X965Y435D01*
X1010Y435D02*
X1065Y435D01*
X1110Y435D02*
X1165Y435D01*
X1210Y435D02*
X1265Y435D01*
X1310Y435D02*
X1365Y435D01*
X1410Y435D02*
X1465Y435D01*
X1510Y435D02*
X1565Y435D01*
X1610Y435D02*
X1665Y435D01*
X511Y434D02*
X564Y434D01*
X611Y434D02*
X664Y434D01*
X711Y434D02*
X764Y434D01*
X811Y434D02*
X864Y434D01*
X911Y434D02*
X964Y434D01*
X1011Y434D02*
X1064Y434D01*
X1111Y434D02*
X1164Y434D01*
X1211Y434D02*
X1264Y434D01*
X1311Y434D02*
X1364Y434D01*
X1411Y434D02*
X1464Y434D01*
X1511Y434D02*
X1564Y434D01*
X1611Y434D02*
X1664Y434D01*
X512Y433D02*
X563Y433D01*
X612Y433D02*
X663Y433D01*
X712Y433D02*
X763Y433D01*
X812Y433D02*
X863Y433D01*
X912Y433D02*
X963Y433D01*
X1012Y433D02*
X1063Y433D01*
X1112Y433D02*
X1163Y433D01*
X1212Y433D02*
X1263Y433D01*
X1312Y433D02*
X1363Y433D01*
X1412Y433D02*
X1463Y433D01*
X1512Y433D02*
X1563Y433D01*
X1612Y433D02*
X1663Y433D01*
X513Y432D02*
X562Y432D01*
X613Y432D02*
X662Y432D01*
X713Y432D02*
X762Y432D01*
X813Y432D02*
X862Y432D01*
X913Y432D02*
X962Y432D01*
X1013Y432D02*
X1062Y432D01*
X1113Y432D02*
X1162Y432D01*
X1213Y432D02*
X1262Y432D01*
X1313Y432D02*
X1362Y432D01*
X1413Y432D02*
X1462Y432D01*
X1513Y432D02*
X1562Y432D01*
X1613Y432D02*
X1662Y432D01*
X514Y431D02*
X561Y431D01*
X614Y431D02*
X661Y431D01*
X714Y431D02*
X761Y431D01*
X814Y431D02*
X861Y431D01*
X914Y431D02*
X961Y431D01*
X1014Y431D02*
X1061Y431D01*
X1114Y431D02*
X1161Y431D01*
X1214Y431D02*
X1261Y431D01*
X1314Y431D02*
X1361Y431D01*
X1414Y431D02*
X1461Y431D01*
X1514Y431D02*
X1561Y431D01*
X1614Y431D02*
X1661Y431D01*
X516Y430D02*
X560Y430D01*
X616Y430D02*
X660Y430D01*
X716Y430D02*
X760Y430D01*
X816Y430D02*
X860Y430D01*
X915Y430D02*
X960Y430D01*
X1015Y430D02*
X1060Y430D01*
X1115Y430D02*
X1160Y430D01*
X1215Y430D02*
X1260Y430D01*
X1315Y430D02*
X1359Y430D01*
X1415Y430D02*
X1459Y430D01*
X1515Y430D02*
X1559Y430D01*
X1615Y430D02*
X1659Y430D01*
X517Y429D02*
X558Y429D01*
X617Y429D02*
X658Y429D01*
X717Y429D02*
X758Y429D01*
X817Y429D02*
X858Y429D01*
X917Y429D02*
X958Y429D01*
X1017Y429D02*
X1058Y429D01*
X1117Y429D02*
X1158Y429D01*
X1217Y429D02*
X1258Y429D01*
X1317Y429D02*
X1358Y429D01*
X1417Y429D02*
X1458Y429D01*
X1517Y429D02*
X1558Y429D01*
X1617Y429D02*
X1658Y429D01*
X518Y428D02*
X557Y428D01*
X618Y428D02*
X657Y428D01*
X718Y428D02*
X757Y428D01*
X818Y428D02*
X857Y428D01*
X918Y428D02*
X957Y428D01*
X1018Y428D02*
X1057Y428D01*
X1118Y428D02*
X1157Y428D01*
X1218Y428D02*
X1257Y428D01*
X1318Y428D02*
X1357Y428D01*
X1418Y428D02*
X1457Y428D01*
X1518Y428D02*
X1557Y428D01*
X1618Y428D02*
X1657Y428D01*
X520Y427D02*
X555Y427D01*
X620Y427D02*
X655Y427D01*
X720Y427D02*
X755Y427D01*
X820Y427D02*
X855Y427D01*
X920Y427D02*
X955Y427D01*
X1020Y427D02*
X1055Y427D01*
X1120Y427D02*
X1155Y427D01*
X1220Y427D02*
X1255Y427D01*
X1320Y427D02*
X1355Y427D01*
X1420Y427D02*
X1455Y427D01*
X1520Y427D02*
X1555Y427D01*
X1620Y427D02*
X1655Y427D01*
X522Y426D02*
X554Y426D01*
X622Y426D02*
X654Y426D01*
X722Y426D02*
X753Y426D01*
X822Y426D02*
X853Y426D01*
X922Y426D02*
X953Y426D01*
X1022Y426D02*
X1053Y426D01*
X1122Y426D02*
X1153Y426D01*
X1222Y426D02*
X1253Y426D01*
X1322Y426D02*
X1353Y426D01*
X1422Y426D02*
X1453Y426D01*
X1522Y426D02*
X1553Y426D01*
X1621Y426D02*
X1653Y426D01*
X524Y425D02*
X552Y425D01*
X624Y425D02*
X652Y425D01*
X724Y425D02*
X752Y425D01*
X824Y425D02*
X852Y425D01*
X924Y425D02*
X952Y425D01*
X1024Y425D02*
X1051Y425D01*
X1124Y425D02*
X1151Y425D01*
X1224Y425D02*
X1251Y425D01*
X1323Y425D02*
X1351Y425D01*
X1423Y425D02*
X1451Y425D01*
X1523Y425D02*
X1551Y425D01*
X1623Y425D02*
X1651Y425D01*
X526Y424D02*
X549Y424D01*
X626Y424D02*
X649Y424D01*
X726Y424D02*
X749Y424D01*
X826Y424D02*
X849Y424D01*
X926Y424D02*
X949Y424D01*
X1026Y424D02*
X1049Y424D01*
X1126Y424D02*
X1149Y424D01*
X1226Y424D02*
X1249Y424D01*
X1326Y424D02*
X1349Y424D01*
X1426Y424D02*
X1449Y424D01*
X1526Y424D02*
X1549Y424D01*
X1626Y424D02*
X1649Y424D01*
X529Y423D02*
X546Y423D01*
X629Y423D02*
X646Y423D01*
X729Y423D02*
X746Y423D01*
X829Y423D02*
X846Y423D01*
X929Y423D02*
X946Y423D01*
X1029Y423D02*
X1046Y423D01*
X1129Y423D02*
X1146Y423D01*
X1229Y423D02*
X1246Y423D01*
X1329Y423D02*
X1346Y423D01*
X1429Y423D02*
X1446Y423D01*
X1529Y423D02*
X1546Y423D01*
X1629Y423D02*
X1646Y423D01*
X534Y422D02*
X542Y422D01*
X633Y422D02*
X642Y422D01*
X733Y422D02*
X742Y422D01*
X833Y422D02*
X841Y422D01*
X933Y422D02*
X941Y422D01*
X1033Y422D02*
X1041Y422D01*
X1133Y422D02*
X1141Y422D01*
X1233Y422D02*
X1241Y422D01*
X1333Y422D02*
X1341Y422D01*
X1433Y422D02*
X1441Y422D01*
X1533Y422D02*
X1541Y422D01*
X1633Y422D02*
X1641Y422D01*
D02*
G04 End of Mask0*
M02*