G04 MADE WITH FRITZING*
G04 WWW.FRITZING.ORG*
G04 DOUBLE SIDED*
G04 HOLES PLATED*
G04 CONTOUR ON CENTER OF CONTOUR VECTOR*
%ASAXBY*%
%FSLAX23Y23*%
%MOIN*%
%OFA0B0*%
%SFA1.0B1.0*%
%ADD10C,0.049370*%
%ADD11C,0.092000*%
%ADD12C,0.088000*%
%ADD13C,0.038000*%
%ADD14C,0.042000*%
%ADD15R,0.092000X0.092000*%
%ADD16R,0.001000X0.001000*%
%LNMASK1*%
G90*
G70*
G54D10*
X1838Y360D03*
X2238Y360D03*
X1438Y160D03*
X1038Y160D03*
X638Y360D03*
X238Y360D03*
X238Y60D03*
X2038Y60D03*
G54D11*
X338Y260D03*
X238Y260D03*
X138Y260D03*
X738Y260D03*
X638Y260D03*
X538Y260D03*
X1138Y260D03*
X1038Y260D03*
X938Y260D03*
X2338Y260D03*
X2238Y260D03*
X2138Y260D03*
X1938Y260D03*
X1838Y260D03*
X1738Y260D03*
X1538Y260D03*
X1438Y260D03*
X1338Y260D03*
G54D12*
X238Y860D03*
X238Y760D03*
X238Y660D03*
X338Y60D03*
X438Y60D03*
X538Y60D03*
X638Y60D03*
X1638Y60D03*
X1738Y60D03*
X1838Y60D03*
X1938Y60D03*
G54D13*
X38Y1060D03*
G54D12*
X138Y1060D03*
G54D14*
X38Y1160D03*
G54D11*
X138Y1160D03*
X238Y1160D03*
G54D10*
X38Y960D03*
X338Y660D03*
X1038Y1060D03*
X838Y1060D03*
X338Y760D03*
G54D15*
X338Y260D03*
X738Y260D03*
X1138Y260D03*
X2338Y260D03*
X1938Y260D03*
X1538Y260D03*
G54D16*
X0Y1206D02*
X83Y1206D01*
X0Y1205D02*
X83Y1205D01*
X0Y1204D02*
X83Y1204D01*
X0Y1203D02*
X83Y1203D01*
X0Y1202D02*
X83Y1202D01*
X0Y1201D02*
X83Y1201D01*
X0Y1200D02*
X83Y1200D01*
X0Y1199D02*
X83Y1199D01*
X0Y1198D02*
X83Y1198D01*
X0Y1197D02*
X83Y1197D01*
X0Y1196D02*
X83Y1196D01*
X0Y1195D02*
X83Y1195D01*
X0Y1194D02*
X83Y1194D01*
X0Y1193D02*
X83Y1193D01*
X0Y1192D02*
X83Y1192D01*
X0Y1191D02*
X83Y1191D01*
X0Y1190D02*
X83Y1190D01*
X0Y1189D02*
X83Y1189D01*
X0Y1188D02*
X83Y1188D01*
X0Y1187D02*
X83Y1187D01*
X0Y1186D02*
X83Y1186D01*
X0Y1185D02*
X83Y1185D01*
X0Y1184D02*
X83Y1184D01*
X0Y1183D02*
X83Y1183D01*
X0Y1182D02*
X83Y1182D01*
X0Y1181D02*
X83Y1181D01*
X0Y1180D02*
X83Y1180D01*
X0Y1179D02*
X83Y1179D01*
X0Y1178D02*
X83Y1178D01*
X0Y1177D02*
X83Y1177D01*
X0Y1176D02*
X83Y1176D01*
X0Y1175D02*
X83Y1175D01*
X0Y1174D02*
X83Y1174D01*
X0Y1173D02*
X83Y1173D01*
X0Y1172D02*
X83Y1172D01*
X0Y1171D02*
X83Y1171D01*
X0Y1170D02*
X83Y1170D01*
X0Y1169D02*
X83Y1169D01*
X0Y1168D02*
X83Y1168D01*
X0Y1167D02*
X83Y1167D01*
X0Y1166D02*
X83Y1166D01*
X0Y1165D02*
X83Y1165D01*
X0Y1164D02*
X83Y1164D01*
X0Y1163D02*
X83Y1163D01*
X0Y1162D02*
X83Y1162D01*
X0Y1161D02*
X83Y1161D01*
X0Y1160D02*
X83Y1160D01*
X0Y1159D02*
X83Y1159D01*
X0Y1158D02*
X83Y1158D01*
X0Y1157D02*
X83Y1157D01*
X0Y1156D02*
X83Y1156D01*
X0Y1155D02*
X83Y1155D01*
X0Y1154D02*
X83Y1154D01*
X0Y1153D02*
X83Y1153D01*
X0Y1152D02*
X83Y1152D01*
X0Y1151D02*
X83Y1151D01*
X0Y1150D02*
X83Y1150D01*
X0Y1149D02*
X83Y1149D01*
X0Y1148D02*
X83Y1148D01*
X0Y1147D02*
X83Y1147D01*
X0Y1146D02*
X83Y1146D01*
X0Y1145D02*
X83Y1145D01*
X0Y1144D02*
X83Y1144D01*
X0Y1143D02*
X83Y1143D01*
X0Y1142D02*
X83Y1142D01*
X0Y1141D02*
X83Y1141D01*
X0Y1140D02*
X83Y1140D01*
X0Y1139D02*
X83Y1139D01*
X0Y1138D02*
X83Y1138D01*
X0Y1137D02*
X83Y1137D01*
X0Y1136D02*
X83Y1136D01*
X0Y1135D02*
X83Y1135D01*
X0Y1134D02*
X83Y1134D01*
X0Y1133D02*
X83Y1133D01*
X0Y1132D02*
X83Y1132D01*
X0Y1131D02*
X83Y1131D01*
X0Y1130D02*
X83Y1130D01*
X0Y1129D02*
X83Y1129D01*
X0Y1128D02*
X83Y1128D01*
X0Y1127D02*
X83Y1127D01*
X0Y1126D02*
X83Y1126D01*
X0Y1125D02*
X83Y1125D01*
X0Y1124D02*
X83Y1124D01*
X0Y1123D02*
X83Y1123D01*
X0Y1122D02*
X83Y1122D01*
X0Y1121D02*
X83Y1121D01*
X0Y1120D02*
X83Y1120D01*
X0Y1119D02*
X83Y1119D01*
X0Y1118D02*
X83Y1118D01*
X0Y1117D02*
X83Y1117D01*
X0Y1116D02*
X83Y1116D01*
X0Y1115D02*
X83Y1115D01*
X33Y1104D02*
X42Y1104D01*
X28Y1103D02*
X47Y1103D01*
X25Y1102D02*
X50Y1102D01*
X23Y1101D02*
X52Y1101D01*
X21Y1100D02*
X54Y1100D01*
X19Y1099D02*
X56Y1099D01*
X17Y1098D02*
X58Y1098D01*
X15Y1097D02*
X60Y1097D01*
X14Y1096D02*
X61Y1096D01*
X13Y1095D02*
X62Y1095D01*
X11Y1094D02*
X64Y1094D01*
X10Y1093D02*
X65Y1093D01*
X9Y1092D02*
X66Y1092D01*
X8Y1091D02*
X67Y1091D01*
X7Y1090D02*
X68Y1090D01*
X6Y1089D02*
X69Y1089D01*
X5Y1088D02*
X70Y1088D01*
X4Y1087D02*
X71Y1087D01*
X4Y1086D02*
X71Y1086D01*
X3Y1085D02*
X72Y1085D01*
X2Y1084D02*
X73Y1084D01*
X1Y1083D02*
X74Y1083D01*
X1Y1082D02*
X74Y1082D01*
X0Y1081D02*
X75Y1081D01*
X0Y1080D02*
X76Y1080D01*
X0Y1079D02*
X76Y1079D01*
X0Y1078D02*
X77Y1078D01*
X0Y1077D02*
X77Y1077D01*
X0Y1076D02*
X78Y1076D01*
X0Y1075D02*
X78Y1075D01*
X0Y1074D02*
X78Y1074D01*
X0Y1073D02*
X79Y1073D01*
X0Y1072D02*
X79Y1072D01*
X0Y1071D02*
X79Y1071D01*
X0Y1070D02*
X80Y1070D01*
X0Y1069D02*
X80Y1069D01*
X0Y1068D02*
X80Y1068D01*
X0Y1067D02*
X80Y1067D01*
X0Y1066D02*
X81Y1066D01*
X0Y1065D02*
X81Y1065D01*
X0Y1064D02*
X81Y1064D01*
X0Y1063D02*
X81Y1063D01*
X0Y1062D02*
X81Y1062D01*
X0Y1061D02*
X81Y1061D01*
X0Y1060D02*
X81Y1060D01*
X0Y1059D02*
X81Y1059D01*
X0Y1058D02*
X81Y1058D01*
X0Y1057D02*
X81Y1057D01*
X0Y1056D02*
X81Y1056D01*
X0Y1055D02*
X81Y1055D01*
X0Y1054D02*
X80Y1054D01*
X0Y1053D02*
X80Y1053D01*
X0Y1052D02*
X80Y1052D01*
X0Y1051D02*
X80Y1051D01*
X0Y1050D02*
X79Y1050D01*
X0Y1049D02*
X79Y1049D01*
X0Y1048D02*
X79Y1048D01*
X0Y1047D02*
X78Y1047D01*
X0Y1046D02*
X78Y1046D01*
X0Y1045D02*
X78Y1045D01*
X0Y1044D02*
X77Y1044D01*
X0Y1043D02*
X77Y1043D01*
X0Y1042D02*
X76Y1042D01*
X0Y1041D02*
X76Y1041D01*
X0Y1040D02*
X75Y1040D01*
X1Y1039D02*
X74Y1039D01*
X1Y1038D02*
X74Y1038D01*
X2Y1037D02*
X73Y1037D01*
X3Y1036D02*
X72Y1036D01*
X3Y1035D02*
X72Y1035D01*
X4Y1034D02*
X71Y1034D01*
X5Y1033D02*
X70Y1033D01*
X6Y1032D02*
X69Y1032D01*
X7Y1031D02*
X68Y1031D01*
X8Y1030D02*
X67Y1030D01*
X9Y1029D02*
X66Y1029D01*
X10Y1028D02*
X65Y1028D01*
X11Y1027D02*
X64Y1027D01*
X12Y1026D02*
X63Y1026D01*
X14Y1025D02*
X61Y1025D01*
X15Y1024D02*
X60Y1024D01*
X17Y1023D02*
X58Y1023D01*
X18Y1022D02*
X57Y1022D01*
X20Y1021D02*
X55Y1021D01*
X22Y1020D02*
X53Y1020D01*
X25Y1019D02*
X50Y1019D01*
X28Y1018D02*
X47Y1018D01*
X32Y1017D02*
X43Y1017D01*
D02*
G04 End of Mask1*
M02*