G04 MADE WITH FRITZING*
G04 WWW.FRITZING.ORG*
G04 DOUBLE SIDED*
G04 HOLES PLATED*
G04 CONTOUR ON CENTER OF CONTOUR VECTOR*
%ASAXBY*%
%FSLAX23Y23*%
%MOIN*%
%OFA0B0*%
%SFA1.0B1.0*%
%ADD10C,0.039370*%
%ADD11C,0.068000*%
%ADD12C,0.082000*%
%ADD13C,0.078000*%
%ADD14C,0.048000*%
%ADD15C,0.052000*%
%ADD16R,0.082000X0.082000*%
%ADD17C,0.024000*%
%ADD18R,0.001000X0.001000*%
%LNCOPPER0*%
G90*
G70*
G54D10*
X1838Y360D03*
X2238Y360D03*
X1438Y160D03*
X1038Y160D03*
X638Y360D03*
X238Y360D03*
X238Y60D03*
X2038Y60D03*
G54D11*
X1438Y1160D03*
X1338Y1160D03*
X1538Y1160D03*
X1638Y1160D03*
X1238Y1160D03*
X1138Y1160D03*
X1038Y1160D03*
X938Y1160D03*
X838Y1160D03*
X738Y1160D03*
X638Y1160D03*
X538Y1160D03*
X1338Y460D03*
X1438Y460D03*
X1538Y460D03*
X1638Y460D03*
X1238Y460D03*
X1138Y460D03*
X1038Y460D03*
X938Y460D03*
X738Y460D03*
X838Y460D03*
X638Y460D03*
X538Y460D03*
G54D12*
X338Y260D03*
X238Y260D03*
X138Y260D03*
X738Y260D03*
X638Y260D03*
X538Y260D03*
X1138Y260D03*
X1038Y260D03*
X938Y260D03*
X2338Y260D03*
X2238Y260D03*
X2138Y260D03*
X1938Y260D03*
X1838Y260D03*
X1738Y260D03*
X1538Y260D03*
X1438Y260D03*
X1338Y260D03*
G54D13*
X238Y860D03*
X238Y760D03*
X238Y660D03*
X338Y60D03*
X438Y60D03*
X538Y60D03*
X638Y60D03*
X1638Y60D03*
X1738Y60D03*
X1838Y60D03*
X1938Y60D03*
G54D14*
X38Y1060D03*
G54D13*
X138Y1060D03*
G54D15*
X38Y1160D03*
G54D12*
X138Y1160D03*
X238Y1160D03*
G54D10*
X38Y960D03*
X338Y660D03*
X1038Y1060D03*
X838Y1060D03*
X338Y760D03*
G54D16*
X338Y260D03*
X738Y260D03*
X1138Y260D03*
X2338Y260D03*
X1938Y260D03*
X1538Y260D03*
G54D17*
X338Y560D02*
X737Y561D01*
D02*
X737Y561D02*
X738Y489D01*
D02*
X338Y292D02*
X338Y560D01*
D02*
X737Y361D02*
X838Y360D01*
D02*
X838Y360D02*
X838Y431D01*
D02*
X738Y292D02*
X737Y361D01*
D02*
X1138Y360D02*
X938Y360D01*
D02*
X938Y360D02*
X938Y431D01*
D02*
X1138Y292D02*
X1138Y360D01*
D02*
X1938Y560D02*
X1138Y561D01*
D02*
X1138Y561D02*
X1138Y489D01*
D02*
X1938Y292D02*
X1938Y560D01*
D02*
X2338Y1161D02*
X1667Y1160D01*
D02*
X2338Y292D02*
X2338Y1161D01*
D02*
X2238Y341D02*
X2238Y292D01*
D02*
X1838Y341D02*
X1838Y292D01*
D02*
X1438Y179D02*
X1438Y228D01*
D02*
X1038Y179D02*
X1038Y228D01*
D02*
X638Y341D02*
X638Y292D01*
D02*
X238Y341D02*
X238Y292D01*
D02*
X538Y228D02*
X538Y90D01*
D02*
X138Y160D02*
X439Y160D01*
D02*
X439Y160D02*
X438Y90D01*
D02*
X138Y228D02*
X138Y160D01*
D02*
X938Y228D02*
X939Y61D01*
D02*
X939Y61D02*
X668Y60D01*
D02*
X1338Y228D02*
X1338Y61D01*
D02*
X1338Y61D02*
X1608Y60D01*
D02*
X1738Y228D02*
X1738Y90D01*
D02*
X2138Y160D02*
X1838Y160D01*
D02*
X1838Y160D02*
X1838Y90D01*
D02*
X2138Y228D02*
X2138Y160D01*
D02*
X1638Y361D02*
X1819Y360D01*
D02*
X1638Y160D02*
X1638Y361D01*
D02*
X1457Y160D02*
X1638Y160D01*
D02*
X257Y60D02*
X308Y60D01*
D02*
X2019Y60D02*
X1968Y60D01*
D02*
X238Y1128D02*
X238Y890D01*
D02*
X1239Y360D02*
X1238Y431D01*
D02*
X1538Y292D02*
X1538Y360D01*
D02*
X1538Y360D02*
X1239Y360D01*
D02*
X638Y379D02*
X638Y431D01*
D02*
X270Y1160D02*
X509Y1160D01*
D02*
X38Y1128D02*
X38Y1090D01*
D02*
X138Y1090D02*
X138Y1128D01*
D02*
X138Y760D02*
X208Y760D01*
D02*
X138Y1030D02*
X138Y760D01*
D02*
X38Y979D02*
X38Y1030D01*
D02*
X1038Y1131D02*
X1038Y1079D01*
D02*
X268Y660D02*
X319Y660D01*
D02*
X268Y760D02*
X319Y760D01*
D02*
X838Y1131D02*
X838Y1079D01*
G54D18*
X0Y1201D02*
X78Y1201D01*
X0Y1200D02*
X78Y1200D01*
X0Y1199D02*
X78Y1199D01*
X0Y1198D02*
X78Y1198D01*
X0Y1197D02*
X78Y1197D01*
X0Y1196D02*
X78Y1196D01*
X0Y1195D02*
X78Y1195D01*
X0Y1194D02*
X78Y1194D01*
X534Y1194D02*
X541Y1194D01*
X634Y1194D02*
X641Y1194D01*
X734Y1194D02*
X741Y1194D01*
X834Y1194D02*
X841Y1194D01*
X934Y1194D02*
X941Y1194D01*
X1034Y1194D02*
X1041Y1194D01*
X1134Y1194D02*
X1141Y1194D01*
X1234Y1194D02*
X1241Y1194D01*
X1334Y1194D02*
X1341Y1194D01*
X1434Y1194D02*
X1441Y1194D01*
X1533Y1194D02*
X1541Y1194D01*
X1633Y1194D02*
X1641Y1194D01*
X0Y1193D02*
X78Y1193D01*
X529Y1193D02*
X546Y1193D01*
X629Y1193D02*
X646Y1193D01*
X729Y1193D02*
X746Y1193D01*
X829Y1193D02*
X846Y1193D01*
X929Y1193D02*
X946Y1193D01*
X1029Y1193D02*
X1046Y1193D01*
X1129Y1193D02*
X1146Y1193D01*
X1229Y1193D02*
X1246Y1193D01*
X1329Y1193D02*
X1346Y1193D01*
X1429Y1193D02*
X1446Y1193D01*
X1529Y1193D02*
X1546Y1193D01*
X1629Y1193D02*
X1646Y1193D01*
X0Y1192D02*
X78Y1192D01*
X526Y1192D02*
X549Y1192D01*
X626Y1192D02*
X649Y1192D01*
X726Y1192D02*
X749Y1192D01*
X826Y1192D02*
X849Y1192D01*
X926Y1192D02*
X949Y1192D01*
X1026Y1192D02*
X1049Y1192D01*
X1126Y1192D02*
X1149Y1192D01*
X1226Y1192D02*
X1249Y1192D01*
X1326Y1192D02*
X1349Y1192D01*
X1426Y1192D02*
X1449Y1192D01*
X1526Y1192D02*
X1549Y1192D01*
X1626Y1192D02*
X1649Y1192D01*
X0Y1191D02*
X78Y1191D01*
X524Y1191D02*
X551Y1191D01*
X624Y1191D02*
X651Y1191D01*
X724Y1191D02*
X751Y1191D01*
X824Y1191D02*
X851Y1191D01*
X924Y1191D02*
X951Y1191D01*
X1024Y1191D02*
X1051Y1191D01*
X1124Y1191D02*
X1151Y1191D01*
X1224Y1191D02*
X1251Y1191D01*
X1324Y1191D02*
X1351Y1191D01*
X1424Y1191D02*
X1451Y1191D01*
X1524Y1191D02*
X1551Y1191D01*
X1624Y1191D02*
X1651Y1191D01*
X0Y1190D02*
X78Y1190D01*
X522Y1190D02*
X553Y1190D01*
X622Y1190D02*
X653Y1190D01*
X722Y1190D02*
X753Y1190D01*
X822Y1190D02*
X853Y1190D01*
X922Y1190D02*
X953Y1190D01*
X1022Y1190D02*
X1053Y1190D01*
X1122Y1190D02*
X1153Y1190D01*
X1222Y1190D02*
X1253Y1190D01*
X1322Y1190D02*
X1353Y1190D01*
X1422Y1190D02*
X1453Y1190D01*
X1522Y1190D02*
X1553Y1190D01*
X1622Y1190D02*
X1653Y1190D01*
X0Y1189D02*
X78Y1189D01*
X521Y1189D02*
X555Y1189D01*
X620Y1189D02*
X655Y1189D01*
X720Y1189D02*
X755Y1189D01*
X820Y1189D02*
X855Y1189D01*
X920Y1189D02*
X955Y1189D01*
X1020Y1189D02*
X1055Y1189D01*
X1120Y1189D02*
X1155Y1189D01*
X1220Y1189D02*
X1255Y1189D01*
X1320Y1189D02*
X1355Y1189D01*
X1420Y1189D02*
X1455Y1189D01*
X1520Y1189D02*
X1555Y1189D01*
X1620Y1189D02*
X1655Y1189D01*
X0Y1188D02*
X78Y1188D01*
X519Y1188D02*
X556Y1188D01*
X619Y1188D02*
X656Y1188D01*
X719Y1188D02*
X756Y1188D01*
X819Y1188D02*
X856Y1188D01*
X919Y1188D02*
X956Y1188D01*
X1019Y1188D02*
X1056Y1188D01*
X1119Y1188D02*
X1156Y1188D01*
X1219Y1188D02*
X1256Y1188D01*
X1319Y1188D02*
X1356Y1188D01*
X1419Y1188D02*
X1456Y1188D01*
X1519Y1188D02*
X1556Y1188D01*
X1619Y1188D02*
X1656Y1188D01*
X0Y1187D02*
X78Y1187D01*
X518Y1187D02*
X558Y1187D01*
X618Y1187D02*
X658Y1187D01*
X718Y1187D02*
X758Y1187D01*
X818Y1187D02*
X858Y1187D01*
X918Y1187D02*
X957Y1187D01*
X1018Y1187D02*
X1057Y1187D01*
X1118Y1187D02*
X1157Y1187D01*
X1217Y1187D02*
X1257Y1187D01*
X1317Y1187D02*
X1357Y1187D01*
X1417Y1187D02*
X1457Y1187D01*
X1517Y1187D02*
X1557Y1187D01*
X1617Y1187D02*
X1657Y1187D01*
X0Y1186D02*
X78Y1186D01*
X516Y1186D02*
X559Y1186D01*
X616Y1186D02*
X659Y1186D01*
X716Y1186D02*
X759Y1186D01*
X816Y1186D02*
X859Y1186D01*
X916Y1186D02*
X959Y1186D01*
X1016Y1186D02*
X1059Y1186D01*
X1116Y1186D02*
X1159Y1186D01*
X1216Y1186D02*
X1259Y1186D01*
X1316Y1186D02*
X1359Y1186D01*
X1416Y1186D02*
X1459Y1186D01*
X1516Y1186D02*
X1559Y1186D01*
X1616Y1186D02*
X1659Y1186D01*
X0Y1185D02*
X78Y1185D01*
X515Y1185D02*
X560Y1185D01*
X615Y1185D02*
X660Y1185D01*
X715Y1185D02*
X760Y1185D01*
X815Y1185D02*
X860Y1185D01*
X915Y1185D02*
X960Y1185D01*
X1015Y1185D02*
X1060Y1185D01*
X1115Y1185D02*
X1160Y1185D01*
X1215Y1185D02*
X1260Y1185D01*
X1315Y1185D02*
X1360Y1185D01*
X1415Y1185D02*
X1460Y1185D01*
X1515Y1185D02*
X1560Y1185D01*
X1615Y1185D02*
X1660Y1185D01*
X0Y1184D02*
X78Y1184D01*
X514Y1184D02*
X561Y1184D01*
X614Y1184D02*
X661Y1184D01*
X714Y1184D02*
X761Y1184D01*
X814Y1184D02*
X861Y1184D01*
X914Y1184D02*
X961Y1184D01*
X1014Y1184D02*
X1061Y1184D01*
X1114Y1184D02*
X1161Y1184D01*
X1214Y1184D02*
X1261Y1184D01*
X1314Y1184D02*
X1361Y1184D01*
X1414Y1184D02*
X1461Y1184D01*
X1514Y1184D02*
X1561Y1184D01*
X1614Y1184D02*
X1661Y1184D01*
X0Y1183D02*
X78Y1183D01*
X513Y1183D02*
X562Y1183D01*
X613Y1183D02*
X662Y1183D01*
X713Y1183D02*
X762Y1183D01*
X813Y1183D02*
X862Y1183D01*
X913Y1183D02*
X962Y1183D01*
X1013Y1183D02*
X1062Y1183D01*
X1113Y1183D02*
X1162Y1183D01*
X1213Y1183D02*
X1262Y1183D01*
X1313Y1183D02*
X1362Y1183D01*
X1413Y1183D02*
X1462Y1183D01*
X1513Y1183D02*
X1562Y1183D01*
X1613Y1183D02*
X1662Y1183D01*
X0Y1182D02*
X78Y1182D01*
X512Y1182D02*
X563Y1182D01*
X612Y1182D02*
X663Y1182D01*
X712Y1182D02*
X763Y1182D01*
X812Y1182D02*
X863Y1182D01*
X912Y1182D02*
X963Y1182D01*
X1012Y1182D02*
X1063Y1182D01*
X1112Y1182D02*
X1163Y1182D01*
X1212Y1182D02*
X1263Y1182D01*
X1312Y1182D02*
X1363Y1182D01*
X1412Y1182D02*
X1463Y1182D01*
X1512Y1182D02*
X1563Y1182D01*
X1612Y1182D02*
X1663Y1182D01*
X0Y1181D02*
X33Y1181D01*
X42Y1181D02*
X78Y1181D01*
X512Y1181D02*
X564Y1181D01*
X612Y1181D02*
X664Y1181D01*
X711Y1181D02*
X764Y1181D01*
X811Y1181D02*
X864Y1181D01*
X911Y1181D02*
X963Y1181D01*
X1011Y1181D02*
X1063Y1181D01*
X1111Y1181D02*
X1163Y1181D01*
X1211Y1181D02*
X1263Y1181D01*
X1311Y1181D02*
X1363Y1181D01*
X1411Y1181D02*
X1463Y1181D01*
X1511Y1181D02*
X1563Y1181D01*
X1611Y1181D02*
X1663Y1181D01*
X0Y1180D02*
X29Y1180D01*
X46Y1180D02*
X78Y1180D01*
X511Y1180D02*
X564Y1180D01*
X611Y1180D02*
X664Y1180D01*
X711Y1180D02*
X764Y1180D01*
X811Y1180D02*
X864Y1180D01*
X911Y1180D02*
X964Y1180D01*
X1011Y1180D02*
X1064Y1180D01*
X1111Y1180D02*
X1164Y1180D01*
X1211Y1180D02*
X1264Y1180D01*
X1311Y1180D02*
X1364Y1180D01*
X1411Y1180D02*
X1464Y1180D01*
X1511Y1180D02*
X1564Y1180D01*
X1611Y1180D02*
X1664Y1180D01*
X0Y1179D02*
X26Y1179D01*
X49Y1179D02*
X78Y1179D01*
X510Y1179D02*
X565Y1179D01*
X610Y1179D02*
X665Y1179D01*
X710Y1179D02*
X765Y1179D01*
X810Y1179D02*
X865Y1179D01*
X910Y1179D02*
X965Y1179D01*
X1010Y1179D02*
X1065Y1179D01*
X1110Y1179D02*
X1165Y1179D01*
X1210Y1179D02*
X1265Y1179D01*
X1310Y1179D02*
X1365Y1179D01*
X1410Y1179D02*
X1465Y1179D01*
X1510Y1179D02*
X1565Y1179D01*
X1610Y1179D02*
X1665Y1179D01*
X0Y1178D02*
X25Y1178D01*
X51Y1178D02*
X78Y1178D01*
X509Y1178D02*
X533Y1178D01*
X542Y1178D02*
X566Y1178D01*
X609Y1178D02*
X633Y1178D01*
X642Y1178D02*
X666Y1178D01*
X709Y1178D02*
X733Y1178D01*
X742Y1178D02*
X766Y1178D01*
X809Y1178D02*
X833Y1178D01*
X842Y1178D02*
X866Y1178D01*
X909Y1178D02*
X933Y1178D01*
X942Y1178D02*
X966Y1178D01*
X1009Y1178D02*
X1033Y1178D01*
X1042Y1178D02*
X1066Y1178D01*
X1109Y1178D02*
X1133Y1178D01*
X1142Y1178D02*
X1166Y1178D01*
X1209Y1178D02*
X1233Y1178D01*
X1242Y1178D02*
X1266Y1178D01*
X1309Y1178D02*
X1333Y1178D01*
X1342Y1178D02*
X1365Y1178D01*
X1409Y1178D02*
X1433Y1178D01*
X1442Y1178D02*
X1465Y1178D01*
X1509Y1178D02*
X1533Y1178D01*
X1542Y1178D02*
X1565Y1178D01*
X1609Y1178D02*
X1633Y1178D01*
X1642Y1178D02*
X1665Y1178D01*
X0Y1177D02*
X23Y1177D01*
X52Y1177D02*
X78Y1177D01*
X509Y1177D02*
X529Y1177D01*
X546Y1177D02*
X566Y1177D01*
X609Y1177D02*
X629Y1177D01*
X646Y1177D02*
X666Y1177D01*
X709Y1177D02*
X729Y1177D01*
X746Y1177D02*
X766Y1177D01*
X809Y1177D02*
X829Y1177D01*
X846Y1177D02*
X866Y1177D01*
X909Y1177D02*
X929Y1177D01*
X946Y1177D02*
X966Y1177D01*
X1009Y1177D02*
X1029Y1177D01*
X1046Y1177D02*
X1066Y1177D01*
X1109Y1177D02*
X1129Y1177D01*
X1146Y1177D02*
X1166Y1177D01*
X1209Y1177D02*
X1229Y1177D01*
X1246Y1177D02*
X1266Y1177D01*
X1309Y1177D02*
X1329Y1177D01*
X1346Y1177D02*
X1366Y1177D01*
X1409Y1177D02*
X1429Y1177D01*
X1446Y1177D02*
X1466Y1177D01*
X1508Y1177D02*
X1529Y1177D01*
X1546Y1177D02*
X1566Y1177D01*
X1608Y1177D02*
X1629Y1177D01*
X1646Y1177D02*
X1666Y1177D01*
X0Y1176D02*
X22Y1176D01*
X53Y1176D02*
X78Y1176D01*
X508Y1176D02*
X527Y1176D01*
X548Y1176D02*
X567Y1176D01*
X608Y1176D02*
X627Y1176D01*
X648Y1176D02*
X667Y1176D01*
X708Y1176D02*
X727Y1176D01*
X748Y1176D02*
X767Y1176D01*
X808Y1176D02*
X827Y1176D01*
X848Y1176D02*
X867Y1176D01*
X908Y1176D02*
X927Y1176D01*
X948Y1176D02*
X967Y1176D01*
X1008Y1176D02*
X1027Y1176D01*
X1048Y1176D02*
X1067Y1176D01*
X1108Y1176D02*
X1127Y1176D01*
X1148Y1176D02*
X1167Y1176D01*
X1208Y1176D02*
X1227Y1176D01*
X1248Y1176D02*
X1267Y1176D01*
X1308Y1176D02*
X1327Y1176D01*
X1348Y1176D02*
X1367Y1176D01*
X1408Y1176D02*
X1427Y1176D01*
X1448Y1176D02*
X1467Y1176D01*
X1508Y1176D02*
X1527Y1176D01*
X1548Y1176D02*
X1567Y1176D01*
X1608Y1176D02*
X1627Y1176D01*
X1648Y1176D02*
X1667Y1176D01*
X0Y1175D02*
X21Y1175D01*
X54Y1175D02*
X78Y1175D01*
X508Y1175D02*
X526Y1175D01*
X550Y1175D02*
X567Y1175D01*
X608Y1175D02*
X626Y1175D01*
X650Y1175D02*
X667Y1175D01*
X708Y1175D02*
X726Y1175D01*
X750Y1175D02*
X767Y1175D01*
X808Y1175D02*
X825Y1175D01*
X850Y1175D02*
X867Y1175D01*
X908Y1175D02*
X925Y1175D01*
X950Y1175D02*
X967Y1175D01*
X1007Y1175D02*
X1025Y1175D01*
X1050Y1175D02*
X1067Y1175D01*
X1107Y1175D02*
X1125Y1175D01*
X1150Y1175D02*
X1167Y1175D01*
X1207Y1175D02*
X1225Y1175D01*
X1250Y1175D02*
X1267Y1175D01*
X1307Y1175D02*
X1325Y1175D01*
X1349Y1175D02*
X1367Y1175D01*
X1407Y1175D02*
X1425Y1175D01*
X1449Y1175D02*
X1467Y1175D01*
X1507Y1175D02*
X1525Y1175D01*
X1549Y1175D02*
X1567Y1175D01*
X1607Y1175D02*
X1625Y1175D01*
X1649Y1175D02*
X1667Y1175D01*
X0Y1174D02*
X20Y1174D01*
X55Y1174D02*
X78Y1174D01*
X507Y1174D02*
X524Y1174D01*
X551Y1174D02*
X568Y1174D01*
X607Y1174D02*
X624Y1174D01*
X651Y1174D02*
X668Y1174D01*
X707Y1174D02*
X724Y1174D01*
X751Y1174D02*
X768Y1174D01*
X807Y1174D02*
X824Y1174D01*
X851Y1174D02*
X868Y1174D01*
X907Y1174D02*
X924Y1174D01*
X951Y1174D02*
X968Y1174D01*
X1007Y1174D02*
X1024Y1174D01*
X1051Y1174D02*
X1068Y1174D01*
X1107Y1174D02*
X1124Y1174D01*
X1151Y1174D02*
X1168Y1174D01*
X1207Y1174D02*
X1224Y1174D01*
X1251Y1174D02*
X1268Y1174D01*
X1307Y1174D02*
X1324Y1174D01*
X1351Y1174D02*
X1368Y1174D01*
X1407Y1174D02*
X1424Y1174D01*
X1451Y1174D02*
X1468Y1174D01*
X1507Y1174D02*
X1524Y1174D01*
X1551Y1174D02*
X1568Y1174D01*
X1607Y1174D02*
X1624Y1174D01*
X1651Y1174D02*
X1668Y1174D01*
X0Y1173D02*
X20Y1173D01*
X56Y1173D02*
X78Y1173D01*
X507Y1173D02*
X523Y1173D01*
X552Y1173D02*
X568Y1173D01*
X607Y1173D02*
X623Y1173D01*
X652Y1173D02*
X668Y1173D01*
X707Y1173D02*
X723Y1173D01*
X752Y1173D02*
X768Y1173D01*
X807Y1173D02*
X823Y1173D01*
X852Y1173D02*
X868Y1173D01*
X907Y1173D02*
X923Y1173D01*
X952Y1173D02*
X968Y1173D01*
X1007Y1173D02*
X1023Y1173D01*
X1052Y1173D02*
X1068Y1173D01*
X1106Y1173D02*
X1123Y1173D01*
X1152Y1173D02*
X1168Y1173D01*
X1206Y1173D02*
X1223Y1173D01*
X1252Y1173D02*
X1268Y1173D01*
X1306Y1173D02*
X1323Y1173D01*
X1352Y1173D02*
X1368Y1173D01*
X1406Y1173D02*
X1423Y1173D01*
X1452Y1173D02*
X1468Y1173D01*
X1506Y1173D02*
X1523Y1173D01*
X1552Y1173D02*
X1568Y1173D01*
X1606Y1173D02*
X1623Y1173D01*
X1652Y1173D02*
X1668Y1173D01*
X0Y1172D02*
X19Y1172D01*
X56Y1172D02*
X78Y1172D01*
X506Y1172D02*
X522Y1172D01*
X553Y1172D02*
X569Y1172D01*
X606Y1172D02*
X622Y1172D01*
X653Y1172D02*
X669Y1172D01*
X706Y1172D02*
X722Y1172D01*
X753Y1172D02*
X769Y1172D01*
X806Y1172D02*
X822Y1172D01*
X853Y1172D02*
X869Y1172D01*
X906Y1172D02*
X922Y1172D01*
X953Y1172D02*
X969Y1172D01*
X1006Y1172D02*
X1022Y1172D01*
X1053Y1172D02*
X1069Y1172D01*
X1106Y1172D02*
X1122Y1172D01*
X1153Y1172D02*
X1169Y1172D01*
X1206Y1172D02*
X1222Y1172D01*
X1252Y1172D02*
X1269Y1172D01*
X1306Y1172D02*
X1322Y1172D01*
X1352Y1172D02*
X1369Y1172D01*
X1406Y1172D02*
X1422Y1172D01*
X1452Y1172D02*
X1468Y1172D01*
X1506Y1172D02*
X1522Y1172D01*
X1552Y1172D02*
X1568Y1172D01*
X1606Y1172D02*
X1622Y1172D01*
X1652Y1172D02*
X1668Y1172D01*
X0Y1171D02*
X18Y1171D01*
X57Y1171D02*
X78Y1171D01*
X506Y1171D02*
X522Y1171D01*
X553Y1171D02*
X569Y1171D01*
X606Y1171D02*
X622Y1171D01*
X653Y1171D02*
X669Y1171D01*
X706Y1171D02*
X722Y1171D01*
X753Y1171D02*
X769Y1171D01*
X806Y1171D02*
X822Y1171D01*
X853Y1171D02*
X869Y1171D01*
X906Y1171D02*
X922Y1171D01*
X953Y1171D02*
X969Y1171D01*
X1006Y1171D02*
X1022Y1171D01*
X1053Y1171D02*
X1069Y1171D01*
X1106Y1171D02*
X1122Y1171D01*
X1153Y1171D02*
X1169Y1171D01*
X1206Y1171D02*
X1222Y1171D01*
X1253Y1171D02*
X1269Y1171D01*
X1306Y1171D02*
X1322Y1171D01*
X1353Y1171D02*
X1369Y1171D01*
X1406Y1171D02*
X1422Y1171D01*
X1453Y1171D02*
X1469Y1171D01*
X1506Y1171D02*
X1521Y1171D01*
X1553Y1171D02*
X1569Y1171D01*
X1606Y1171D02*
X1621Y1171D01*
X1653Y1171D02*
X1669Y1171D01*
X0Y1170D02*
X18Y1170D01*
X57Y1170D02*
X78Y1170D01*
X505Y1170D02*
X521Y1170D01*
X554Y1170D02*
X569Y1170D01*
X605Y1170D02*
X621Y1170D01*
X654Y1170D02*
X669Y1170D01*
X705Y1170D02*
X721Y1170D01*
X754Y1170D02*
X769Y1170D01*
X805Y1170D02*
X821Y1170D01*
X854Y1170D02*
X869Y1170D01*
X905Y1170D02*
X921Y1170D01*
X954Y1170D02*
X969Y1170D01*
X1005Y1170D02*
X1021Y1170D01*
X1054Y1170D02*
X1069Y1170D01*
X1105Y1170D02*
X1121Y1170D01*
X1154Y1170D02*
X1169Y1170D01*
X1205Y1170D02*
X1221Y1170D01*
X1254Y1170D02*
X1269Y1170D01*
X1305Y1170D02*
X1321Y1170D01*
X1354Y1170D02*
X1369Y1170D01*
X1405Y1170D02*
X1421Y1170D01*
X1454Y1170D02*
X1469Y1170D01*
X1505Y1170D02*
X1521Y1170D01*
X1554Y1170D02*
X1569Y1170D01*
X1605Y1170D02*
X1621Y1170D01*
X1654Y1170D02*
X1669Y1170D01*
X0Y1169D02*
X17Y1169D01*
X58Y1169D02*
X78Y1169D01*
X505Y1169D02*
X521Y1169D01*
X554Y1169D02*
X570Y1169D01*
X605Y1169D02*
X621Y1169D01*
X654Y1169D02*
X670Y1169D01*
X705Y1169D02*
X721Y1169D01*
X754Y1169D02*
X770Y1169D01*
X805Y1169D02*
X821Y1169D01*
X854Y1169D02*
X870Y1169D01*
X905Y1169D02*
X921Y1169D01*
X954Y1169D02*
X970Y1169D01*
X1005Y1169D02*
X1021Y1169D01*
X1054Y1169D02*
X1070Y1169D01*
X1105Y1169D02*
X1121Y1169D01*
X1154Y1169D02*
X1170Y1169D01*
X1205Y1169D02*
X1221Y1169D01*
X1254Y1169D02*
X1270Y1169D01*
X1305Y1169D02*
X1321Y1169D01*
X1354Y1169D02*
X1369Y1169D01*
X1405Y1169D02*
X1420Y1169D01*
X1454Y1169D02*
X1469Y1169D01*
X1505Y1169D02*
X1520Y1169D01*
X1554Y1169D02*
X1569Y1169D01*
X1605Y1169D02*
X1620Y1169D01*
X1654Y1169D02*
X1669Y1169D01*
X0Y1168D02*
X17Y1168D01*
X58Y1168D02*
X78Y1168D01*
X505Y1168D02*
X520Y1168D01*
X555Y1168D02*
X570Y1168D01*
X605Y1168D02*
X620Y1168D01*
X655Y1168D02*
X670Y1168D01*
X705Y1168D02*
X720Y1168D01*
X755Y1168D02*
X770Y1168D01*
X805Y1168D02*
X820Y1168D01*
X855Y1168D02*
X870Y1168D01*
X905Y1168D02*
X920Y1168D01*
X955Y1168D02*
X970Y1168D01*
X1005Y1168D02*
X1020Y1168D01*
X1055Y1168D02*
X1070Y1168D01*
X1105Y1168D02*
X1120Y1168D01*
X1155Y1168D02*
X1170Y1168D01*
X1205Y1168D02*
X1220Y1168D01*
X1255Y1168D02*
X1270Y1168D01*
X1305Y1168D02*
X1320Y1168D01*
X1355Y1168D02*
X1370Y1168D01*
X1405Y1168D02*
X1420Y1168D01*
X1455Y1168D02*
X1470Y1168D01*
X1505Y1168D02*
X1520Y1168D01*
X1554Y1168D02*
X1570Y1168D01*
X1605Y1168D02*
X1620Y1168D01*
X1654Y1168D02*
X1670Y1168D01*
X0Y1167D02*
X17Y1167D01*
X58Y1167D02*
X78Y1167D01*
X505Y1167D02*
X520Y1167D01*
X555Y1167D02*
X570Y1167D01*
X605Y1167D02*
X620Y1167D01*
X655Y1167D02*
X670Y1167D01*
X705Y1167D02*
X720Y1167D01*
X755Y1167D02*
X770Y1167D01*
X805Y1167D02*
X820Y1167D01*
X855Y1167D02*
X870Y1167D01*
X905Y1167D02*
X920Y1167D01*
X955Y1167D02*
X970Y1167D01*
X1005Y1167D02*
X1020Y1167D01*
X1055Y1167D02*
X1070Y1167D01*
X1105Y1167D02*
X1120Y1167D01*
X1155Y1167D02*
X1170Y1167D01*
X1204Y1167D02*
X1220Y1167D01*
X1255Y1167D02*
X1270Y1167D01*
X1304Y1167D02*
X1320Y1167D01*
X1355Y1167D02*
X1370Y1167D01*
X1404Y1167D02*
X1420Y1167D01*
X1455Y1167D02*
X1470Y1167D01*
X1504Y1167D02*
X1520Y1167D01*
X1555Y1167D02*
X1570Y1167D01*
X1604Y1167D02*
X1620Y1167D01*
X1655Y1167D02*
X1670Y1167D01*
X0Y1166D02*
X17Y1166D01*
X58Y1166D02*
X78Y1166D01*
X504Y1166D02*
X520Y1166D01*
X555Y1166D02*
X570Y1166D01*
X604Y1166D02*
X620Y1166D01*
X655Y1166D02*
X670Y1166D01*
X704Y1166D02*
X720Y1166D01*
X755Y1166D02*
X770Y1166D01*
X804Y1166D02*
X820Y1166D01*
X855Y1166D02*
X870Y1166D01*
X904Y1166D02*
X920Y1166D01*
X955Y1166D02*
X970Y1166D01*
X1004Y1166D02*
X1020Y1166D01*
X1055Y1166D02*
X1070Y1166D01*
X1104Y1166D02*
X1120Y1166D01*
X1155Y1166D02*
X1170Y1166D01*
X1204Y1166D02*
X1219Y1166D01*
X1255Y1166D02*
X1270Y1166D01*
X1304Y1166D02*
X1319Y1166D01*
X1355Y1166D02*
X1370Y1166D01*
X1404Y1166D02*
X1419Y1166D01*
X1455Y1166D02*
X1470Y1166D01*
X1504Y1166D02*
X1519Y1166D01*
X1555Y1166D02*
X1570Y1166D01*
X1604Y1166D02*
X1619Y1166D01*
X1655Y1166D02*
X1670Y1166D01*
X0Y1165D02*
X16Y1165D01*
X59Y1165D02*
X78Y1165D01*
X504Y1165D02*
X519Y1165D01*
X555Y1165D02*
X571Y1165D01*
X604Y1165D02*
X619Y1165D01*
X655Y1165D02*
X671Y1165D01*
X704Y1165D02*
X719Y1165D01*
X755Y1165D02*
X770Y1165D01*
X804Y1165D02*
X819Y1165D01*
X855Y1165D02*
X870Y1165D01*
X904Y1165D02*
X919Y1165D01*
X955Y1165D02*
X970Y1165D01*
X1004Y1165D02*
X1019Y1165D01*
X1055Y1165D02*
X1070Y1165D01*
X1104Y1165D02*
X1119Y1165D01*
X1155Y1165D02*
X1170Y1165D01*
X1204Y1165D02*
X1219Y1165D01*
X1255Y1165D02*
X1270Y1165D01*
X1304Y1165D02*
X1319Y1165D01*
X1355Y1165D02*
X1370Y1165D01*
X1404Y1165D02*
X1419Y1165D01*
X1455Y1165D02*
X1470Y1165D01*
X1504Y1165D02*
X1519Y1165D01*
X1555Y1165D02*
X1570Y1165D01*
X1604Y1165D02*
X1619Y1165D01*
X1655Y1165D02*
X1670Y1165D01*
X0Y1164D02*
X16Y1164D01*
X59Y1164D02*
X78Y1164D01*
X504Y1164D02*
X519Y1164D01*
X556Y1164D02*
X571Y1164D01*
X604Y1164D02*
X619Y1164D01*
X656Y1164D02*
X671Y1164D01*
X704Y1164D02*
X719Y1164D01*
X756Y1164D02*
X771Y1164D01*
X804Y1164D02*
X819Y1164D01*
X856Y1164D02*
X871Y1164D01*
X904Y1164D02*
X919Y1164D01*
X956Y1164D02*
X971Y1164D01*
X1004Y1164D02*
X1019Y1164D01*
X1056Y1164D02*
X1071Y1164D01*
X1104Y1164D02*
X1119Y1164D01*
X1155Y1164D02*
X1171Y1164D01*
X1204Y1164D02*
X1219Y1164D01*
X1255Y1164D02*
X1271Y1164D01*
X1304Y1164D02*
X1319Y1164D01*
X1355Y1164D02*
X1370Y1164D01*
X1404Y1164D02*
X1419Y1164D01*
X1455Y1164D02*
X1470Y1164D01*
X1504Y1164D02*
X1519Y1164D01*
X1555Y1164D02*
X1570Y1164D01*
X1604Y1164D02*
X1619Y1164D01*
X1655Y1164D02*
X1670Y1164D01*
X0Y1163D02*
X16Y1163D01*
X59Y1163D02*
X78Y1163D01*
X504Y1163D02*
X519Y1163D01*
X556Y1163D02*
X571Y1163D01*
X604Y1163D02*
X619Y1163D01*
X656Y1163D02*
X671Y1163D01*
X704Y1163D02*
X719Y1163D01*
X756Y1163D02*
X771Y1163D01*
X804Y1163D02*
X819Y1163D01*
X856Y1163D02*
X871Y1163D01*
X904Y1163D02*
X919Y1163D01*
X956Y1163D02*
X971Y1163D01*
X1004Y1163D02*
X1019Y1163D01*
X1056Y1163D02*
X1071Y1163D01*
X1104Y1163D02*
X1119Y1163D01*
X1156Y1163D02*
X1171Y1163D01*
X1204Y1163D02*
X1219Y1163D01*
X1256Y1163D02*
X1271Y1163D01*
X1304Y1163D02*
X1319Y1163D01*
X1356Y1163D02*
X1371Y1163D01*
X1404Y1163D02*
X1419Y1163D01*
X1456Y1163D02*
X1471Y1163D01*
X1504Y1163D02*
X1519Y1163D01*
X1555Y1163D02*
X1571Y1163D01*
X1604Y1163D02*
X1619Y1163D01*
X1655Y1163D02*
X1671Y1163D01*
X0Y1162D02*
X16Y1162D01*
X59Y1162D02*
X78Y1162D01*
X504Y1162D02*
X519Y1162D01*
X556Y1162D02*
X571Y1162D01*
X604Y1162D02*
X619Y1162D01*
X656Y1162D02*
X671Y1162D01*
X704Y1162D02*
X719Y1162D01*
X756Y1162D02*
X771Y1162D01*
X804Y1162D02*
X819Y1162D01*
X856Y1162D02*
X871Y1162D01*
X904Y1162D02*
X919Y1162D01*
X956Y1162D02*
X971Y1162D01*
X1004Y1162D02*
X1019Y1162D01*
X1056Y1162D02*
X1071Y1162D01*
X1104Y1162D02*
X1119Y1162D01*
X1156Y1162D02*
X1171Y1162D01*
X1204Y1162D02*
X1219Y1162D01*
X1256Y1162D02*
X1271Y1162D01*
X1304Y1162D02*
X1319Y1162D01*
X1356Y1162D02*
X1371Y1162D01*
X1404Y1162D02*
X1419Y1162D01*
X1456Y1162D02*
X1471Y1162D01*
X1504Y1162D02*
X1519Y1162D01*
X1556Y1162D02*
X1571Y1162D01*
X1604Y1162D02*
X1619Y1162D01*
X1656Y1162D02*
X1671Y1162D01*
X0Y1161D02*
X16Y1161D01*
X59Y1161D02*
X78Y1161D01*
X504Y1161D02*
X519Y1161D01*
X556Y1161D02*
X571Y1161D01*
X604Y1161D02*
X619Y1161D01*
X656Y1161D02*
X671Y1161D01*
X704Y1161D02*
X719Y1161D01*
X756Y1161D02*
X771Y1161D01*
X804Y1161D02*
X819Y1161D01*
X856Y1161D02*
X871Y1161D01*
X904Y1161D02*
X919Y1161D01*
X956Y1161D02*
X971Y1161D01*
X1004Y1161D02*
X1019Y1161D01*
X1056Y1161D02*
X1071Y1161D01*
X1104Y1161D02*
X1119Y1161D01*
X1156Y1161D02*
X1171Y1161D01*
X1204Y1161D02*
X1219Y1161D01*
X1256Y1161D02*
X1271Y1161D01*
X1304Y1161D02*
X1319Y1161D01*
X1356Y1161D02*
X1371Y1161D01*
X1404Y1161D02*
X1419Y1161D01*
X1456Y1161D02*
X1471Y1161D01*
X1504Y1161D02*
X1519Y1161D01*
X1556Y1161D02*
X1571Y1161D01*
X1604Y1161D02*
X1619Y1161D01*
X1656Y1161D02*
X1671Y1161D01*
X0Y1160D02*
X16Y1160D01*
X59Y1160D02*
X78Y1160D01*
X504Y1160D02*
X519Y1160D01*
X556Y1160D02*
X571Y1160D01*
X604Y1160D02*
X619Y1160D01*
X656Y1160D02*
X671Y1160D01*
X704Y1160D02*
X719Y1160D01*
X756Y1160D02*
X771Y1160D01*
X804Y1160D02*
X819Y1160D01*
X856Y1160D02*
X871Y1160D01*
X904Y1160D02*
X919Y1160D01*
X956Y1160D02*
X971Y1160D01*
X1004Y1160D02*
X1019Y1160D01*
X1056Y1160D02*
X1071Y1160D01*
X1104Y1160D02*
X1119Y1160D01*
X1156Y1160D02*
X1171Y1160D01*
X1204Y1160D02*
X1219Y1160D01*
X1256Y1160D02*
X1271Y1160D01*
X1304Y1160D02*
X1319Y1160D01*
X1356Y1160D02*
X1371Y1160D01*
X1404Y1160D02*
X1419Y1160D01*
X1456Y1160D02*
X1471Y1160D01*
X1504Y1160D02*
X1519Y1160D01*
X1556Y1160D02*
X1571Y1160D01*
X1604Y1160D02*
X1619Y1160D01*
X1656Y1160D02*
X1671Y1160D01*
X0Y1159D02*
X16Y1159D01*
X59Y1159D02*
X78Y1159D01*
X504Y1159D02*
X519Y1159D01*
X556Y1159D02*
X571Y1159D01*
X604Y1159D02*
X619Y1159D01*
X656Y1159D02*
X671Y1159D01*
X704Y1159D02*
X719Y1159D01*
X756Y1159D02*
X771Y1159D01*
X804Y1159D02*
X819Y1159D01*
X856Y1159D02*
X871Y1159D01*
X904Y1159D02*
X919Y1159D01*
X956Y1159D02*
X971Y1159D01*
X1004Y1159D02*
X1019Y1159D01*
X1056Y1159D02*
X1071Y1159D01*
X1104Y1159D02*
X1119Y1159D01*
X1156Y1159D02*
X1171Y1159D01*
X1204Y1159D02*
X1219Y1159D01*
X1256Y1159D02*
X1271Y1159D01*
X1304Y1159D02*
X1319Y1159D01*
X1356Y1159D02*
X1371Y1159D01*
X1404Y1159D02*
X1419Y1159D01*
X1456Y1159D02*
X1471Y1159D01*
X1504Y1159D02*
X1519Y1159D01*
X1556Y1159D02*
X1571Y1159D01*
X1604Y1159D02*
X1619Y1159D01*
X1656Y1159D02*
X1671Y1159D01*
X0Y1158D02*
X16Y1158D01*
X59Y1158D02*
X78Y1158D01*
X504Y1158D02*
X519Y1158D01*
X556Y1158D02*
X571Y1158D01*
X604Y1158D02*
X619Y1158D01*
X656Y1158D02*
X671Y1158D01*
X704Y1158D02*
X719Y1158D01*
X756Y1158D02*
X771Y1158D01*
X804Y1158D02*
X819Y1158D01*
X856Y1158D02*
X871Y1158D01*
X904Y1158D02*
X919Y1158D01*
X956Y1158D02*
X971Y1158D01*
X1004Y1158D02*
X1019Y1158D01*
X1056Y1158D02*
X1071Y1158D01*
X1104Y1158D02*
X1119Y1158D01*
X1156Y1158D02*
X1171Y1158D01*
X1204Y1158D02*
X1219Y1158D01*
X1256Y1158D02*
X1271Y1158D01*
X1304Y1158D02*
X1319Y1158D01*
X1356Y1158D02*
X1371Y1158D01*
X1404Y1158D02*
X1419Y1158D01*
X1456Y1158D02*
X1471Y1158D01*
X1504Y1158D02*
X1519Y1158D01*
X1555Y1158D02*
X1571Y1158D01*
X1604Y1158D02*
X1619Y1158D01*
X1655Y1158D02*
X1671Y1158D01*
X0Y1157D02*
X16Y1157D01*
X59Y1157D02*
X78Y1157D01*
X504Y1157D02*
X519Y1157D01*
X556Y1157D02*
X571Y1157D01*
X604Y1157D02*
X619Y1157D01*
X656Y1157D02*
X671Y1157D01*
X704Y1157D02*
X719Y1157D01*
X756Y1157D02*
X771Y1157D01*
X804Y1157D02*
X819Y1157D01*
X856Y1157D02*
X871Y1157D01*
X904Y1157D02*
X919Y1157D01*
X956Y1157D02*
X971Y1157D01*
X1004Y1157D02*
X1019Y1157D01*
X1056Y1157D02*
X1071Y1157D01*
X1104Y1157D02*
X1119Y1157D01*
X1156Y1157D02*
X1171Y1157D01*
X1204Y1157D02*
X1219Y1157D01*
X1255Y1157D02*
X1271Y1157D01*
X1304Y1157D02*
X1319Y1157D01*
X1355Y1157D02*
X1371Y1157D01*
X1404Y1157D02*
X1419Y1157D01*
X1455Y1157D02*
X1470Y1157D01*
X1504Y1157D02*
X1519Y1157D01*
X1555Y1157D02*
X1570Y1157D01*
X1604Y1157D02*
X1619Y1157D01*
X1655Y1157D02*
X1670Y1157D01*
X0Y1156D02*
X16Y1156D01*
X59Y1156D02*
X78Y1156D01*
X504Y1156D02*
X519Y1156D01*
X555Y1156D02*
X571Y1156D01*
X604Y1156D02*
X619Y1156D01*
X655Y1156D02*
X671Y1156D01*
X704Y1156D02*
X719Y1156D01*
X755Y1156D02*
X770Y1156D01*
X804Y1156D02*
X819Y1156D01*
X855Y1156D02*
X870Y1156D01*
X904Y1156D02*
X919Y1156D01*
X955Y1156D02*
X970Y1156D01*
X1004Y1156D02*
X1019Y1156D01*
X1055Y1156D02*
X1070Y1156D01*
X1104Y1156D02*
X1119Y1156D01*
X1155Y1156D02*
X1170Y1156D01*
X1204Y1156D02*
X1219Y1156D01*
X1255Y1156D02*
X1270Y1156D01*
X1304Y1156D02*
X1319Y1156D01*
X1355Y1156D02*
X1370Y1156D01*
X1404Y1156D02*
X1419Y1156D01*
X1455Y1156D02*
X1470Y1156D01*
X1504Y1156D02*
X1519Y1156D01*
X1555Y1156D02*
X1570Y1156D01*
X1604Y1156D02*
X1619Y1156D01*
X1655Y1156D02*
X1670Y1156D01*
X0Y1155D02*
X17Y1155D01*
X58Y1155D02*
X78Y1155D01*
X504Y1155D02*
X520Y1155D01*
X555Y1155D02*
X570Y1155D01*
X604Y1155D02*
X620Y1155D01*
X655Y1155D02*
X670Y1155D01*
X704Y1155D02*
X720Y1155D01*
X755Y1155D02*
X770Y1155D01*
X804Y1155D02*
X820Y1155D01*
X855Y1155D02*
X870Y1155D01*
X904Y1155D02*
X920Y1155D01*
X955Y1155D02*
X970Y1155D01*
X1004Y1155D02*
X1020Y1155D01*
X1055Y1155D02*
X1070Y1155D01*
X1104Y1155D02*
X1120Y1155D01*
X1155Y1155D02*
X1170Y1155D01*
X1204Y1155D02*
X1220Y1155D01*
X1255Y1155D02*
X1270Y1155D01*
X1304Y1155D02*
X1319Y1155D01*
X1355Y1155D02*
X1370Y1155D01*
X1404Y1155D02*
X1419Y1155D01*
X1455Y1155D02*
X1470Y1155D01*
X1504Y1155D02*
X1519Y1155D01*
X1555Y1155D02*
X1570Y1155D01*
X1604Y1155D02*
X1619Y1155D01*
X1655Y1155D02*
X1670Y1155D01*
X0Y1154D02*
X17Y1154D01*
X58Y1154D02*
X78Y1154D01*
X505Y1154D02*
X520Y1154D01*
X555Y1154D02*
X570Y1154D01*
X605Y1154D02*
X620Y1154D01*
X655Y1154D02*
X670Y1154D01*
X705Y1154D02*
X720Y1154D01*
X755Y1154D02*
X770Y1154D01*
X805Y1154D02*
X820Y1154D01*
X855Y1154D02*
X870Y1154D01*
X905Y1154D02*
X920Y1154D01*
X955Y1154D02*
X970Y1154D01*
X1005Y1154D02*
X1020Y1154D01*
X1055Y1154D02*
X1070Y1154D01*
X1105Y1154D02*
X1120Y1154D01*
X1155Y1154D02*
X1170Y1154D01*
X1204Y1154D02*
X1220Y1154D01*
X1255Y1154D02*
X1270Y1154D01*
X1304Y1154D02*
X1320Y1154D01*
X1355Y1154D02*
X1370Y1154D01*
X1404Y1154D02*
X1420Y1154D01*
X1455Y1154D02*
X1470Y1154D01*
X1504Y1154D02*
X1520Y1154D01*
X1555Y1154D02*
X1570Y1154D01*
X1604Y1154D02*
X1620Y1154D01*
X1655Y1154D02*
X1670Y1154D01*
X0Y1153D02*
X17Y1153D01*
X58Y1153D02*
X78Y1153D01*
X505Y1153D02*
X520Y1153D01*
X555Y1153D02*
X570Y1153D01*
X605Y1153D02*
X620Y1153D01*
X655Y1153D02*
X670Y1153D01*
X705Y1153D02*
X720Y1153D01*
X755Y1153D02*
X770Y1153D01*
X805Y1153D02*
X820Y1153D01*
X855Y1153D02*
X870Y1153D01*
X905Y1153D02*
X920Y1153D01*
X955Y1153D02*
X970Y1153D01*
X1005Y1153D02*
X1020Y1153D01*
X1055Y1153D02*
X1070Y1153D01*
X1105Y1153D02*
X1120Y1153D01*
X1155Y1153D02*
X1170Y1153D01*
X1205Y1153D02*
X1220Y1153D01*
X1255Y1153D02*
X1270Y1153D01*
X1305Y1153D02*
X1320Y1153D01*
X1355Y1153D02*
X1370Y1153D01*
X1405Y1153D02*
X1420Y1153D01*
X1454Y1153D02*
X1470Y1153D01*
X1505Y1153D02*
X1520Y1153D01*
X1554Y1153D02*
X1570Y1153D01*
X1605Y1153D02*
X1620Y1153D01*
X1654Y1153D02*
X1670Y1153D01*
X0Y1152D02*
X17Y1152D01*
X58Y1152D02*
X78Y1152D01*
X505Y1152D02*
X521Y1152D01*
X554Y1152D02*
X570Y1152D01*
X605Y1152D02*
X621Y1152D01*
X654Y1152D02*
X670Y1152D01*
X705Y1152D02*
X721Y1152D01*
X754Y1152D02*
X770Y1152D01*
X805Y1152D02*
X821Y1152D01*
X854Y1152D02*
X870Y1152D01*
X905Y1152D02*
X921Y1152D01*
X954Y1152D02*
X970Y1152D01*
X1005Y1152D02*
X1021Y1152D01*
X1054Y1152D02*
X1070Y1152D01*
X1105Y1152D02*
X1121Y1152D01*
X1154Y1152D02*
X1170Y1152D01*
X1205Y1152D02*
X1221Y1152D01*
X1254Y1152D02*
X1270Y1152D01*
X1305Y1152D02*
X1321Y1152D01*
X1354Y1152D02*
X1369Y1152D01*
X1405Y1152D02*
X1421Y1152D01*
X1454Y1152D02*
X1469Y1152D01*
X1505Y1152D02*
X1521Y1152D01*
X1554Y1152D02*
X1569Y1152D01*
X1605Y1152D02*
X1620Y1152D01*
X1654Y1152D02*
X1669Y1152D01*
X0Y1151D02*
X18Y1151D01*
X57Y1151D02*
X78Y1151D01*
X506Y1151D02*
X521Y1151D01*
X554Y1151D02*
X569Y1151D01*
X605Y1151D02*
X621Y1151D01*
X654Y1151D02*
X669Y1151D01*
X705Y1151D02*
X721Y1151D01*
X754Y1151D02*
X769Y1151D01*
X805Y1151D02*
X821Y1151D01*
X854Y1151D02*
X869Y1151D01*
X905Y1151D02*
X921Y1151D01*
X954Y1151D02*
X969Y1151D01*
X1005Y1151D02*
X1021Y1151D01*
X1054Y1151D02*
X1069Y1151D01*
X1105Y1151D02*
X1121Y1151D01*
X1154Y1151D02*
X1169Y1151D01*
X1205Y1151D02*
X1221Y1151D01*
X1254Y1151D02*
X1269Y1151D01*
X1305Y1151D02*
X1321Y1151D01*
X1354Y1151D02*
X1369Y1151D01*
X1405Y1151D02*
X1421Y1151D01*
X1454Y1151D02*
X1469Y1151D01*
X1505Y1151D02*
X1521Y1151D01*
X1554Y1151D02*
X1569Y1151D01*
X1605Y1151D02*
X1621Y1151D01*
X1654Y1151D02*
X1669Y1151D01*
X0Y1150D02*
X18Y1150D01*
X57Y1150D02*
X78Y1150D01*
X506Y1150D02*
X522Y1150D01*
X553Y1150D02*
X569Y1150D01*
X606Y1150D02*
X622Y1150D01*
X653Y1150D02*
X669Y1150D01*
X706Y1150D02*
X722Y1150D01*
X753Y1150D02*
X769Y1150D01*
X806Y1150D02*
X822Y1150D01*
X853Y1150D02*
X869Y1150D01*
X906Y1150D02*
X922Y1150D01*
X953Y1150D02*
X969Y1150D01*
X1006Y1150D02*
X1022Y1150D01*
X1053Y1150D02*
X1069Y1150D01*
X1106Y1150D02*
X1122Y1150D01*
X1153Y1150D02*
X1169Y1150D01*
X1206Y1150D02*
X1222Y1150D01*
X1253Y1150D02*
X1269Y1150D01*
X1306Y1150D02*
X1322Y1150D01*
X1353Y1150D02*
X1369Y1150D01*
X1406Y1150D02*
X1422Y1150D01*
X1453Y1150D02*
X1469Y1150D01*
X1506Y1150D02*
X1522Y1150D01*
X1553Y1150D02*
X1569Y1150D01*
X1606Y1150D02*
X1622Y1150D01*
X1653Y1150D02*
X1669Y1150D01*
X0Y1149D02*
X19Y1149D01*
X56Y1149D02*
X78Y1149D01*
X506Y1149D02*
X523Y1149D01*
X553Y1149D02*
X569Y1149D01*
X606Y1149D02*
X623Y1149D01*
X653Y1149D02*
X669Y1149D01*
X706Y1149D02*
X723Y1149D01*
X753Y1149D02*
X769Y1149D01*
X806Y1149D02*
X823Y1149D01*
X852Y1149D02*
X869Y1149D01*
X906Y1149D02*
X922Y1149D01*
X952Y1149D02*
X969Y1149D01*
X1006Y1149D02*
X1022Y1149D01*
X1052Y1149D02*
X1069Y1149D01*
X1106Y1149D02*
X1122Y1149D01*
X1152Y1149D02*
X1169Y1149D01*
X1206Y1149D02*
X1222Y1149D01*
X1252Y1149D02*
X1268Y1149D01*
X1306Y1149D02*
X1322Y1149D01*
X1352Y1149D02*
X1368Y1149D01*
X1406Y1149D02*
X1422Y1149D01*
X1452Y1149D02*
X1468Y1149D01*
X1506Y1149D02*
X1522Y1149D01*
X1552Y1149D02*
X1568Y1149D01*
X1606Y1149D02*
X1622Y1149D01*
X1652Y1149D02*
X1668Y1149D01*
X0Y1148D02*
X19Y1148D01*
X56Y1148D02*
X78Y1148D01*
X507Y1148D02*
X523Y1148D01*
X552Y1148D02*
X568Y1148D01*
X607Y1148D02*
X623Y1148D01*
X652Y1148D02*
X668Y1148D01*
X707Y1148D02*
X723Y1148D01*
X752Y1148D02*
X768Y1148D01*
X807Y1148D02*
X823Y1148D01*
X852Y1148D02*
X868Y1148D01*
X907Y1148D02*
X923Y1148D01*
X952Y1148D02*
X968Y1148D01*
X1007Y1148D02*
X1023Y1148D01*
X1052Y1148D02*
X1068Y1148D01*
X1107Y1148D02*
X1123Y1148D01*
X1152Y1148D02*
X1168Y1148D01*
X1207Y1148D02*
X1223Y1148D01*
X1252Y1148D02*
X1268Y1148D01*
X1307Y1148D02*
X1323Y1148D01*
X1352Y1148D02*
X1368Y1148D01*
X1406Y1148D02*
X1423Y1148D01*
X1452Y1148D02*
X1468Y1148D01*
X1506Y1148D02*
X1523Y1148D01*
X1552Y1148D02*
X1568Y1148D01*
X1606Y1148D02*
X1623Y1148D01*
X1652Y1148D02*
X1668Y1148D01*
X0Y1147D02*
X20Y1147D01*
X55Y1147D02*
X78Y1147D01*
X507Y1147D02*
X524Y1147D01*
X551Y1147D02*
X568Y1147D01*
X607Y1147D02*
X624Y1147D01*
X651Y1147D02*
X668Y1147D01*
X707Y1147D02*
X724Y1147D01*
X751Y1147D02*
X768Y1147D01*
X807Y1147D02*
X824Y1147D01*
X851Y1147D02*
X868Y1147D01*
X907Y1147D02*
X924Y1147D01*
X951Y1147D02*
X968Y1147D01*
X1007Y1147D02*
X1024Y1147D01*
X1051Y1147D02*
X1068Y1147D01*
X1107Y1147D02*
X1124Y1147D01*
X1151Y1147D02*
X1168Y1147D01*
X1207Y1147D02*
X1224Y1147D01*
X1251Y1147D02*
X1268Y1147D01*
X1307Y1147D02*
X1324Y1147D01*
X1351Y1147D02*
X1368Y1147D01*
X1407Y1147D02*
X1424Y1147D01*
X1451Y1147D02*
X1468Y1147D01*
X1507Y1147D02*
X1524Y1147D01*
X1551Y1147D02*
X1568Y1147D01*
X1607Y1147D02*
X1624Y1147D01*
X1651Y1147D02*
X1668Y1147D01*
X0Y1146D02*
X21Y1146D01*
X54Y1146D02*
X78Y1146D01*
X508Y1146D02*
X526Y1146D01*
X550Y1146D02*
X567Y1146D01*
X608Y1146D02*
X626Y1146D01*
X650Y1146D02*
X667Y1146D01*
X708Y1146D02*
X726Y1146D01*
X750Y1146D02*
X767Y1146D01*
X808Y1146D02*
X826Y1146D01*
X850Y1146D02*
X867Y1146D01*
X908Y1146D02*
X925Y1146D01*
X950Y1146D02*
X967Y1146D01*
X1008Y1146D02*
X1025Y1146D01*
X1050Y1146D02*
X1067Y1146D01*
X1108Y1146D02*
X1125Y1146D01*
X1150Y1146D02*
X1167Y1146D01*
X1208Y1146D02*
X1225Y1146D01*
X1249Y1146D02*
X1267Y1146D01*
X1308Y1146D02*
X1325Y1146D01*
X1349Y1146D02*
X1367Y1146D01*
X1407Y1146D02*
X1425Y1146D01*
X1449Y1146D02*
X1467Y1146D01*
X1507Y1146D02*
X1525Y1146D01*
X1549Y1146D02*
X1567Y1146D01*
X1607Y1146D02*
X1625Y1146D01*
X1649Y1146D02*
X1667Y1146D01*
X0Y1145D02*
X22Y1145D01*
X53Y1145D02*
X78Y1145D01*
X508Y1145D02*
X527Y1145D01*
X548Y1145D02*
X567Y1145D01*
X608Y1145D02*
X627Y1145D01*
X648Y1145D02*
X667Y1145D01*
X708Y1145D02*
X727Y1145D01*
X748Y1145D02*
X767Y1145D01*
X808Y1145D02*
X827Y1145D01*
X848Y1145D02*
X867Y1145D01*
X908Y1145D02*
X927Y1145D01*
X948Y1145D02*
X967Y1145D01*
X1008Y1145D02*
X1027Y1145D01*
X1048Y1145D02*
X1067Y1145D01*
X1108Y1145D02*
X1127Y1145D01*
X1148Y1145D02*
X1167Y1145D01*
X1208Y1145D02*
X1227Y1145D01*
X1248Y1145D02*
X1267Y1145D01*
X1308Y1145D02*
X1327Y1145D01*
X1348Y1145D02*
X1367Y1145D01*
X1408Y1145D02*
X1427Y1145D01*
X1448Y1145D02*
X1467Y1145D01*
X1508Y1145D02*
X1527Y1145D01*
X1548Y1145D02*
X1567Y1145D01*
X1608Y1145D02*
X1627Y1145D01*
X1648Y1145D02*
X1667Y1145D01*
X0Y1144D02*
X23Y1144D01*
X52Y1144D02*
X78Y1144D01*
X509Y1144D02*
X529Y1144D01*
X546Y1144D02*
X566Y1144D01*
X609Y1144D02*
X629Y1144D01*
X646Y1144D02*
X666Y1144D01*
X709Y1144D02*
X729Y1144D01*
X746Y1144D02*
X766Y1144D01*
X809Y1144D02*
X829Y1144D01*
X846Y1144D02*
X866Y1144D01*
X909Y1144D02*
X929Y1144D01*
X946Y1144D02*
X966Y1144D01*
X1009Y1144D02*
X1029Y1144D01*
X1046Y1144D02*
X1066Y1144D01*
X1109Y1144D02*
X1129Y1144D01*
X1146Y1144D02*
X1166Y1144D01*
X1209Y1144D02*
X1229Y1144D01*
X1246Y1144D02*
X1266Y1144D01*
X1309Y1144D02*
X1329Y1144D01*
X1346Y1144D02*
X1366Y1144D01*
X1409Y1144D02*
X1429Y1144D01*
X1446Y1144D02*
X1466Y1144D01*
X1509Y1144D02*
X1529Y1144D01*
X1546Y1144D02*
X1566Y1144D01*
X1609Y1144D02*
X1629Y1144D01*
X1646Y1144D02*
X1666Y1144D01*
X0Y1143D02*
X24Y1143D01*
X51Y1143D02*
X78Y1143D01*
X509Y1143D02*
X532Y1143D01*
X543Y1143D02*
X566Y1143D01*
X609Y1143D02*
X632Y1143D01*
X643Y1143D02*
X666Y1143D01*
X709Y1143D02*
X732Y1143D01*
X743Y1143D02*
X766Y1143D01*
X809Y1143D02*
X832Y1143D01*
X843Y1143D02*
X866Y1143D01*
X909Y1143D02*
X932Y1143D01*
X943Y1143D02*
X966Y1143D01*
X1009Y1143D02*
X1032Y1143D01*
X1043Y1143D02*
X1065Y1143D01*
X1109Y1143D02*
X1132Y1143D01*
X1143Y1143D02*
X1165Y1143D01*
X1209Y1143D02*
X1232Y1143D01*
X1243Y1143D02*
X1265Y1143D01*
X1309Y1143D02*
X1332Y1143D01*
X1343Y1143D02*
X1365Y1143D01*
X1409Y1143D02*
X1432Y1143D01*
X1443Y1143D02*
X1465Y1143D01*
X1509Y1143D02*
X1532Y1143D01*
X1543Y1143D02*
X1565Y1143D01*
X1609Y1143D02*
X1632Y1143D01*
X1643Y1143D02*
X1665Y1143D01*
X0Y1142D02*
X26Y1142D01*
X49Y1142D02*
X78Y1142D01*
X510Y1142D02*
X565Y1142D01*
X610Y1142D02*
X665Y1142D01*
X710Y1142D02*
X765Y1142D01*
X810Y1142D02*
X865Y1142D01*
X910Y1142D02*
X965Y1142D01*
X1010Y1142D02*
X1065Y1142D01*
X1110Y1142D02*
X1165Y1142D01*
X1210Y1142D02*
X1265Y1142D01*
X1310Y1142D02*
X1365Y1142D01*
X1410Y1142D02*
X1465Y1142D01*
X1510Y1142D02*
X1565Y1142D01*
X1610Y1142D02*
X1665Y1142D01*
X0Y1141D02*
X28Y1141D01*
X47Y1141D02*
X78Y1141D01*
X511Y1141D02*
X564Y1141D01*
X611Y1141D02*
X664Y1141D01*
X711Y1141D02*
X764Y1141D01*
X811Y1141D02*
X864Y1141D01*
X911Y1141D02*
X964Y1141D01*
X1011Y1141D02*
X1064Y1141D01*
X1111Y1141D02*
X1164Y1141D01*
X1211Y1141D02*
X1264Y1141D01*
X1311Y1141D02*
X1364Y1141D01*
X1411Y1141D02*
X1464Y1141D01*
X1511Y1141D02*
X1564Y1141D01*
X1611Y1141D02*
X1664Y1141D01*
X0Y1140D02*
X31Y1140D01*
X44Y1140D02*
X78Y1140D01*
X512Y1140D02*
X563Y1140D01*
X612Y1140D02*
X663Y1140D01*
X712Y1140D02*
X763Y1140D01*
X812Y1140D02*
X863Y1140D01*
X912Y1140D02*
X963Y1140D01*
X1012Y1140D02*
X1063Y1140D01*
X1112Y1140D02*
X1163Y1140D01*
X1211Y1140D02*
X1263Y1140D01*
X1311Y1140D02*
X1363Y1140D01*
X1411Y1140D02*
X1463Y1140D01*
X1511Y1140D02*
X1563Y1140D01*
X1611Y1140D02*
X1663Y1140D01*
X0Y1139D02*
X78Y1139D01*
X512Y1139D02*
X563Y1139D01*
X612Y1139D02*
X663Y1139D01*
X712Y1139D02*
X763Y1139D01*
X812Y1139D02*
X863Y1139D01*
X912Y1139D02*
X963Y1139D01*
X1012Y1139D02*
X1063Y1139D01*
X1112Y1139D02*
X1163Y1139D01*
X1212Y1139D02*
X1263Y1139D01*
X1312Y1139D02*
X1363Y1139D01*
X1412Y1139D02*
X1462Y1139D01*
X1512Y1139D02*
X1562Y1139D01*
X1612Y1139D02*
X1662Y1139D01*
X0Y1138D02*
X78Y1138D01*
X513Y1138D02*
X562Y1138D01*
X613Y1138D02*
X662Y1138D01*
X713Y1138D02*
X762Y1138D01*
X813Y1138D02*
X862Y1138D01*
X913Y1138D02*
X962Y1138D01*
X1013Y1138D02*
X1062Y1138D01*
X1113Y1138D02*
X1162Y1138D01*
X1213Y1138D02*
X1262Y1138D01*
X1313Y1138D02*
X1362Y1138D01*
X1413Y1138D02*
X1462Y1138D01*
X1513Y1138D02*
X1562Y1138D01*
X1613Y1138D02*
X1662Y1138D01*
X0Y1137D02*
X78Y1137D01*
X514Y1137D02*
X561Y1137D01*
X614Y1137D02*
X661Y1137D01*
X714Y1137D02*
X761Y1137D01*
X814Y1137D02*
X861Y1137D01*
X914Y1137D02*
X961Y1137D01*
X1014Y1137D02*
X1061Y1137D01*
X1114Y1137D02*
X1161Y1137D01*
X1214Y1137D02*
X1261Y1137D01*
X1314Y1137D02*
X1361Y1137D01*
X1414Y1137D02*
X1461Y1137D01*
X1514Y1137D02*
X1561Y1137D01*
X1614Y1137D02*
X1661Y1137D01*
X0Y1136D02*
X78Y1136D01*
X515Y1136D02*
X560Y1136D01*
X615Y1136D02*
X660Y1136D01*
X715Y1136D02*
X760Y1136D01*
X815Y1136D02*
X860Y1136D01*
X915Y1136D02*
X960Y1136D01*
X1015Y1136D02*
X1060Y1136D01*
X1115Y1136D02*
X1160Y1136D01*
X1215Y1136D02*
X1260Y1136D01*
X1315Y1136D02*
X1360Y1136D01*
X1415Y1136D02*
X1460Y1136D01*
X1515Y1136D02*
X1560Y1136D01*
X1615Y1136D02*
X1660Y1136D01*
X0Y1135D02*
X78Y1135D01*
X516Y1135D02*
X559Y1135D01*
X616Y1135D02*
X659Y1135D01*
X716Y1135D02*
X759Y1135D01*
X816Y1135D02*
X859Y1135D01*
X916Y1135D02*
X959Y1135D01*
X1016Y1135D02*
X1059Y1135D01*
X1116Y1135D02*
X1159Y1135D01*
X1216Y1135D02*
X1259Y1135D01*
X1316Y1135D02*
X1359Y1135D01*
X1416Y1135D02*
X1459Y1135D01*
X1516Y1135D02*
X1559Y1135D01*
X1616Y1135D02*
X1659Y1135D01*
X0Y1134D02*
X78Y1134D01*
X518Y1134D02*
X558Y1134D01*
X618Y1134D02*
X658Y1134D01*
X718Y1134D02*
X758Y1134D01*
X818Y1134D02*
X858Y1134D01*
X918Y1134D02*
X957Y1134D01*
X1018Y1134D02*
X1057Y1134D01*
X1118Y1134D02*
X1157Y1134D01*
X1218Y1134D02*
X1257Y1134D01*
X1317Y1134D02*
X1357Y1134D01*
X1417Y1134D02*
X1457Y1134D01*
X1517Y1134D02*
X1557Y1134D01*
X1617Y1134D02*
X1657Y1134D01*
X0Y1133D02*
X78Y1133D01*
X519Y1133D02*
X556Y1133D01*
X619Y1133D02*
X656Y1133D01*
X719Y1133D02*
X756Y1133D01*
X819Y1133D02*
X856Y1133D01*
X919Y1133D02*
X956Y1133D01*
X1019Y1133D02*
X1056Y1133D01*
X1119Y1133D02*
X1156Y1133D01*
X1219Y1133D02*
X1256Y1133D01*
X1319Y1133D02*
X1356Y1133D01*
X1419Y1133D02*
X1456Y1133D01*
X1519Y1133D02*
X1556Y1133D01*
X1619Y1133D02*
X1656Y1133D01*
X0Y1132D02*
X78Y1132D01*
X520Y1132D02*
X555Y1132D01*
X620Y1132D02*
X655Y1132D01*
X720Y1132D02*
X755Y1132D01*
X820Y1132D02*
X855Y1132D01*
X920Y1132D02*
X955Y1132D01*
X1020Y1132D02*
X1055Y1132D01*
X1120Y1132D02*
X1155Y1132D01*
X1220Y1132D02*
X1255Y1132D01*
X1320Y1132D02*
X1355Y1132D01*
X1420Y1132D02*
X1455Y1132D01*
X1520Y1132D02*
X1555Y1132D01*
X1620Y1132D02*
X1655Y1132D01*
X0Y1131D02*
X78Y1131D01*
X522Y1131D02*
X553Y1131D01*
X622Y1131D02*
X653Y1131D01*
X722Y1131D02*
X753Y1131D01*
X822Y1131D02*
X853Y1131D01*
X922Y1131D02*
X953Y1131D01*
X1022Y1131D02*
X1053Y1131D01*
X1122Y1131D02*
X1153Y1131D01*
X1222Y1131D02*
X1253Y1131D01*
X1322Y1131D02*
X1353Y1131D01*
X1422Y1131D02*
X1453Y1131D01*
X1522Y1131D02*
X1553Y1131D01*
X1622Y1131D02*
X1653Y1131D01*
X0Y1130D02*
X78Y1130D01*
X524Y1130D02*
X551Y1130D01*
X624Y1130D02*
X651Y1130D01*
X724Y1130D02*
X751Y1130D01*
X824Y1130D02*
X851Y1130D01*
X924Y1130D02*
X951Y1130D01*
X1024Y1130D02*
X1051Y1130D01*
X1124Y1130D02*
X1151Y1130D01*
X1224Y1130D02*
X1251Y1130D01*
X1324Y1130D02*
X1351Y1130D01*
X1424Y1130D02*
X1451Y1130D01*
X1524Y1130D02*
X1551Y1130D01*
X1624Y1130D02*
X1651Y1130D01*
X0Y1129D02*
X78Y1129D01*
X526Y1129D02*
X549Y1129D01*
X626Y1129D02*
X649Y1129D01*
X726Y1129D02*
X749Y1129D01*
X826Y1129D02*
X849Y1129D01*
X926Y1129D02*
X949Y1129D01*
X1026Y1129D02*
X1049Y1129D01*
X1126Y1129D02*
X1149Y1129D01*
X1226Y1129D02*
X1249Y1129D01*
X1326Y1129D02*
X1349Y1129D01*
X1426Y1129D02*
X1449Y1129D01*
X1526Y1129D02*
X1549Y1129D01*
X1626Y1129D02*
X1649Y1129D01*
X0Y1128D02*
X78Y1128D01*
X528Y1128D02*
X547Y1128D01*
X628Y1128D02*
X647Y1128D01*
X728Y1128D02*
X747Y1128D01*
X828Y1128D02*
X847Y1128D01*
X928Y1128D02*
X947Y1128D01*
X1028Y1128D02*
X1047Y1128D01*
X1128Y1128D02*
X1147Y1128D01*
X1228Y1128D02*
X1247Y1128D01*
X1328Y1128D02*
X1347Y1128D01*
X1428Y1128D02*
X1447Y1128D01*
X1528Y1128D02*
X1547Y1128D01*
X1628Y1128D02*
X1647Y1128D01*
X0Y1127D02*
X78Y1127D01*
X532Y1127D02*
X543Y1127D01*
X632Y1127D02*
X643Y1127D01*
X732Y1127D02*
X743Y1127D01*
X832Y1127D02*
X843Y1127D01*
X932Y1127D02*
X943Y1127D01*
X1032Y1127D02*
X1043Y1127D01*
X1132Y1127D02*
X1143Y1127D01*
X1232Y1127D02*
X1243Y1127D01*
X1332Y1127D02*
X1343Y1127D01*
X1432Y1127D02*
X1443Y1127D01*
X1532Y1127D02*
X1543Y1127D01*
X1632Y1127D02*
X1643Y1127D01*
X0Y1126D02*
X78Y1126D01*
X0Y1125D02*
X78Y1125D01*
X0Y1124D02*
X78Y1124D01*
X0Y1123D02*
X78Y1123D01*
X0Y1122D02*
X78Y1122D01*
X0Y1121D02*
X78Y1121D01*
X0Y1120D02*
X78Y1120D01*
X33Y1099D02*
X42Y1099D01*
X29Y1098D02*
X46Y1098D01*
X26Y1097D02*
X49Y1097D01*
X23Y1096D02*
X52Y1096D01*
X21Y1095D02*
X54Y1095D01*
X19Y1094D02*
X56Y1094D01*
X18Y1093D02*
X57Y1093D01*
X16Y1092D02*
X59Y1092D01*
X15Y1091D02*
X60Y1091D01*
X14Y1090D02*
X61Y1090D01*
X13Y1089D02*
X62Y1089D01*
X12Y1088D02*
X63Y1088D01*
X11Y1087D02*
X64Y1087D01*
X10Y1086D02*
X65Y1086D01*
X9Y1085D02*
X66Y1085D01*
X8Y1084D02*
X67Y1084D01*
X7Y1083D02*
X68Y1083D01*
X6Y1082D02*
X69Y1082D01*
X6Y1081D02*
X69Y1081D01*
X5Y1080D02*
X70Y1080D01*
X4Y1079D02*
X33Y1079D01*
X42Y1079D02*
X71Y1079D01*
X4Y1078D02*
X29Y1078D01*
X46Y1078D02*
X71Y1078D01*
X3Y1077D02*
X27Y1077D01*
X48Y1077D02*
X72Y1077D01*
X3Y1076D02*
X25Y1076D01*
X50Y1076D02*
X72Y1076D01*
X2Y1075D02*
X24Y1075D01*
X51Y1075D02*
X73Y1075D01*
X2Y1074D02*
X23Y1074D01*
X52Y1074D02*
X73Y1074D01*
X2Y1073D02*
X22Y1073D01*
X53Y1073D02*
X74Y1073D01*
X1Y1072D02*
X21Y1072D01*
X54Y1072D02*
X74Y1072D01*
X1Y1071D02*
X21Y1071D01*
X54Y1071D02*
X74Y1071D01*
X1Y1070D02*
X20Y1070D01*
X55Y1070D02*
X75Y1070D01*
X0Y1069D02*
X20Y1069D01*
X55Y1069D02*
X75Y1069D01*
X0Y1068D02*
X19Y1068D01*
X56Y1068D02*
X75Y1068D01*
X0Y1067D02*
X19Y1067D01*
X56Y1067D02*
X75Y1067D01*
X0Y1066D02*
X19Y1066D01*
X56Y1066D02*
X75Y1066D01*
X0Y1065D02*
X18Y1065D01*
X57Y1065D02*
X76Y1065D01*
X0Y1064D02*
X18Y1064D01*
X57Y1064D02*
X76Y1064D01*
X0Y1063D02*
X18Y1063D01*
X57Y1063D02*
X76Y1063D01*
X0Y1062D02*
X18Y1062D01*
X57Y1062D02*
X76Y1062D01*
X0Y1061D02*
X18Y1061D01*
X57Y1061D02*
X76Y1061D01*
X0Y1060D02*
X18Y1060D01*
X57Y1060D02*
X76Y1060D01*
X0Y1059D02*
X18Y1059D01*
X57Y1059D02*
X76Y1059D01*
X0Y1058D02*
X18Y1058D01*
X57Y1058D02*
X76Y1058D01*
X0Y1057D02*
X18Y1057D01*
X57Y1057D02*
X76Y1057D01*
X0Y1056D02*
X18Y1056D01*
X57Y1056D02*
X76Y1056D01*
X0Y1055D02*
X19Y1055D01*
X56Y1055D02*
X76Y1055D01*
X0Y1054D02*
X19Y1054D01*
X56Y1054D02*
X75Y1054D01*
X0Y1053D02*
X19Y1053D01*
X56Y1053D02*
X75Y1053D01*
X0Y1052D02*
X20Y1052D01*
X56Y1052D02*
X75Y1052D01*
X0Y1051D02*
X20Y1051D01*
X55Y1051D02*
X75Y1051D01*
X1Y1050D02*
X21Y1050D01*
X55Y1050D02*
X74Y1050D01*
X1Y1049D02*
X21Y1049D01*
X54Y1049D02*
X74Y1049D01*
X1Y1048D02*
X22Y1048D01*
X53Y1048D02*
X74Y1048D01*
X2Y1047D02*
X23Y1047D01*
X52Y1047D02*
X73Y1047D01*
X2Y1046D02*
X24Y1046D01*
X51Y1046D02*
X73Y1046D01*
X3Y1045D02*
X25Y1045D01*
X50Y1045D02*
X72Y1045D01*
X3Y1044D02*
X26Y1044D01*
X49Y1044D02*
X72Y1044D01*
X4Y1043D02*
X28Y1043D01*
X47Y1043D02*
X71Y1043D01*
X4Y1042D02*
X32Y1042D01*
X43Y1042D02*
X71Y1042D01*
X5Y1041D02*
X70Y1041D01*
X6Y1040D02*
X70Y1040D01*
X6Y1039D02*
X69Y1039D01*
X7Y1038D02*
X68Y1038D01*
X8Y1037D02*
X67Y1037D01*
X9Y1036D02*
X67Y1036D01*
X9Y1035D02*
X66Y1035D01*
X10Y1034D02*
X65Y1034D01*
X11Y1033D02*
X64Y1033D01*
X12Y1032D02*
X63Y1032D01*
X14Y1031D02*
X62Y1031D01*
X15Y1030D02*
X60Y1030D01*
X16Y1029D02*
X59Y1029D01*
X18Y1028D02*
X58Y1028D01*
X19Y1027D02*
X56Y1027D01*
X21Y1026D02*
X54Y1026D01*
X23Y1025D02*
X52Y1025D01*
X25Y1024D02*
X50Y1024D01*
X28Y1023D02*
X47Y1023D01*
X32Y1022D02*
X43Y1022D01*
X532Y494D02*
X543Y494D01*
X632Y494D02*
X643Y494D01*
X732Y494D02*
X743Y494D01*
X832Y494D02*
X843Y494D01*
X932Y494D02*
X943Y494D01*
X1032Y494D02*
X1043Y494D01*
X1132Y494D02*
X1143Y494D01*
X1232Y494D02*
X1243Y494D01*
X1332Y494D02*
X1343Y494D01*
X1432Y494D02*
X1443Y494D01*
X1532Y494D02*
X1543Y494D01*
X1632Y494D02*
X1643Y494D01*
X528Y493D02*
X547Y493D01*
X628Y493D02*
X647Y493D01*
X728Y493D02*
X747Y493D01*
X828Y493D02*
X847Y493D01*
X928Y493D02*
X947Y493D01*
X1028Y493D02*
X1047Y493D01*
X1128Y493D02*
X1147Y493D01*
X1228Y493D02*
X1247Y493D01*
X1328Y493D02*
X1347Y493D01*
X1428Y493D02*
X1447Y493D01*
X1528Y493D02*
X1547Y493D01*
X1628Y493D02*
X1647Y493D01*
X526Y492D02*
X550Y492D01*
X626Y492D02*
X650Y492D01*
X726Y492D02*
X750Y492D01*
X826Y492D02*
X850Y492D01*
X926Y492D02*
X950Y492D01*
X1026Y492D02*
X1050Y492D01*
X1125Y492D02*
X1149Y492D01*
X1225Y492D02*
X1249Y492D01*
X1325Y492D02*
X1349Y492D01*
X1425Y492D02*
X1449Y492D01*
X1525Y492D02*
X1549Y492D01*
X1625Y492D02*
X1649Y492D01*
X524Y491D02*
X552Y491D01*
X624Y491D02*
X652Y491D01*
X723Y491D02*
X752Y491D01*
X823Y491D02*
X852Y491D01*
X923Y491D02*
X952Y491D01*
X1023Y491D02*
X1052Y491D01*
X1123Y491D02*
X1152Y491D01*
X1223Y491D02*
X1252Y491D01*
X1323Y491D02*
X1352Y491D01*
X1423Y491D02*
X1452Y491D01*
X1523Y491D02*
X1551Y491D01*
X1623Y491D02*
X1651Y491D01*
X522Y490D02*
X554Y490D01*
X622Y490D02*
X654Y490D01*
X722Y490D02*
X754Y490D01*
X822Y490D02*
X854Y490D01*
X922Y490D02*
X953Y490D01*
X1022Y490D02*
X1053Y490D01*
X1122Y490D02*
X1153Y490D01*
X1222Y490D02*
X1253Y490D01*
X1322Y490D02*
X1353Y490D01*
X1421Y490D02*
X1453Y490D01*
X1521Y490D02*
X1553Y490D01*
X1621Y490D02*
X1653Y490D01*
X520Y489D02*
X555Y489D01*
X620Y489D02*
X655Y489D01*
X720Y489D02*
X755Y489D01*
X820Y489D02*
X855Y489D01*
X920Y489D02*
X955Y489D01*
X1020Y489D02*
X1055Y489D01*
X1120Y489D02*
X1155Y489D01*
X1220Y489D02*
X1255Y489D01*
X1320Y489D02*
X1355Y489D01*
X1420Y489D02*
X1455Y489D01*
X1520Y489D02*
X1555Y489D01*
X1620Y489D02*
X1655Y489D01*
X519Y488D02*
X557Y488D01*
X619Y488D02*
X657Y488D01*
X719Y488D02*
X757Y488D01*
X819Y488D02*
X857Y488D01*
X919Y488D02*
X957Y488D01*
X1019Y488D02*
X1057Y488D01*
X1119Y488D02*
X1156Y488D01*
X1218Y488D02*
X1256Y488D01*
X1318Y488D02*
X1356Y488D01*
X1418Y488D02*
X1456Y488D01*
X1518Y488D02*
X1556Y488D01*
X1618Y488D02*
X1656Y488D01*
X517Y487D02*
X558Y487D01*
X617Y487D02*
X658Y487D01*
X717Y487D02*
X758Y487D01*
X817Y487D02*
X858Y487D01*
X917Y487D02*
X958Y487D01*
X1017Y487D02*
X1058Y487D01*
X1117Y487D02*
X1158Y487D01*
X1217Y487D02*
X1258Y487D01*
X1317Y487D02*
X1358Y487D01*
X1417Y487D02*
X1458Y487D01*
X1517Y487D02*
X1558Y487D01*
X1617Y487D02*
X1658Y487D01*
X516Y486D02*
X559Y486D01*
X616Y486D02*
X659Y486D01*
X716Y486D02*
X759Y486D01*
X816Y486D02*
X859Y486D01*
X916Y486D02*
X959Y486D01*
X1016Y486D02*
X1059Y486D01*
X1116Y486D02*
X1159Y486D01*
X1216Y486D02*
X1259Y486D01*
X1316Y486D02*
X1359Y486D01*
X1416Y486D02*
X1459Y486D01*
X1516Y486D02*
X1559Y486D01*
X1616Y486D02*
X1659Y486D01*
X515Y485D02*
X560Y485D01*
X615Y485D02*
X660Y485D01*
X715Y485D02*
X760Y485D01*
X815Y485D02*
X860Y485D01*
X915Y485D02*
X960Y485D01*
X1015Y485D02*
X1060Y485D01*
X1115Y485D02*
X1160Y485D01*
X1215Y485D02*
X1260Y485D01*
X1315Y485D02*
X1360Y485D01*
X1415Y485D02*
X1460Y485D01*
X1515Y485D02*
X1560Y485D01*
X1615Y485D02*
X1660Y485D01*
X514Y484D02*
X561Y484D01*
X614Y484D02*
X661Y484D01*
X714Y484D02*
X761Y484D01*
X814Y484D02*
X861Y484D01*
X914Y484D02*
X961Y484D01*
X1014Y484D02*
X1061Y484D01*
X1114Y484D02*
X1161Y484D01*
X1214Y484D02*
X1261Y484D01*
X1314Y484D02*
X1361Y484D01*
X1414Y484D02*
X1461Y484D01*
X1514Y484D02*
X1561Y484D01*
X1614Y484D02*
X1661Y484D01*
X513Y483D02*
X562Y483D01*
X613Y483D02*
X662Y483D01*
X713Y483D02*
X762Y483D01*
X813Y483D02*
X862Y483D01*
X913Y483D02*
X962Y483D01*
X1013Y483D02*
X1062Y483D01*
X1113Y483D02*
X1162Y483D01*
X1213Y483D02*
X1262Y483D01*
X1313Y483D02*
X1362Y483D01*
X1413Y483D02*
X1462Y483D01*
X1513Y483D02*
X1562Y483D01*
X1613Y483D02*
X1662Y483D01*
X512Y482D02*
X563Y482D01*
X612Y482D02*
X663Y482D01*
X712Y482D02*
X763Y482D01*
X812Y482D02*
X863Y482D01*
X912Y482D02*
X963Y482D01*
X1012Y482D02*
X1063Y482D01*
X1112Y482D02*
X1163Y482D01*
X1212Y482D02*
X1263Y482D01*
X1312Y482D02*
X1363Y482D01*
X1412Y482D02*
X1463Y482D01*
X1512Y482D02*
X1563Y482D01*
X1612Y482D02*
X1663Y482D01*
X511Y481D02*
X564Y481D01*
X611Y481D02*
X664Y481D01*
X711Y481D02*
X764Y481D01*
X811Y481D02*
X864Y481D01*
X911Y481D02*
X964Y481D01*
X1011Y481D02*
X1064Y481D01*
X1111Y481D02*
X1164Y481D01*
X1211Y481D02*
X1264Y481D01*
X1311Y481D02*
X1364Y481D01*
X1411Y481D02*
X1464Y481D01*
X1511Y481D02*
X1564Y481D01*
X1611Y481D02*
X1664Y481D01*
X511Y480D02*
X565Y480D01*
X611Y480D02*
X665Y480D01*
X710Y480D02*
X765Y480D01*
X810Y480D02*
X864Y480D01*
X910Y480D02*
X964Y480D01*
X1010Y480D02*
X1064Y480D01*
X1110Y480D02*
X1164Y480D01*
X1210Y480D02*
X1264Y480D01*
X1310Y480D02*
X1364Y480D01*
X1410Y480D02*
X1464Y480D01*
X1510Y480D02*
X1564Y480D01*
X1610Y480D02*
X1664Y480D01*
X510Y479D02*
X565Y479D01*
X610Y479D02*
X665Y479D01*
X710Y479D02*
X765Y479D01*
X810Y479D02*
X865Y479D01*
X910Y479D02*
X965Y479D01*
X1010Y479D02*
X1065Y479D01*
X1110Y479D02*
X1165Y479D01*
X1210Y479D02*
X1265Y479D01*
X1310Y479D02*
X1365Y479D01*
X1410Y479D02*
X1465Y479D01*
X1510Y479D02*
X1565Y479D01*
X1610Y479D02*
X1665Y479D01*
X509Y478D02*
X532Y478D01*
X543Y478D02*
X566Y478D01*
X609Y478D02*
X632Y478D01*
X643Y478D02*
X666Y478D01*
X709Y478D02*
X732Y478D01*
X743Y478D02*
X766Y478D01*
X809Y478D02*
X832Y478D01*
X843Y478D02*
X866Y478D01*
X909Y478D02*
X932Y478D01*
X943Y478D02*
X966Y478D01*
X1009Y478D02*
X1032Y478D01*
X1043Y478D02*
X1066Y478D01*
X1109Y478D02*
X1132Y478D01*
X1143Y478D02*
X1166Y478D01*
X1209Y478D02*
X1232Y478D01*
X1243Y478D02*
X1266Y478D01*
X1309Y478D02*
X1332Y478D01*
X1343Y478D02*
X1366Y478D01*
X1409Y478D02*
X1432Y478D01*
X1443Y478D02*
X1466Y478D01*
X1509Y478D02*
X1532Y478D01*
X1543Y478D02*
X1566Y478D01*
X1609Y478D02*
X1632Y478D01*
X1643Y478D02*
X1666Y478D01*
X509Y477D02*
X529Y477D01*
X547Y477D02*
X566Y477D01*
X609Y477D02*
X629Y477D01*
X647Y477D02*
X666Y477D01*
X709Y477D02*
X729Y477D01*
X747Y477D02*
X766Y477D01*
X808Y477D02*
X829Y477D01*
X847Y477D02*
X866Y477D01*
X908Y477D02*
X929Y477D01*
X947Y477D02*
X966Y477D01*
X1008Y477D02*
X1029Y477D01*
X1046Y477D02*
X1066Y477D01*
X1108Y477D02*
X1128Y477D01*
X1146Y477D02*
X1166Y477D01*
X1208Y477D02*
X1228Y477D01*
X1246Y477D02*
X1266Y477D01*
X1308Y477D02*
X1328Y477D01*
X1346Y477D02*
X1366Y477D01*
X1408Y477D02*
X1428Y477D01*
X1446Y477D02*
X1466Y477D01*
X1508Y477D02*
X1528Y477D01*
X1546Y477D02*
X1566Y477D01*
X1608Y477D02*
X1628Y477D01*
X1646Y477D02*
X1666Y477D01*
X508Y476D02*
X527Y476D01*
X549Y476D02*
X567Y476D01*
X608Y476D02*
X627Y476D01*
X649Y476D02*
X667Y476D01*
X708Y476D02*
X727Y476D01*
X749Y476D02*
X767Y476D01*
X808Y476D02*
X827Y476D01*
X849Y476D02*
X867Y476D01*
X908Y476D02*
X926Y476D01*
X949Y476D02*
X967Y476D01*
X1008Y476D02*
X1026Y476D01*
X1049Y476D02*
X1067Y476D01*
X1108Y476D02*
X1126Y476D01*
X1149Y476D02*
X1167Y476D01*
X1208Y476D02*
X1226Y476D01*
X1249Y476D02*
X1267Y476D01*
X1308Y476D02*
X1326Y476D01*
X1348Y476D02*
X1367Y476D01*
X1408Y476D02*
X1426Y476D01*
X1448Y476D02*
X1467Y476D01*
X1508Y476D02*
X1526Y476D01*
X1548Y476D02*
X1567Y476D01*
X1608Y476D02*
X1626Y476D01*
X1648Y476D02*
X1667Y476D01*
X507Y475D02*
X525Y475D01*
X550Y475D02*
X568Y475D01*
X607Y475D02*
X625Y475D01*
X650Y475D02*
X667Y475D01*
X707Y475D02*
X725Y475D01*
X750Y475D02*
X767Y475D01*
X807Y475D02*
X825Y475D01*
X850Y475D02*
X867Y475D01*
X907Y475D02*
X925Y475D01*
X950Y475D02*
X967Y475D01*
X1007Y475D02*
X1025Y475D01*
X1050Y475D02*
X1067Y475D01*
X1107Y475D02*
X1125Y475D01*
X1150Y475D02*
X1167Y475D01*
X1207Y475D02*
X1225Y475D01*
X1250Y475D02*
X1267Y475D01*
X1307Y475D02*
X1325Y475D01*
X1350Y475D02*
X1367Y475D01*
X1407Y475D02*
X1425Y475D01*
X1450Y475D02*
X1467Y475D01*
X1507Y475D02*
X1525Y475D01*
X1550Y475D02*
X1567Y475D01*
X1607Y475D02*
X1625Y475D01*
X1650Y475D02*
X1667Y475D01*
X507Y474D02*
X524Y474D01*
X551Y474D02*
X568Y474D01*
X607Y474D02*
X624Y474D01*
X651Y474D02*
X668Y474D01*
X707Y474D02*
X724Y474D01*
X751Y474D02*
X768Y474D01*
X807Y474D02*
X824Y474D01*
X851Y474D02*
X868Y474D01*
X907Y474D02*
X924Y474D01*
X951Y474D02*
X968Y474D01*
X1007Y474D02*
X1024Y474D01*
X1051Y474D02*
X1068Y474D01*
X1107Y474D02*
X1124Y474D01*
X1151Y474D02*
X1168Y474D01*
X1207Y474D02*
X1224Y474D01*
X1251Y474D02*
X1268Y474D01*
X1307Y474D02*
X1324Y474D01*
X1351Y474D02*
X1368Y474D01*
X1407Y474D02*
X1424Y474D01*
X1451Y474D02*
X1468Y474D01*
X1507Y474D02*
X1524Y474D01*
X1551Y474D02*
X1568Y474D01*
X1607Y474D02*
X1624Y474D01*
X1651Y474D02*
X1668Y474D01*
X507Y473D02*
X523Y473D01*
X552Y473D02*
X568Y473D01*
X606Y473D02*
X623Y473D01*
X652Y473D02*
X668Y473D01*
X706Y473D02*
X723Y473D01*
X752Y473D02*
X768Y473D01*
X806Y473D02*
X823Y473D01*
X852Y473D02*
X868Y473D01*
X906Y473D02*
X923Y473D01*
X952Y473D02*
X968Y473D01*
X1006Y473D02*
X1023Y473D01*
X1052Y473D02*
X1068Y473D01*
X1106Y473D02*
X1123Y473D01*
X1152Y473D02*
X1168Y473D01*
X1206Y473D02*
X1223Y473D01*
X1252Y473D02*
X1268Y473D01*
X1306Y473D02*
X1323Y473D01*
X1352Y473D02*
X1368Y473D01*
X1406Y473D02*
X1423Y473D01*
X1452Y473D02*
X1468Y473D01*
X1506Y473D02*
X1523Y473D01*
X1552Y473D02*
X1568Y473D01*
X1606Y473D02*
X1623Y473D01*
X1652Y473D02*
X1668Y473D01*
X506Y472D02*
X522Y472D01*
X553Y472D02*
X569Y472D01*
X606Y472D02*
X622Y472D01*
X653Y472D02*
X669Y472D01*
X706Y472D02*
X722Y472D01*
X753Y472D02*
X769Y472D01*
X806Y472D02*
X822Y472D01*
X853Y472D02*
X869Y472D01*
X906Y472D02*
X922Y472D01*
X953Y472D02*
X969Y472D01*
X1006Y472D02*
X1022Y472D01*
X1053Y472D02*
X1069Y472D01*
X1106Y472D02*
X1122Y472D01*
X1153Y472D02*
X1169Y472D01*
X1206Y472D02*
X1222Y472D01*
X1253Y472D02*
X1269Y472D01*
X1306Y472D02*
X1322Y472D01*
X1353Y472D02*
X1369Y472D01*
X1406Y472D02*
X1422Y472D01*
X1453Y472D02*
X1469Y472D01*
X1506Y472D02*
X1522Y472D01*
X1553Y472D02*
X1569Y472D01*
X1606Y472D02*
X1622Y472D01*
X1653Y472D02*
X1669Y472D01*
X506Y471D02*
X522Y471D01*
X554Y471D02*
X569Y471D01*
X606Y471D02*
X622Y471D01*
X653Y471D02*
X669Y471D01*
X706Y471D02*
X722Y471D01*
X753Y471D02*
X769Y471D01*
X806Y471D02*
X821Y471D01*
X853Y471D02*
X869Y471D01*
X906Y471D02*
X921Y471D01*
X953Y471D02*
X969Y471D01*
X1006Y471D02*
X1021Y471D01*
X1053Y471D02*
X1069Y471D01*
X1106Y471D02*
X1121Y471D01*
X1153Y471D02*
X1169Y471D01*
X1206Y471D02*
X1221Y471D01*
X1253Y471D02*
X1269Y471D01*
X1306Y471D02*
X1321Y471D01*
X1353Y471D02*
X1369Y471D01*
X1406Y471D02*
X1421Y471D01*
X1453Y471D02*
X1469Y471D01*
X1505Y471D02*
X1521Y471D01*
X1553Y471D02*
X1569Y471D01*
X1605Y471D02*
X1621Y471D01*
X1653Y471D02*
X1669Y471D01*
X505Y470D02*
X521Y470D01*
X554Y470D02*
X569Y470D01*
X605Y470D02*
X621Y470D01*
X654Y470D02*
X669Y470D01*
X705Y470D02*
X721Y470D01*
X754Y470D02*
X769Y470D01*
X805Y470D02*
X821Y470D01*
X854Y470D02*
X869Y470D01*
X905Y470D02*
X921Y470D01*
X954Y470D02*
X969Y470D01*
X1005Y470D02*
X1021Y470D01*
X1054Y470D02*
X1069Y470D01*
X1105Y470D02*
X1121Y470D01*
X1154Y470D02*
X1169Y470D01*
X1205Y470D02*
X1221Y470D01*
X1254Y470D02*
X1269Y470D01*
X1305Y470D02*
X1321Y470D01*
X1354Y470D02*
X1369Y470D01*
X1405Y470D02*
X1421Y470D01*
X1454Y470D02*
X1469Y470D01*
X1505Y470D02*
X1521Y470D01*
X1554Y470D02*
X1569Y470D01*
X1605Y470D02*
X1621Y470D01*
X1654Y470D02*
X1669Y470D01*
X505Y469D02*
X521Y469D01*
X554Y469D02*
X570Y469D01*
X605Y469D02*
X621Y469D01*
X654Y469D02*
X670Y469D01*
X705Y469D02*
X721Y469D01*
X754Y469D02*
X770Y469D01*
X805Y469D02*
X820Y469D01*
X854Y469D02*
X870Y469D01*
X905Y469D02*
X920Y469D01*
X954Y469D02*
X970Y469D01*
X1005Y469D02*
X1020Y469D01*
X1054Y469D02*
X1070Y469D01*
X1105Y469D02*
X1120Y469D01*
X1154Y469D02*
X1170Y469D01*
X1205Y469D02*
X1220Y469D01*
X1254Y469D02*
X1270Y469D01*
X1305Y469D02*
X1320Y469D01*
X1354Y469D02*
X1370Y469D01*
X1405Y469D02*
X1420Y469D01*
X1454Y469D02*
X1470Y469D01*
X1505Y469D02*
X1520Y469D01*
X1554Y469D02*
X1570Y469D01*
X1605Y469D02*
X1620Y469D01*
X1654Y469D02*
X1669Y469D01*
X505Y468D02*
X520Y468D01*
X555Y468D02*
X570Y468D01*
X605Y468D02*
X620Y468D01*
X655Y468D02*
X670Y468D01*
X705Y468D02*
X720Y468D01*
X755Y468D02*
X770Y468D01*
X805Y468D02*
X820Y468D01*
X855Y468D02*
X870Y468D01*
X905Y468D02*
X920Y468D01*
X955Y468D02*
X970Y468D01*
X1005Y468D02*
X1020Y468D01*
X1055Y468D02*
X1070Y468D01*
X1105Y468D02*
X1120Y468D01*
X1155Y468D02*
X1170Y468D01*
X1205Y468D02*
X1220Y468D01*
X1255Y468D02*
X1270Y468D01*
X1305Y468D02*
X1320Y468D01*
X1355Y468D02*
X1370Y468D01*
X1405Y468D02*
X1420Y468D01*
X1455Y468D02*
X1470Y468D01*
X1505Y468D02*
X1520Y468D01*
X1555Y468D02*
X1570Y468D01*
X1605Y468D02*
X1620Y468D01*
X1655Y468D02*
X1670Y468D01*
X505Y467D02*
X520Y467D01*
X555Y467D02*
X570Y467D01*
X605Y467D02*
X620Y467D01*
X655Y467D02*
X670Y467D01*
X705Y467D02*
X720Y467D01*
X755Y467D02*
X770Y467D01*
X805Y467D02*
X820Y467D01*
X855Y467D02*
X870Y467D01*
X905Y467D02*
X920Y467D01*
X955Y467D02*
X970Y467D01*
X1004Y467D02*
X1020Y467D01*
X1055Y467D02*
X1070Y467D01*
X1104Y467D02*
X1120Y467D01*
X1155Y467D02*
X1170Y467D01*
X1204Y467D02*
X1220Y467D01*
X1255Y467D02*
X1270Y467D01*
X1304Y467D02*
X1320Y467D01*
X1355Y467D02*
X1370Y467D01*
X1404Y467D02*
X1420Y467D01*
X1455Y467D02*
X1470Y467D01*
X1504Y467D02*
X1520Y467D01*
X1555Y467D02*
X1570Y467D01*
X1604Y467D02*
X1620Y467D01*
X1655Y467D02*
X1670Y467D01*
X504Y466D02*
X520Y466D01*
X555Y466D02*
X570Y466D01*
X604Y466D02*
X620Y466D01*
X655Y466D02*
X670Y466D01*
X704Y466D02*
X720Y466D01*
X755Y466D02*
X770Y466D01*
X804Y466D02*
X820Y466D01*
X855Y466D02*
X870Y466D01*
X904Y466D02*
X920Y466D01*
X955Y466D02*
X970Y466D01*
X1004Y466D02*
X1019Y466D01*
X1055Y466D02*
X1070Y466D01*
X1104Y466D02*
X1119Y466D01*
X1155Y466D02*
X1170Y466D01*
X1204Y466D02*
X1219Y466D01*
X1255Y466D02*
X1270Y466D01*
X1304Y466D02*
X1319Y466D01*
X1355Y466D02*
X1370Y466D01*
X1404Y466D02*
X1419Y466D01*
X1455Y466D02*
X1470Y466D01*
X1504Y466D02*
X1519Y466D01*
X1555Y466D02*
X1570Y466D01*
X1604Y466D02*
X1619Y466D01*
X1655Y466D02*
X1670Y466D01*
X504Y465D02*
X519Y465D01*
X556Y465D02*
X571Y465D01*
X604Y465D02*
X619Y465D01*
X656Y465D02*
X671Y465D01*
X704Y465D02*
X719Y465D01*
X755Y465D02*
X771Y465D01*
X804Y465D02*
X819Y465D01*
X855Y465D02*
X871Y465D01*
X904Y465D02*
X919Y465D01*
X955Y465D02*
X970Y465D01*
X1004Y465D02*
X1019Y465D01*
X1055Y465D02*
X1070Y465D01*
X1104Y465D02*
X1119Y465D01*
X1155Y465D02*
X1170Y465D01*
X1204Y465D02*
X1219Y465D01*
X1255Y465D02*
X1270Y465D01*
X1304Y465D02*
X1319Y465D01*
X1355Y465D02*
X1370Y465D01*
X1404Y465D02*
X1419Y465D01*
X1455Y465D02*
X1470Y465D01*
X1504Y465D02*
X1519Y465D01*
X1555Y465D02*
X1570Y465D01*
X1604Y465D02*
X1619Y465D01*
X1655Y465D02*
X1670Y465D01*
X504Y464D02*
X519Y464D01*
X556Y464D02*
X571Y464D01*
X604Y464D02*
X619Y464D01*
X656Y464D02*
X671Y464D01*
X704Y464D02*
X719Y464D01*
X756Y464D02*
X771Y464D01*
X804Y464D02*
X819Y464D01*
X856Y464D02*
X871Y464D01*
X904Y464D02*
X919Y464D01*
X956Y464D02*
X971Y464D01*
X1004Y464D02*
X1019Y464D01*
X1056Y464D02*
X1071Y464D01*
X1104Y464D02*
X1119Y464D01*
X1156Y464D02*
X1171Y464D01*
X1204Y464D02*
X1219Y464D01*
X1256Y464D02*
X1271Y464D01*
X1304Y464D02*
X1319Y464D01*
X1355Y464D02*
X1371Y464D01*
X1404Y464D02*
X1419Y464D01*
X1455Y464D02*
X1471Y464D01*
X1504Y464D02*
X1519Y464D01*
X1555Y464D02*
X1570Y464D01*
X1604Y464D02*
X1619Y464D01*
X1655Y464D02*
X1670Y464D01*
X504Y463D02*
X519Y463D01*
X556Y463D02*
X571Y463D01*
X604Y463D02*
X619Y463D01*
X656Y463D02*
X671Y463D01*
X704Y463D02*
X719Y463D01*
X756Y463D02*
X771Y463D01*
X804Y463D02*
X819Y463D01*
X856Y463D02*
X871Y463D01*
X904Y463D02*
X919Y463D01*
X956Y463D02*
X971Y463D01*
X1004Y463D02*
X1019Y463D01*
X1056Y463D02*
X1071Y463D01*
X1104Y463D02*
X1119Y463D01*
X1156Y463D02*
X1171Y463D01*
X1204Y463D02*
X1219Y463D01*
X1256Y463D02*
X1271Y463D01*
X1304Y463D02*
X1319Y463D01*
X1356Y463D02*
X1371Y463D01*
X1404Y463D02*
X1419Y463D01*
X1456Y463D02*
X1471Y463D01*
X1504Y463D02*
X1519Y463D01*
X1555Y463D02*
X1571Y463D01*
X1604Y463D02*
X1619Y463D01*
X1655Y463D02*
X1671Y463D01*
X504Y462D02*
X519Y462D01*
X556Y462D02*
X571Y462D01*
X604Y462D02*
X619Y462D01*
X656Y462D02*
X671Y462D01*
X704Y462D02*
X719Y462D01*
X756Y462D02*
X771Y462D01*
X804Y462D02*
X819Y462D01*
X856Y462D02*
X871Y462D01*
X904Y462D02*
X919Y462D01*
X956Y462D02*
X971Y462D01*
X1004Y462D02*
X1019Y462D01*
X1056Y462D02*
X1071Y462D01*
X1104Y462D02*
X1119Y462D01*
X1156Y462D02*
X1171Y462D01*
X1204Y462D02*
X1219Y462D01*
X1256Y462D02*
X1271Y462D01*
X1304Y462D02*
X1319Y462D01*
X1356Y462D02*
X1371Y462D01*
X1404Y462D02*
X1419Y462D01*
X1456Y462D02*
X1471Y462D01*
X1504Y462D02*
X1519Y462D01*
X1556Y462D02*
X1571Y462D01*
X1604Y462D02*
X1619Y462D01*
X1656Y462D02*
X1671Y462D01*
X504Y461D02*
X519Y461D01*
X556Y461D02*
X571Y461D01*
X604Y461D02*
X619Y461D01*
X656Y461D02*
X671Y461D01*
X704Y461D02*
X719Y461D01*
X756Y461D02*
X771Y461D01*
X804Y461D02*
X819Y461D01*
X856Y461D02*
X871Y461D01*
X904Y461D02*
X919Y461D01*
X956Y461D02*
X971Y461D01*
X1004Y461D02*
X1019Y461D01*
X1056Y461D02*
X1071Y461D01*
X1104Y461D02*
X1119Y461D01*
X1156Y461D02*
X1171Y461D01*
X1204Y461D02*
X1219Y461D01*
X1256Y461D02*
X1271Y461D01*
X1304Y461D02*
X1319Y461D01*
X1356Y461D02*
X1371Y461D01*
X1404Y461D02*
X1419Y461D01*
X1456Y461D02*
X1471Y461D01*
X1504Y461D02*
X1519Y461D01*
X1556Y461D02*
X1571Y461D01*
X1604Y461D02*
X1619Y461D01*
X1656Y461D02*
X1671Y461D01*
X504Y460D02*
X519Y460D01*
X556Y460D02*
X571Y460D01*
X604Y460D02*
X619Y460D01*
X656Y460D02*
X671Y460D01*
X704Y460D02*
X719Y460D01*
X756Y460D02*
X771Y460D01*
X804Y460D02*
X819Y460D01*
X856Y460D02*
X871Y460D01*
X904Y460D02*
X919Y460D01*
X956Y460D02*
X971Y460D01*
X1004Y460D02*
X1019Y460D01*
X1056Y460D02*
X1071Y460D01*
X1104Y460D02*
X1119Y460D01*
X1156Y460D02*
X1171Y460D01*
X1204Y460D02*
X1219Y460D01*
X1256Y460D02*
X1271Y460D01*
X1304Y460D02*
X1319Y460D01*
X1356Y460D02*
X1371Y460D01*
X1404Y460D02*
X1419Y460D01*
X1456Y460D02*
X1471Y460D01*
X1504Y460D02*
X1519Y460D01*
X1556Y460D02*
X1571Y460D01*
X1604Y460D02*
X1619Y460D01*
X1656Y460D02*
X1671Y460D01*
X504Y459D02*
X519Y459D01*
X556Y459D02*
X571Y459D01*
X604Y459D02*
X619Y459D01*
X656Y459D02*
X671Y459D01*
X704Y459D02*
X719Y459D01*
X756Y459D02*
X771Y459D01*
X804Y459D02*
X819Y459D01*
X856Y459D02*
X871Y459D01*
X904Y459D02*
X919Y459D01*
X956Y459D02*
X971Y459D01*
X1004Y459D02*
X1019Y459D01*
X1056Y459D02*
X1071Y459D01*
X1104Y459D02*
X1119Y459D01*
X1156Y459D02*
X1171Y459D01*
X1204Y459D02*
X1219Y459D01*
X1256Y459D02*
X1271Y459D01*
X1304Y459D02*
X1319Y459D01*
X1356Y459D02*
X1371Y459D01*
X1404Y459D02*
X1419Y459D01*
X1456Y459D02*
X1471Y459D01*
X1504Y459D02*
X1519Y459D01*
X1556Y459D02*
X1571Y459D01*
X1604Y459D02*
X1619Y459D01*
X1656Y459D02*
X1671Y459D01*
X504Y458D02*
X519Y458D01*
X556Y458D02*
X571Y458D01*
X604Y458D02*
X619Y458D01*
X656Y458D02*
X671Y458D01*
X704Y458D02*
X719Y458D01*
X756Y458D02*
X771Y458D01*
X804Y458D02*
X819Y458D01*
X856Y458D02*
X871Y458D01*
X904Y458D02*
X919Y458D01*
X956Y458D02*
X971Y458D01*
X1004Y458D02*
X1019Y458D01*
X1056Y458D02*
X1071Y458D01*
X1104Y458D02*
X1119Y458D01*
X1156Y458D02*
X1171Y458D01*
X1204Y458D02*
X1219Y458D01*
X1256Y458D02*
X1271Y458D01*
X1304Y458D02*
X1319Y458D01*
X1356Y458D02*
X1371Y458D01*
X1404Y458D02*
X1419Y458D01*
X1455Y458D02*
X1471Y458D01*
X1504Y458D02*
X1519Y458D01*
X1555Y458D02*
X1571Y458D01*
X1604Y458D02*
X1619Y458D01*
X1655Y458D02*
X1671Y458D01*
X504Y457D02*
X519Y457D01*
X556Y457D02*
X571Y457D01*
X604Y457D02*
X619Y457D01*
X656Y457D02*
X671Y457D01*
X704Y457D02*
X719Y457D01*
X756Y457D02*
X771Y457D01*
X804Y457D02*
X819Y457D01*
X856Y457D02*
X871Y457D01*
X904Y457D02*
X919Y457D01*
X956Y457D02*
X971Y457D01*
X1004Y457D02*
X1019Y457D01*
X1055Y457D02*
X1071Y457D01*
X1104Y457D02*
X1119Y457D01*
X1155Y457D02*
X1171Y457D01*
X1204Y457D02*
X1219Y457D01*
X1255Y457D02*
X1270Y457D01*
X1304Y457D02*
X1319Y457D01*
X1355Y457D02*
X1370Y457D01*
X1404Y457D02*
X1419Y457D01*
X1455Y457D02*
X1470Y457D01*
X1504Y457D02*
X1519Y457D01*
X1555Y457D02*
X1570Y457D01*
X1604Y457D02*
X1619Y457D01*
X1655Y457D02*
X1670Y457D01*
X504Y456D02*
X519Y456D01*
X555Y456D02*
X570Y456D01*
X604Y456D02*
X619Y456D01*
X655Y456D02*
X670Y456D01*
X704Y456D02*
X719Y456D01*
X755Y456D02*
X770Y456D01*
X804Y456D02*
X819Y456D01*
X855Y456D02*
X870Y456D01*
X904Y456D02*
X919Y456D01*
X955Y456D02*
X970Y456D01*
X1004Y456D02*
X1019Y456D01*
X1055Y456D02*
X1070Y456D01*
X1104Y456D02*
X1119Y456D01*
X1155Y456D02*
X1170Y456D01*
X1204Y456D02*
X1219Y456D01*
X1255Y456D02*
X1270Y456D01*
X1304Y456D02*
X1319Y456D01*
X1355Y456D02*
X1370Y456D01*
X1404Y456D02*
X1419Y456D01*
X1455Y456D02*
X1470Y456D01*
X1504Y456D02*
X1519Y456D01*
X1555Y456D02*
X1570Y456D01*
X1604Y456D02*
X1619Y456D01*
X1655Y456D02*
X1670Y456D01*
X505Y455D02*
X520Y455D01*
X555Y455D02*
X570Y455D01*
X605Y455D02*
X620Y455D01*
X655Y455D02*
X670Y455D01*
X704Y455D02*
X720Y455D01*
X755Y455D02*
X770Y455D01*
X804Y455D02*
X820Y455D01*
X855Y455D02*
X870Y455D01*
X904Y455D02*
X920Y455D01*
X955Y455D02*
X970Y455D01*
X1004Y455D02*
X1020Y455D01*
X1055Y455D02*
X1070Y455D01*
X1104Y455D02*
X1120Y455D01*
X1155Y455D02*
X1170Y455D01*
X1204Y455D02*
X1220Y455D01*
X1255Y455D02*
X1270Y455D01*
X1304Y455D02*
X1320Y455D01*
X1355Y455D02*
X1370Y455D01*
X1404Y455D02*
X1420Y455D01*
X1455Y455D02*
X1470Y455D01*
X1504Y455D02*
X1520Y455D01*
X1555Y455D02*
X1570Y455D01*
X1604Y455D02*
X1619Y455D01*
X1655Y455D02*
X1670Y455D01*
X505Y454D02*
X520Y454D01*
X555Y454D02*
X570Y454D01*
X605Y454D02*
X620Y454D01*
X655Y454D02*
X670Y454D01*
X705Y454D02*
X720Y454D01*
X755Y454D02*
X770Y454D01*
X805Y454D02*
X820Y454D01*
X855Y454D02*
X870Y454D01*
X905Y454D02*
X920Y454D01*
X955Y454D02*
X970Y454D01*
X1005Y454D02*
X1020Y454D01*
X1055Y454D02*
X1070Y454D01*
X1105Y454D02*
X1120Y454D01*
X1155Y454D02*
X1170Y454D01*
X1205Y454D02*
X1220Y454D01*
X1255Y454D02*
X1270Y454D01*
X1305Y454D02*
X1320Y454D01*
X1355Y454D02*
X1370Y454D01*
X1405Y454D02*
X1420Y454D01*
X1455Y454D02*
X1470Y454D01*
X1504Y454D02*
X1520Y454D01*
X1555Y454D02*
X1570Y454D01*
X1604Y454D02*
X1620Y454D01*
X1655Y454D02*
X1670Y454D01*
X505Y453D02*
X520Y453D01*
X555Y453D02*
X570Y453D01*
X605Y453D02*
X620Y453D01*
X655Y453D02*
X670Y453D01*
X705Y453D02*
X720Y453D01*
X755Y453D02*
X770Y453D01*
X805Y453D02*
X820Y453D01*
X855Y453D02*
X870Y453D01*
X905Y453D02*
X920Y453D01*
X955Y453D02*
X970Y453D01*
X1005Y453D02*
X1020Y453D01*
X1054Y453D02*
X1070Y453D01*
X1105Y453D02*
X1120Y453D01*
X1154Y453D02*
X1170Y453D01*
X1205Y453D02*
X1220Y453D01*
X1254Y453D02*
X1270Y453D01*
X1305Y453D02*
X1320Y453D01*
X1354Y453D02*
X1370Y453D01*
X1405Y453D02*
X1420Y453D01*
X1454Y453D02*
X1470Y453D01*
X1505Y453D02*
X1520Y453D01*
X1554Y453D02*
X1570Y453D01*
X1605Y453D02*
X1620Y453D01*
X1654Y453D02*
X1670Y453D01*
X505Y452D02*
X521Y452D01*
X554Y452D02*
X570Y452D01*
X605Y452D02*
X621Y452D01*
X654Y452D02*
X670Y452D01*
X705Y452D02*
X721Y452D01*
X754Y452D02*
X770Y452D01*
X805Y452D02*
X821Y452D01*
X854Y452D02*
X870Y452D01*
X905Y452D02*
X921Y452D01*
X954Y452D02*
X969Y452D01*
X1005Y452D02*
X1021Y452D01*
X1054Y452D02*
X1069Y452D01*
X1105Y452D02*
X1121Y452D01*
X1154Y452D02*
X1169Y452D01*
X1205Y452D02*
X1221Y452D01*
X1254Y452D02*
X1269Y452D01*
X1305Y452D02*
X1321Y452D01*
X1354Y452D02*
X1369Y452D01*
X1405Y452D02*
X1421Y452D01*
X1454Y452D02*
X1469Y452D01*
X1505Y452D02*
X1521Y452D01*
X1554Y452D02*
X1569Y452D01*
X1605Y452D02*
X1621Y452D01*
X1654Y452D02*
X1669Y452D01*
X506Y451D02*
X521Y451D01*
X554Y451D02*
X569Y451D01*
X606Y451D02*
X621Y451D01*
X654Y451D02*
X669Y451D01*
X706Y451D02*
X721Y451D01*
X754Y451D02*
X769Y451D01*
X806Y451D02*
X821Y451D01*
X854Y451D02*
X869Y451D01*
X906Y451D02*
X921Y451D01*
X954Y451D02*
X969Y451D01*
X1005Y451D02*
X1021Y451D01*
X1054Y451D02*
X1069Y451D01*
X1105Y451D02*
X1121Y451D01*
X1153Y451D02*
X1169Y451D01*
X1205Y451D02*
X1221Y451D01*
X1253Y451D02*
X1269Y451D01*
X1305Y451D02*
X1321Y451D01*
X1353Y451D02*
X1369Y451D01*
X1405Y451D02*
X1421Y451D01*
X1453Y451D02*
X1469Y451D01*
X1505Y451D02*
X1521Y451D01*
X1553Y451D02*
X1569Y451D01*
X1605Y451D02*
X1621Y451D01*
X1653Y451D02*
X1669Y451D01*
X506Y450D02*
X522Y450D01*
X553Y450D02*
X569Y450D01*
X606Y450D02*
X622Y450D01*
X653Y450D02*
X669Y450D01*
X706Y450D02*
X722Y450D01*
X753Y450D02*
X769Y450D01*
X806Y450D02*
X822Y450D01*
X853Y450D02*
X869Y450D01*
X906Y450D02*
X922Y450D01*
X953Y450D02*
X969Y450D01*
X1006Y450D02*
X1022Y450D01*
X1053Y450D02*
X1069Y450D01*
X1106Y450D02*
X1122Y450D01*
X1153Y450D02*
X1169Y450D01*
X1206Y450D02*
X1222Y450D01*
X1253Y450D02*
X1269Y450D01*
X1306Y450D02*
X1322Y450D01*
X1353Y450D02*
X1369Y450D01*
X1406Y450D02*
X1422Y450D01*
X1453Y450D02*
X1469Y450D01*
X1506Y450D02*
X1522Y450D01*
X1553Y450D02*
X1569Y450D01*
X1606Y450D02*
X1622Y450D01*
X1653Y450D02*
X1669Y450D01*
X506Y449D02*
X523Y449D01*
X552Y449D02*
X569Y449D01*
X606Y449D02*
X623Y449D01*
X652Y449D02*
X669Y449D01*
X706Y449D02*
X723Y449D01*
X752Y449D02*
X769Y449D01*
X806Y449D02*
X823Y449D01*
X852Y449D02*
X868Y449D01*
X906Y449D02*
X923Y449D01*
X952Y449D02*
X968Y449D01*
X1006Y449D02*
X1023Y449D01*
X1052Y449D02*
X1068Y449D01*
X1106Y449D02*
X1123Y449D01*
X1152Y449D02*
X1168Y449D01*
X1206Y449D02*
X1223Y449D01*
X1252Y449D02*
X1268Y449D01*
X1306Y449D02*
X1323Y449D01*
X1352Y449D02*
X1368Y449D01*
X1406Y449D02*
X1423Y449D01*
X1452Y449D02*
X1468Y449D01*
X1506Y449D02*
X1523Y449D01*
X1552Y449D02*
X1568Y449D01*
X1606Y449D02*
X1623Y449D01*
X1652Y449D02*
X1668Y449D01*
X507Y448D02*
X524Y448D01*
X552Y448D02*
X568Y448D01*
X607Y448D02*
X624Y448D01*
X652Y448D02*
X668Y448D01*
X707Y448D02*
X724Y448D01*
X752Y448D02*
X768Y448D01*
X807Y448D02*
X824Y448D01*
X851Y448D02*
X868Y448D01*
X907Y448D02*
X924Y448D01*
X951Y448D02*
X968Y448D01*
X1007Y448D02*
X1023Y448D01*
X1051Y448D02*
X1068Y448D01*
X1107Y448D02*
X1123Y448D01*
X1151Y448D02*
X1168Y448D01*
X1207Y448D02*
X1223Y448D01*
X1251Y448D02*
X1268Y448D01*
X1307Y448D02*
X1323Y448D01*
X1351Y448D02*
X1368Y448D01*
X1407Y448D02*
X1423Y448D01*
X1451Y448D02*
X1468Y448D01*
X1507Y448D02*
X1523Y448D01*
X1551Y448D02*
X1568Y448D01*
X1607Y448D02*
X1623Y448D01*
X1651Y448D02*
X1668Y448D01*
X507Y447D02*
X525Y447D01*
X551Y447D02*
X568Y447D01*
X607Y447D02*
X625Y447D01*
X651Y447D02*
X668Y447D01*
X707Y447D02*
X725Y447D01*
X750Y447D02*
X768Y447D01*
X807Y447D02*
X825Y447D01*
X850Y447D02*
X868Y447D01*
X907Y447D02*
X925Y447D01*
X950Y447D02*
X968Y447D01*
X1007Y447D02*
X1025Y447D01*
X1050Y447D02*
X1068Y447D01*
X1107Y447D02*
X1125Y447D01*
X1150Y447D02*
X1168Y447D01*
X1207Y447D02*
X1225Y447D01*
X1250Y447D02*
X1267Y447D01*
X1307Y447D02*
X1324Y447D01*
X1350Y447D02*
X1367Y447D01*
X1407Y447D02*
X1424Y447D01*
X1450Y447D02*
X1467Y447D01*
X1507Y447D02*
X1524Y447D01*
X1550Y447D02*
X1567Y447D01*
X1607Y447D02*
X1624Y447D01*
X1650Y447D02*
X1667Y447D01*
X508Y446D02*
X526Y446D01*
X549Y446D02*
X567Y446D01*
X608Y446D02*
X626Y446D01*
X649Y446D02*
X667Y446D01*
X708Y446D02*
X726Y446D01*
X749Y446D02*
X767Y446D01*
X808Y446D02*
X826Y446D01*
X849Y446D02*
X867Y446D01*
X908Y446D02*
X926Y446D01*
X949Y446D02*
X967Y446D01*
X1008Y446D02*
X1026Y446D01*
X1049Y446D02*
X1067Y446D01*
X1108Y446D02*
X1126Y446D01*
X1149Y446D02*
X1167Y446D01*
X1208Y446D02*
X1226Y446D01*
X1249Y446D02*
X1267Y446D01*
X1308Y446D02*
X1326Y446D01*
X1349Y446D02*
X1367Y446D01*
X1408Y446D02*
X1426Y446D01*
X1449Y446D02*
X1467Y446D01*
X1508Y446D02*
X1526Y446D01*
X1549Y446D02*
X1567Y446D01*
X1608Y446D02*
X1626Y446D01*
X1649Y446D02*
X1667Y446D01*
X508Y445D02*
X528Y445D01*
X548Y445D02*
X567Y445D01*
X608Y445D02*
X627Y445D01*
X648Y445D02*
X667Y445D01*
X708Y445D02*
X727Y445D01*
X748Y445D02*
X767Y445D01*
X808Y445D02*
X827Y445D01*
X848Y445D02*
X867Y445D01*
X908Y445D02*
X927Y445D01*
X948Y445D02*
X967Y445D01*
X1008Y445D02*
X1027Y445D01*
X1048Y445D02*
X1067Y445D01*
X1108Y445D02*
X1127Y445D01*
X1148Y445D02*
X1167Y445D01*
X1208Y445D02*
X1227Y445D01*
X1248Y445D02*
X1266Y445D01*
X1308Y445D02*
X1327Y445D01*
X1348Y445D02*
X1366Y445D01*
X1408Y445D02*
X1427Y445D01*
X1448Y445D02*
X1466Y445D01*
X1508Y445D02*
X1527Y445D01*
X1548Y445D02*
X1566Y445D01*
X1608Y445D02*
X1627Y445D01*
X1647Y445D02*
X1666Y445D01*
X509Y444D02*
X530Y444D01*
X546Y444D02*
X566Y444D01*
X609Y444D02*
X630Y444D01*
X646Y444D02*
X666Y444D01*
X709Y444D02*
X729Y444D01*
X746Y444D02*
X766Y444D01*
X809Y444D02*
X829Y444D01*
X846Y444D02*
X866Y444D01*
X909Y444D02*
X929Y444D01*
X946Y444D02*
X966Y444D01*
X1009Y444D02*
X1029Y444D01*
X1046Y444D02*
X1066Y444D01*
X1109Y444D02*
X1129Y444D01*
X1146Y444D02*
X1166Y444D01*
X1209Y444D02*
X1229Y444D01*
X1246Y444D02*
X1266Y444D01*
X1309Y444D02*
X1329Y444D01*
X1346Y444D02*
X1366Y444D01*
X1409Y444D02*
X1429Y444D01*
X1446Y444D02*
X1466Y444D01*
X1509Y444D02*
X1529Y444D01*
X1545Y444D02*
X1566Y444D01*
X1609Y444D02*
X1629Y444D01*
X1645Y444D02*
X1666Y444D01*
X510Y443D02*
X533Y443D01*
X542Y443D02*
X565Y443D01*
X610Y443D02*
X633Y443D01*
X642Y443D02*
X665Y443D01*
X710Y443D02*
X733Y443D01*
X742Y443D02*
X765Y443D01*
X810Y443D02*
X833Y443D01*
X842Y443D02*
X865Y443D01*
X910Y443D02*
X933Y443D01*
X942Y443D02*
X965Y443D01*
X1010Y443D02*
X1033Y443D01*
X1042Y443D02*
X1065Y443D01*
X1109Y443D02*
X1133Y443D01*
X1142Y443D02*
X1165Y443D01*
X1209Y443D02*
X1233Y443D01*
X1242Y443D02*
X1265Y443D01*
X1309Y443D02*
X1333Y443D01*
X1342Y443D02*
X1365Y443D01*
X1409Y443D02*
X1433Y443D01*
X1442Y443D02*
X1465Y443D01*
X1509Y443D02*
X1533Y443D01*
X1542Y443D02*
X1565Y443D01*
X1609Y443D02*
X1633Y443D01*
X1642Y443D02*
X1665Y443D01*
X510Y442D02*
X565Y442D01*
X610Y442D02*
X665Y442D01*
X710Y442D02*
X765Y442D01*
X810Y442D02*
X865Y442D01*
X910Y442D02*
X965Y442D01*
X1010Y442D02*
X1065Y442D01*
X1110Y442D02*
X1165Y442D01*
X1210Y442D02*
X1265Y442D01*
X1310Y442D02*
X1365Y442D01*
X1410Y442D02*
X1465Y442D01*
X1510Y442D02*
X1565Y442D01*
X1610Y442D02*
X1665Y442D01*
X511Y441D02*
X564Y441D01*
X611Y441D02*
X664Y441D01*
X711Y441D02*
X764Y441D01*
X811Y441D02*
X864Y441D01*
X911Y441D02*
X964Y441D01*
X1011Y441D02*
X1064Y441D01*
X1111Y441D02*
X1164Y441D01*
X1211Y441D02*
X1264Y441D01*
X1311Y441D02*
X1364Y441D01*
X1411Y441D02*
X1464Y441D01*
X1511Y441D02*
X1564Y441D01*
X1611Y441D02*
X1664Y441D01*
X512Y440D02*
X563Y440D01*
X612Y440D02*
X663Y440D01*
X712Y440D02*
X763Y440D01*
X812Y440D02*
X863Y440D01*
X912Y440D02*
X963Y440D01*
X1012Y440D02*
X1063Y440D01*
X1112Y440D02*
X1163Y440D01*
X1212Y440D02*
X1263Y440D01*
X1312Y440D02*
X1363Y440D01*
X1412Y440D02*
X1463Y440D01*
X1512Y440D02*
X1563Y440D01*
X1612Y440D02*
X1663Y440D01*
X513Y439D02*
X562Y439D01*
X613Y439D02*
X662Y439D01*
X713Y439D02*
X762Y439D01*
X813Y439D02*
X862Y439D01*
X913Y439D02*
X962Y439D01*
X1013Y439D02*
X1062Y439D01*
X1113Y439D02*
X1162Y439D01*
X1213Y439D02*
X1262Y439D01*
X1313Y439D02*
X1362Y439D01*
X1412Y439D02*
X1462Y439D01*
X1512Y439D02*
X1562Y439D01*
X1612Y439D02*
X1662Y439D01*
X514Y438D02*
X562Y438D01*
X614Y438D02*
X662Y438D01*
X714Y438D02*
X762Y438D01*
X814Y438D02*
X861Y438D01*
X914Y438D02*
X961Y438D01*
X1014Y438D02*
X1061Y438D01*
X1113Y438D02*
X1161Y438D01*
X1213Y438D02*
X1261Y438D01*
X1313Y438D02*
X1361Y438D01*
X1413Y438D02*
X1461Y438D01*
X1513Y438D02*
X1561Y438D01*
X1613Y438D02*
X1661Y438D01*
X515Y437D02*
X561Y437D01*
X615Y437D02*
X661Y437D01*
X715Y437D02*
X761Y437D01*
X815Y437D02*
X861Y437D01*
X914Y437D02*
X961Y437D01*
X1014Y437D02*
X1060Y437D01*
X1114Y437D02*
X1160Y437D01*
X1214Y437D02*
X1260Y437D01*
X1314Y437D02*
X1360Y437D01*
X1414Y437D02*
X1460Y437D01*
X1514Y437D02*
X1560Y437D01*
X1614Y437D02*
X1660Y437D01*
X516Y436D02*
X560Y436D01*
X616Y436D02*
X660Y436D01*
X716Y436D02*
X760Y436D01*
X816Y436D02*
X859Y436D01*
X916Y436D02*
X959Y436D01*
X1016Y436D02*
X1059Y436D01*
X1116Y436D02*
X1159Y436D01*
X1216Y436D02*
X1259Y436D01*
X1315Y436D02*
X1359Y436D01*
X1415Y436D02*
X1459Y436D01*
X1515Y436D02*
X1559Y436D01*
X1615Y436D02*
X1659Y436D01*
X517Y435D02*
X558Y435D01*
X617Y435D02*
X658Y435D01*
X717Y435D02*
X758Y435D01*
X817Y435D02*
X858Y435D01*
X917Y435D02*
X958Y435D01*
X1017Y435D02*
X1058Y435D01*
X1117Y435D02*
X1158Y435D01*
X1217Y435D02*
X1258Y435D01*
X1317Y435D02*
X1358Y435D01*
X1417Y435D02*
X1458Y435D01*
X1517Y435D02*
X1558Y435D01*
X1617Y435D02*
X1658Y435D01*
X518Y434D02*
X557Y434D01*
X618Y434D02*
X657Y434D01*
X718Y434D02*
X757Y434D01*
X818Y434D02*
X857Y434D01*
X918Y434D02*
X957Y434D01*
X1018Y434D02*
X1057Y434D01*
X1118Y434D02*
X1157Y434D01*
X1218Y434D02*
X1257Y434D01*
X1318Y434D02*
X1357Y434D01*
X1418Y434D02*
X1457Y434D01*
X1518Y434D02*
X1557Y434D01*
X1618Y434D02*
X1657Y434D01*
X519Y433D02*
X556Y433D01*
X619Y433D02*
X656Y433D01*
X719Y433D02*
X756Y433D01*
X819Y433D02*
X856Y433D01*
X919Y433D02*
X956Y433D01*
X1019Y433D02*
X1056Y433D01*
X1119Y433D02*
X1156Y433D01*
X1219Y433D02*
X1256Y433D01*
X1319Y433D02*
X1356Y433D01*
X1419Y433D02*
X1456Y433D01*
X1519Y433D02*
X1556Y433D01*
X1619Y433D02*
X1656Y433D01*
X521Y432D02*
X554Y432D01*
X621Y432D02*
X654Y432D01*
X721Y432D02*
X754Y432D01*
X821Y432D02*
X854Y432D01*
X921Y432D02*
X954Y432D01*
X1021Y432D02*
X1054Y432D01*
X1121Y432D02*
X1154Y432D01*
X1221Y432D02*
X1254Y432D01*
X1321Y432D02*
X1354Y432D01*
X1421Y432D02*
X1454Y432D01*
X1521Y432D02*
X1554Y432D01*
X1621Y432D02*
X1654Y432D01*
X522Y431D02*
X553Y431D01*
X622Y431D02*
X653Y431D01*
X722Y431D02*
X753Y431D01*
X822Y431D02*
X853Y431D01*
X922Y431D02*
X953Y431D01*
X1022Y431D02*
X1053Y431D01*
X1122Y431D02*
X1153Y431D01*
X1222Y431D02*
X1253Y431D01*
X1322Y431D02*
X1353Y431D01*
X1422Y431D02*
X1453Y431D01*
X1522Y431D02*
X1553Y431D01*
X1622Y431D02*
X1653Y431D01*
X524Y430D02*
X551Y430D01*
X624Y430D02*
X651Y430D01*
X724Y430D02*
X751Y430D01*
X824Y430D02*
X851Y430D01*
X924Y430D02*
X951Y430D01*
X1024Y430D02*
X1051Y430D01*
X1124Y430D02*
X1151Y430D01*
X1224Y430D02*
X1251Y430D01*
X1324Y430D02*
X1351Y430D01*
X1424Y430D02*
X1451Y430D01*
X1524Y430D02*
X1551Y430D01*
X1624Y430D02*
X1651Y430D01*
X527Y429D02*
X549Y429D01*
X627Y429D02*
X649Y429D01*
X727Y429D02*
X749Y429D01*
X827Y429D02*
X849Y429D01*
X926Y429D02*
X949Y429D01*
X1026Y429D02*
X1049Y429D01*
X1126Y429D02*
X1149Y429D01*
X1226Y429D02*
X1248Y429D01*
X1326Y429D02*
X1348Y429D01*
X1426Y429D02*
X1448Y429D01*
X1526Y429D02*
X1548Y429D01*
X1626Y429D02*
X1648Y429D01*
X529Y428D02*
X546Y428D01*
X629Y428D02*
X646Y428D01*
X729Y428D02*
X746Y428D01*
X829Y428D02*
X846Y428D01*
X929Y428D02*
X946Y428D01*
X1029Y428D02*
X1046Y428D01*
X1129Y428D02*
X1146Y428D01*
X1229Y428D02*
X1246Y428D01*
X1329Y428D02*
X1346Y428D01*
X1429Y428D02*
X1446Y428D01*
X1529Y428D02*
X1546Y428D01*
X1629Y428D02*
X1646Y428D01*
X534Y427D02*
X541Y427D01*
X634Y427D02*
X641Y427D01*
X734Y427D02*
X741Y427D01*
X834Y427D02*
X841Y427D01*
X934Y427D02*
X941Y427D01*
X1034Y427D02*
X1041Y427D01*
X1134Y427D02*
X1141Y427D01*
X1234Y427D02*
X1241Y427D01*
X1334Y427D02*
X1341Y427D01*
X1433Y427D02*
X1441Y427D01*
X1533Y427D02*
X1541Y427D01*
X1633Y427D02*
X1641Y427D01*
D02*
G04 End of Copper0*
M02*